%TF.GenerationSoftware,KiCad,Pcbnew,(6.0.10)*%
%TF.CreationDate,2023-02-11T22:55:32+01:00*%
%TF.ProjectId,schematics,73636865-6d61-4746-9963-732e6b696361,rev?*%
%TF.SameCoordinates,Original*%
%TF.FileFunction,Legend,Top*%
%TF.FilePolarity,Positive*%
%FSLAX46Y46*%
G04 Gerber Fmt 4.6, Leading zero omitted, Abs format (unit mm)*
G04 Created by KiCad (PCBNEW (6.0.10)) date 2023-02-11 22:55:32*
%MOMM*%
%LPD*%
G01*
G04 APERTURE LIST*
%ADD10C,0.150000*%
%ADD11C,0.120000*%
G04 APERTURE END LIST*
D10*
%TO.C,DMX_Out1*%
X137601930Y-85217780D02*
X137601930Y-84217780D01*
X137840025Y-84217780D01*
X137982882Y-84265400D01*
X138078121Y-84360638D01*
X138125740Y-84455876D01*
X138173359Y-84646352D01*
X138173359Y-84789209D01*
X138125740Y-84979685D01*
X138078121Y-85074923D01*
X137982882Y-85170161D01*
X137840025Y-85217780D01*
X137601930Y-85217780D01*
X138601930Y-85217780D02*
X138601930Y-84217780D01*
X138935263Y-84932066D01*
X139268597Y-84217780D01*
X139268597Y-85217780D01*
X139649549Y-84217780D02*
X140316216Y-85217780D01*
X140316216Y-84217780D02*
X139649549Y-85217780D01*
X140459073Y-85313019D02*
X141220978Y-85313019D01*
X141649549Y-84217780D02*
X141840025Y-84217780D01*
X141935263Y-84265400D01*
X142030502Y-84360638D01*
X142078121Y-84551114D01*
X142078121Y-84884447D01*
X142030502Y-85074923D01*
X141935263Y-85170161D01*
X141840025Y-85217780D01*
X141649549Y-85217780D01*
X141554311Y-85170161D01*
X141459073Y-85074923D01*
X141411454Y-84884447D01*
X141411454Y-84551114D01*
X141459073Y-84360638D01*
X141554311Y-84265400D01*
X141649549Y-84217780D01*
X142935263Y-84551114D02*
X142935263Y-85217780D01*
X142506692Y-84551114D02*
X142506692Y-85074923D01*
X142554311Y-85170161D01*
X142649549Y-85217780D01*
X142792406Y-85217780D01*
X142887644Y-85170161D01*
X142935263Y-85122542D01*
X143268597Y-84551114D02*
X143649549Y-84551114D01*
X143411454Y-84217780D02*
X143411454Y-85074923D01*
X143459073Y-85170161D01*
X143554311Y-85217780D01*
X143649549Y-85217780D01*
X144506692Y-85217780D02*
X143935263Y-85217780D01*
X144220978Y-85217780D02*
X144220978Y-84217780D01*
X144125740Y-84360638D01*
X144030502Y-84455876D01*
X143935263Y-84503495D01*
%TO.C,H4*%
X149238095Y-80452380D02*
X149238095Y-79452380D01*
X149238095Y-79928571D02*
X149809523Y-79928571D01*
X149809523Y-80452380D02*
X149809523Y-79452380D01*
X150714285Y-79785714D02*
X150714285Y-80452380D01*
X150476190Y-79404761D02*
X150238095Y-80119047D01*
X150857142Y-80119047D01*
%TO.C,H3*%
X149238095Y-50452380D02*
X149238095Y-49452380D01*
X149238095Y-49928571D02*
X149809523Y-49928571D01*
X149809523Y-50452380D02*
X149809523Y-49452380D01*
X150190476Y-49452380D02*
X150809523Y-49452380D01*
X150476190Y-49833333D01*
X150619047Y-49833333D01*
X150714285Y-49880952D01*
X150761904Y-49928571D01*
X150809523Y-50023809D01*
X150809523Y-50261904D01*
X150761904Y-50357142D01*
X150714285Y-50404761D01*
X150619047Y-50452380D01*
X150333333Y-50452380D01*
X150238095Y-50404761D01*
X150190476Y-50357142D01*
%TO.C,AMS1*%
X120158095Y-73488089D02*
X120634285Y-73488089D01*
X120062857Y-73773803D02*
X120396190Y-72773803D01*
X120729523Y-73773803D01*
X121062857Y-73773803D02*
X121062857Y-72773803D01*
X121396190Y-73488089D01*
X121729523Y-72773803D01*
X121729523Y-73773803D01*
X122158095Y-73726184D02*
X122300952Y-73773803D01*
X122539047Y-73773803D01*
X122634285Y-73726184D01*
X122681904Y-73678565D01*
X122729523Y-73583327D01*
X122729523Y-73488089D01*
X122681904Y-73392851D01*
X122634285Y-73345232D01*
X122539047Y-73297613D01*
X122348571Y-73249994D01*
X122253333Y-73202375D01*
X122205714Y-73154756D01*
X122158095Y-73059518D01*
X122158095Y-72964280D01*
X122205714Y-72869042D01*
X122253333Y-72821423D01*
X122348571Y-72773803D01*
X122586666Y-72773803D01*
X122729523Y-72821423D01*
X123681904Y-73773803D02*
X123110476Y-73773803D01*
X123396190Y-73773803D02*
X123396190Y-72773803D01*
X123300952Y-72916661D01*
X123205714Y-73011899D01*
X123110476Y-73059518D01*
%TO.C,ESP32-WROOM-32*%
X92036190Y-60888571D02*
X92369523Y-60888571D01*
X92512380Y-61412380D02*
X92036190Y-61412380D01*
X92036190Y-60412380D01*
X92512380Y-60412380D01*
X92893333Y-61364761D02*
X93036190Y-61412380D01*
X93274285Y-61412380D01*
X93369523Y-61364761D01*
X93417142Y-61317142D01*
X93464761Y-61221904D01*
X93464761Y-61126666D01*
X93417142Y-61031428D01*
X93369523Y-60983809D01*
X93274285Y-60936190D01*
X93083809Y-60888571D01*
X92988571Y-60840952D01*
X92940952Y-60793333D01*
X92893333Y-60698095D01*
X92893333Y-60602857D01*
X92940952Y-60507619D01*
X92988571Y-60460000D01*
X93083809Y-60412380D01*
X93321904Y-60412380D01*
X93464761Y-60460000D01*
X93893333Y-61412380D02*
X93893333Y-60412380D01*
X94274285Y-60412380D01*
X94369523Y-60460000D01*
X94417142Y-60507619D01*
X94464761Y-60602857D01*
X94464761Y-60745714D01*
X94417142Y-60840952D01*
X94369523Y-60888571D01*
X94274285Y-60936190D01*
X93893333Y-60936190D01*
X94798095Y-60412380D02*
X95417142Y-60412380D01*
X95083809Y-60793333D01*
X95226666Y-60793333D01*
X95321904Y-60840952D01*
X95369523Y-60888571D01*
X95417142Y-60983809D01*
X95417142Y-61221904D01*
X95369523Y-61317142D01*
X95321904Y-61364761D01*
X95226666Y-61412380D01*
X94940952Y-61412380D01*
X94845714Y-61364761D01*
X94798095Y-61317142D01*
X95798095Y-60507619D02*
X95845714Y-60460000D01*
X95940952Y-60412380D01*
X96179047Y-60412380D01*
X96274285Y-60460000D01*
X96321904Y-60507619D01*
X96369523Y-60602857D01*
X96369523Y-60698095D01*
X96321904Y-60840952D01*
X95750476Y-61412380D01*
X96369523Y-61412380D01*
X96798095Y-61031428D02*
X97560000Y-61031428D01*
X97940952Y-60412380D02*
X98179047Y-61412380D01*
X98369523Y-60698095D01*
X98560000Y-61412380D01*
X98798095Y-60412380D01*
X99750476Y-61412380D02*
X99417142Y-60936190D01*
X99179047Y-61412380D02*
X99179047Y-60412380D01*
X99560000Y-60412380D01*
X99655238Y-60460000D01*
X99702857Y-60507619D01*
X99750476Y-60602857D01*
X99750476Y-60745714D01*
X99702857Y-60840952D01*
X99655238Y-60888571D01*
X99560000Y-60936190D01*
X99179047Y-60936190D01*
X100369523Y-60412380D02*
X100560000Y-60412380D01*
X100655238Y-60460000D01*
X100750476Y-60555238D01*
X100798095Y-60745714D01*
X100798095Y-61079047D01*
X100750476Y-61269523D01*
X100655238Y-61364761D01*
X100560000Y-61412380D01*
X100369523Y-61412380D01*
X100274285Y-61364761D01*
X100179047Y-61269523D01*
X100131428Y-61079047D01*
X100131428Y-60745714D01*
X100179047Y-60555238D01*
X100274285Y-60460000D01*
X100369523Y-60412380D01*
X101417142Y-60412380D02*
X101607619Y-60412380D01*
X101702857Y-60460000D01*
X101798095Y-60555238D01*
X101845714Y-60745714D01*
X101845714Y-61079047D01*
X101798095Y-61269523D01*
X101702857Y-61364761D01*
X101607619Y-61412380D01*
X101417142Y-61412380D01*
X101321904Y-61364761D01*
X101226666Y-61269523D01*
X101179047Y-61079047D01*
X101179047Y-60745714D01*
X101226666Y-60555238D01*
X101321904Y-60460000D01*
X101417142Y-60412380D01*
X102274285Y-61412380D02*
X102274285Y-60412380D01*
X102607619Y-61126666D01*
X102940952Y-60412380D01*
X102940952Y-61412380D01*
X103417142Y-61031428D02*
X104179047Y-61031428D01*
X104560000Y-60412380D02*
X105179047Y-60412380D01*
X104845714Y-60793333D01*
X104988571Y-60793333D01*
X105083809Y-60840952D01*
X105131428Y-60888571D01*
X105179047Y-60983809D01*
X105179047Y-61221904D01*
X105131428Y-61317142D01*
X105083809Y-61364761D01*
X104988571Y-61412380D01*
X104702857Y-61412380D01*
X104607619Y-61364761D01*
X104560000Y-61317142D01*
X105560000Y-60507619D02*
X105607619Y-60460000D01*
X105702857Y-60412380D01*
X105940952Y-60412380D01*
X106036190Y-60460000D01*
X106083809Y-60507619D01*
X106131428Y-60602857D01*
X106131428Y-60698095D01*
X106083809Y-60840952D01*
X105512380Y-61412380D01*
X106131428Y-61412380D01*
%TO.C,J3*%
X140086056Y-55360988D02*
X140086056Y-56075274D01*
X140038437Y-56218131D01*
X139943199Y-56313369D01*
X139800342Y-56360988D01*
X139705104Y-56360988D01*
X140467009Y-55360988D02*
X141086056Y-55360988D01*
X140752723Y-55741941D01*
X140895580Y-55741941D01*
X140990818Y-55789560D01*
X141038437Y-55837179D01*
X141086056Y-55932417D01*
X141086056Y-56170512D01*
X141038437Y-56265750D01*
X140990818Y-56313369D01*
X140895580Y-56360988D01*
X140609866Y-56360988D01*
X140514628Y-56313369D01*
X140467009Y-56265750D01*
%TO.C,Power1*%
X138152661Y-55240641D02*
X138152661Y-54240641D01*
X138533613Y-54240641D01*
X138628851Y-54288261D01*
X138676470Y-54335880D01*
X138724089Y-54431118D01*
X138724089Y-54573975D01*
X138676470Y-54669213D01*
X138628851Y-54716832D01*
X138533613Y-54764451D01*
X138152661Y-54764451D01*
X139295518Y-55240641D02*
X139200280Y-55193022D01*
X139152661Y-55145403D01*
X139105042Y-55050165D01*
X139105042Y-54764451D01*
X139152661Y-54669213D01*
X139200280Y-54621594D01*
X139295518Y-54573975D01*
X139438375Y-54573975D01*
X139533613Y-54621594D01*
X139581232Y-54669213D01*
X139628851Y-54764451D01*
X139628851Y-55050165D01*
X139581232Y-55145403D01*
X139533613Y-55193022D01*
X139438375Y-55240641D01*
X139295518Y-55240641D01*
X139962184Y-54573975D02*
X140152661Y-55240641D01*
X140343137Y-54764451D01*
X140533613Y-55240641D01*
X140724089Y-54573975D01*
X141485994Y-55193022D02*
X141390756Y-55240641D01*
X141200280Y-55240641D01*
X141105042Y-55193022D01*
X141057422Y-55097784D01*
X141057422Y-54716832D01*
X141105042Y-54621594D01*
X141200280Y-54573975D01*
X141390756Y-54573975D01*
X141485994Y-54621594D01*
X141533613Y-54716832D01*
X141533613Y-54812070D01*
X141057422Y-54907308D01*
X141962184Y-55240641D02*
X141962184Y-54573975D01*
X141962184Y-54764451D02*
X142009803Y-54669213D01*
X142057422Y-54621594D01*
X142152661Y-54573975D01*
X142247899Y-54573975D01*
X143105042Y-55240641D02*
X142533613Y-55240641D01*
X142819327Y-55240641D02*
X142819327Y-54240641D01*
X142724089Y-54383499D01*
X142628851Y-54478737D01*
X142533613Y-54526356D01*
%TO.C,H1*%
X99238095Y-50452380D02*
X99238095Y-49452380D01*
X99238095Y-49928571D02*
X99809523Y-49928571D01*
X99809523Y-50452380D02*
X99809523Y-49452380D01*
X100809523Y-50452380D02*
X100238095Y-50452380D01*
X100523809Y-50452380D02*
X100523809Y-49452380D01*
X100428571Y-49595238D01*
X100333333Y-49690476D01*
X100238095Y-49738095D01*
%TO.C,C3*%
X133591135Y-53396197D02*
X133543516Y-53443816D01*
X133400659Y-53491435D01*
X133305421Y-53491435D01*
X133162563Y-53443816D01*
X133067325Y-53348578D01*
X133019706Y-53253340D01*
X132972087Y-53062864D01*
X132972087Y-52920007D01*
X133019706Y-52729531D01*
X133067325Y-52634293D01*
X133162563Y-52539055D01*
X133305421Y-52491435D01*
X133400659Y-52491435D01*
X133543516Y-52539055D01*
X133591135Y-52586674D01*
X133924468Y-52491435D02*
X134543516Y-52491435D01*
X134210182Y-52872388D01*
X134353040Y-52872388D01*
X134448278Y-52920007D01*
X134495897Y-52967626D01*
X134543516Y-53062864D01*
X134543516Y-53300959D01*
X134495897Y-53396197D01*
X134448278Y-53443816D01*
X134353040Y-53491435D01*
X134067325Y-53491435D01*
X133972087Y-53443816D01*
X133924468Y-53396197D01*
%TO.C,C1*%
X122867508Y-67212286D02*
X122915127Y-67259905D01*
X122962746Y-67402762D01*
X122962746Y-67498000D01*
X122915127Y-67640858D01*
X122819889Y-67736096D01*
X122724651Y-67783715D01*
X122534175Y-67831334D01*
X122391318Y-67831334D01*
X122200842Y-67783715D01*
X122105604Y-67736096D01*
X122010366Y-67640858D01*
X121962746Y-67498000D01*
X121962746Y-67402762D01*
X122010366Y-67259905D01*
X122057985Y-67212286D01*
X122962746Y-66259905D02*
X122962746Y-66831334D01*
X122962746Y-66545620D02*
X121962746Y-66545620D01*
X122105604Y-66640858D01*
X122200842Y-66736096D01*
X122248461Y-66831334D01*
%TO.C,LED2*%
X125765419Y-54740501D02*
X125289228Y-54740501D01*
X125289228Y-53740501D01*
X126098752Y-54216692D02*
X126432086Y-54216692D01*
X126574943Y-54740501D02*
X126098752Y-54740501D01*
X126098752Y-53740501D01*
X126574943Y-53740501D01*
X127003514Y-54740501D02*
X127003514Y-53740501D01*
X127241609Y-53740501D01*
X127384467Y-53788121D01*
X127479705Y-53883359D01*
X127527324Y-53978597D01*
X127574943Y-54169073D01*
X127574943Y-54311930D01*
X127527324Y-54502406D01*
X127479705Y-54597644D01*
X127384467Y-54692882D01*
X127241609Y-54740501D01*
X127003514Y-54740501D01*
X127955895Y-53835740D02*
X128003514Y-53788121D01*
X128098752Y-53740501D01*
X128336847Y-53740501D01*
X128432086Y-53788121D01*
X128479705Y-53835740D01*
X128527324Y-53930978D01*
X128527324Y-54026216D01*
X128479705Y-54169073D01*
X127908276Y-54740501D01*
X128527324Y-54740501D01*
%TO.C,J5*%
X128953801Y-84798174D02*
X128953801Y-85512460D01*
X128906182Y-85655317D01*
X128810944Y-85750555D01*
X128668087Y-85798174D01*
X128572849Y-85798174D01*
X129906182Y-84798174D02*
X129429992Y-84798174D01*
X129382373Y-85274365D01*
X129429992Y-85226746D01*
X129525230Y-85179127D01*
X129763325Y-85179127D01*
X129858563Y-85226746D01*
X129906182Y-85274365D01*
X129953801Y-85369603D01*
X129953801Y-85607698D01*
X129906182Y-85702936D01*
X129858563Y-85750555D01*
X129763325Y-85798174D01*
X129525230Y-85798174D01*
X129429992Y-85750555D01*
X129382373Y-85702936D01*
%TO.C,R3*%
X139716637Y-71917423D02*
X139383304Y-71441233D01*
X139145208Y-71917423D02*
X139145208Y-70917423D01*
X139526161Y-70917423D01*
X139621399Y-70965043D01*
X139669018Y-71012662D01*
X139716637Y-71107900D01*
X139716637Y-71250757D01*
X139669018Y-71345995D01*
X139621399Y-71393614D01*
X139526161Y-71441233D01*
X139145208Y-71441233D01*
X140049970Y-70917423D02*
X140669018Y-70917423D01*
X140335684Y-71298376D01*
X140478542Y-71298376D01*
X140573780Y-71345995D01*
X140621399Y-71393614D01*
X140669018Y-71488852D01*
X140669018Y-71726947D01*
X140621399Y-71822185D01*
X140573780Y-71869804D01*
X140478542Y-71917423D01*
X140192827Y-71917423D01*
X140097589Y-71869804D01*
X140049970Y-71822185D01*
%TO.C,R1*%
X144529380Y-65050123D02*
X144053190Y-65383457D01*
X144529380Y-65621552D02*
X143529380Y-65621552D01*
X143529380Y-65240599D01*
X143577000Y-65145361D01*
X143624619Y-65097742D01*
X143719857Y-65050123D01*
X143862714Y-65050123D01*
X143957952Y-65097742D01*
X144005571Y-65145361D01*
X144053190Y-65240599D01*
X144053190Y-65621552D01*
X144529380Y-64097742D02*
X144529380Y-64669171D01*
X144529380Y-64383457D02*
X143529380Y-64383457D01*
X143672238Y-64478695D01*
X143767476Y-64573933D01*
X143815095Y-64669171D01*
%TO.C,DMX_IN1*%
X153761474Y-62962503D02*
X152761474Y-62962503D01*
X152761474Y-62724408D01*
X152809094Y-62581551D01*
X152904332Y-62486312D01*
X152999570Y-62438693D01*
X153190046Y-62391074D01*
X153332903Y-62391074D01*
X153523379Y-62438693D01*
X153618617Y-62486312D01*
X153713855Y-62581551D01*
X153761474Y-62724408D01*
X153761474Y-62962503D01*
X153761474Y-61962503D02*
X152761474Y-61962503D01*
X153475760Y-61629170D01*
X152761474Y-61295836D01*
X153761474Y-61295836D01*
X152761474Y-60914884D02*
X153761474Y-60248217D01*
X152761474Y-60248217D02*
X153761474Y-60914884D01*
X153856713Y-60105360D02*
X153856713Y-59343455D01*
X153761474Y-59105360D02*
X152761474Y-59105360D01*
X153761474Y-58629170D02*
X152761474Y-58629170D01*
X153761474Y-58057741D01*
X152761474Y-58057741D01*
X153761474Y-57057741D02*
X153761474Y-57629170D01*
X153761474Y-57343455D02*
X152761474Y-57343455D01*
X152904332Y-57438693D01*
X152999570Y-57533932D01*
X153047189Y-57629170D01*
%TO.C,D2*%
X139706599Y-74483683D02*
X139706599Y-73483683D01*
X139944695Y-73483683D01*
X140087552Y-73531303D01*
X140182790Y-73626541D01*
X140230409Y-73721779D01*
X140278028Y-73912255D01*
X140278028Y-74055112D01*
X140230409Y-74245588D01*
X140182790Y-74340826D01*
X140087552Y-74436064D01*
X139944695Y-74483683D01*
X139706599Y-74483683D01*
X140658980Y-73578922D02*
X140706599Y-73531303D01*
X140801837Y-73483683D01*
X141039933Y-73483683D01*
X141135171Y-73531303D01*
X141182790Y-73578922D01*
X141230409Y-73674160D01*
X141230409Y-73769398D01*
X141182790Y-73912255D01*
X140611361Y-74483683D01*
X141230409Y-74483683D01*
%TO.C,MAX_Out1*%
X131385858Y-78258080D02*
X130385858Y-78258080D01*
X131100144Y-77924747D01*
X130385858Y-77591414D01*
X131385858Y-77591414D01*
X131100144Y-77162842D02*
X131100144Y-76686652D01*
X131385858Y-77258080D02*
X130385858Y-76924747D01*
X131385858Y-76591414D01*
X130385858Y-76353318D02*
X131385858Y-75686652D01*
X130385858Y-75686652D02*
X131385858Y-76353318D01*
X131481097Y-75543795D02*
X131481097Y-74781890D01*
X130385858Y-74353318D02*
X130385858Y-74162842D01*
X130433478Y-74067604D01*
X130528716Y-73972366D01*
X130719192Y-73924747D01*
X131052525Y-73924747D01*
X131243001Y-73972366D01*
X131338239Y-74067604D01*
X131385858Y-74162842D01*
X131385858Y-74353318D01*
X131338239Y-74448557D01*
X131243001Y-74543795D01*
X131052525Y-74591414D01*
X130719192Y-74591414D01*
X130528716Y-74543795D01*
X130433478Y-74448557D01*
X130385858Y-74353318D01*
X130719192Y-73067604D02*
X131385858Y-73067604D01*
X130719192Y-73496176D02*
X131243001Y-73496176D01*
X131338239Y-73448557D01*
X131385858Y-73353318D01*
X131385858Y-73210461D01*
X131338239Y-73115223D01*
X131290620Y-73067604D01*
X130719192Y-72734271D02*
X130719192Y-72353318D01*
X130385858Y-72591414D02*
X131243001Y-72591414D01*
X131338239Y-72543795D01*
X131385858Y-72448557D01*
X131385858Y-72353318D01*
X131385858Y-71496176D02*
X131385858Y-72067604D01*
X131385858Y-71781890D02*
X130385858Y-71781890D01*
X130528716Y-71877128D01*
X130623954Y-71972366D01*
X130671573Y-72067604D01*
%TO.C,H2*%
X99238095Y-80452380D02*
X99238095Y-79452380D01*
X99238095Y-79928571D02*
X99809523Y-79928571D01*
X99809523Y-80452380D02*
X99809523Y-79452380D01*
X100238095Y-79547619D02*
X100285714Y-79500000D01*
X100380952Y-79452380D01*
X100619047Y-79452380D01*
X100714285Y-79500000D01*
X100761904Y-79547619D01*
X100809523Y-79642857D01*
X100809523Y-79738095D01*
X100761904Y-79880952D01*
X100190476Y-80452380D01*
X100809523Y-80452380D01*
%TO.C,DMX_thru1*%
X153824018Y-73645192D02*
X152824018Y-73645192D01*
X152824018Y-73407097D01*
X152871638Y-73264240D01*
X152966876Y-73169002D01*
X153062114Y-73121383D01*
X153252590Y-73073764D01*
X153395447Y-73073764D01*
X153585923Y-73121383D01*
X153681161Y-73169002D01*
X153776399Y-73264240D01*
X153824018Y-73407097D01*
X153824018Y-73645192D01*
X153824018Y-72645192D02*
X152824018Y-72645192D01*
X153538304Y-72311859D01*
X152824018Y-71978526D01*
X153824018Y-71978526D01*
X152824018Y-71597573D02*
X153824018Y-70930906D01*
X152824018Y-70930906D02*
X153824018Y-71597573D01*
X153919257Y-70788049D02*
X153919257Y-70026145D01*
X153157352Y-69930906D02*
X153157352Y-69549954D01*
X152824018Y-69788049D02*
X153681161Y-69788049D01*
X153776399Y-69740430D01*
X153824018Y-69645192D01*
X153824018Y-69549954D01*
X153824018Y-69216621D02*
X152824018Y-69216621D01*
X153824018Y-68788049D02*
X153300209Y-68788049D01*
X153204971Y-68835668D01*
X153157352Y-68930906D01*
X153157352Y-69073764D01*
X153204971Y-69169002D01*
X153252590Y-69216621D01*
X153824018Y-68311859D02*
X153157352Y-68311859D01*
X153347828Y-68311859D02*
X153252590Y-68264240D01*
X153204971Y-68216621D01*
X153157352Y-68121383D01*
X153157352Y-68026145D01*
X153157352Y-67264240D02*
X153824018Y-67264240D01*
X153157352Y-67692811D02*
X153681161Y-67692811D01*
X153776399Y-67645192D01*
X153824018Y-67549954D01*
X153824018Y-67407097D01*
X153776399Y-67311859D01*
X153728780Y-67264240D01*
X153824018Y-66264240D02*
X153824018Y-66835668D01*
X153824018Y-66549954D02*
X152824018Y-66549954D01*
X152966876Y-66645192D01*
X153062114Y-66740430D01*
X153109733Y-66835668D01*
%TO.C,R2*%
X143852515Y-70248218D02*
X143519182Y-69772028D01*
X143281086Y-70248218D02*
X143281086Y-69248218D01*
X143662039Y-69248218D01*
X143757277Y-69295838D01*
X143804896Y-69343457D01*
X143852515Y-69438695D01*
X143852515Y-69581552D01*
X143804896Y-69676790D01*
X143757277Y-69724409D01*
X143662039Y-69772028D01*
X143281086Y-69772028D01*
X144233467Y-69343457D02*
X144281086Y-69295838D01*
X144376324Y-69248218D01*
X144614420Y-69248218D01*
X144709658Y-69295838D01*
X144757277Y-69343457D01*
X144804896Y-69438695D01*
X144804896Y-69533933D01*
X144757277Y-69676790D01*
X144185848Y-70248218D01*
X144804896Y-70248218D01*
%TO.C,MAX_In1*%
X132600628Y-70877500D02*
X131600628Y-70877500D01*
X132314914Y-70544166D01*
X131600628Y-70210833D01*
X132600628Y-70210833D01*
X132314914Y-69782262D02*
X132314914Y-69306071D01*
X132600628Y-69877500D02*
X131600628Y-69544166D01*
X132600628Y-69210833D01*
X131600628Y-68972738D02*
X132600628Y-68306071D01*
X131600628Y-68306071D02*
X132600628Y-68972738D01*
X132695867Y-68163214D02*
X132695867Y-67401309D01*
X132600628Y-67163214D02*
X131600628Y-67163214D01*
X131933962Y-66687024D02*
X132600628Y-66687024D01*
X132029200Y-66687024D02*
X131981581Y-66639405D01*
X131933962Y-66544166D01*
X131933962Y-66401309D01*
X131981581Y-66306071D01*
X132076819Y-66258452D01*
X132600628Y-66258452D01*
X132600628Y-65258452D02*
X132600628Y-65829881D01*
X132600628Y-65544166D02*
X131600628Y-65544166D01*
X131743486Y-65639405D01*
X131838724Y-65734643D01*
X131886343Y-65829881D01*
%TO.C,J4*%
X103199353Y-79078333D02*
X103913639Y-79078333D01*
X104056496Y-79125952D01*
X104151734Y-79221190D01*
X104199353Y-79364047D01*
X104199353Y-79459285D01*
X103532687Y-78173571D02*
X104199353Y-78173571D01*
X103151734Y-78411666D02*
X103866020Y-78649761D01*
X103866020Y-78030714D01*
%TO.C,JTAG1*%
X103390458Y-51568177D02*
X104104744Y-51568177D01*
X104247601Y-51615796D01*
X104342839Y-51711034D01*
X104390458Y-51853891D01*
X104390458Y-51949129D01*
X103390458Y-51234843D02*
X103390458Y-50663415D01*
X104390458Y-50949129D02*
X103390458Y-50949129D01*
X104104744Y-50377700D02*
X104104744Y-49901510D01*
X104390458Y-50472939D02*
X103390458Y-50139605D01*
X104390458Y-49806272D01*
X103438078Y-48949129D02*
X103390458Y-49044367D01*
X103390458Y-49187224D01*
X103438078Y-49330081D01*
X103533316Y-49425320D01*
X103628554Y-49472939D01*
X103819030Y-49520558D01*
X103961887Y-49520558D01*
X104152363Y-49472939D01*
X104247601Y-49425320D01*
X104342839Y-49330081D01*
X104390458Y-49187224D01*
X104390458Y-49091986D01*
X104342839Y-48949129D01*
X104295220Y-48901510D01*
X103961887Y-48901510D01*
X103961887Y-49091986D01*
X104390458Y-47949129D02*
X104390458Y-48520558D01*
X104390458Y-48234843D02*
X103390458Y-48234843D01*
X103533316Y-48330081D01*
X103628554Y-48425320D01*
X103676173Y-48520558D01*
%TO.C,LED1*%
X125725419Y-55008337D02*
X125249228Y-55008337D01*
X125249228Y-54008337D01*
X126058752Y-54484528D02*
X126392086Y-54484528D01*
X126534943Y-55008337D02*
X126058752Y-55008337D01*
X126058752Y-54008337D01*
X126534943Y-54008337D01*
X126963514Y-55008337D02*
X126963514Y-54008337D01*
X127201609Y-54008337D01*
X127344467Y-54055957D01*
X127439705Y-54151195D01*
X127487324Y-54246433D01*
X127534943Y-54436909D01*
X127534943Y-54579766D01*
X127487324Y-54770242D01*
X127439705Y-54865480D01*
X127344467Y-54960718D01*
X127201609Y-55008337D01*
X126963514Y-55008337D01*
X128487324Y-55008337D02*
X127915895Y-55008337D01*
X128201609Y-55008337D02*
X128201609Y-54008337D01*
X128106371Y-54151195D01*
X128011133Y-54246433D01*
X127915895Y-54294052D01*
%TO.C,R4*%
X144334307Y-74989084D02*
X143858117Y-75322418D01*
X144334307Y-75560513D02*
X143334307Y-75560513D01*
X143334307Y-75179560D01*
X143381927Y-75084322D01*
X143429546Y-75036703D01*
X143524784Y-74989084D01*
X143667641Y-74989084D01*
X143762879Y-75036703D01*
X143810498Y-75084322D01*
X143858117Y-75179560D01*
X143858117Y-75560513D01*
X143667641Y-74131941D02*
X144334307Y-74131941D01*
X143286688Y-74370037D02*
X144000974Y-74608132D01*
X144000974Y-73989084D01*
%TO.C,C2*%
X121247121Y-66371093D02*
X121199502Y-66418712D01*
X121056645Y-66466331D01*
X120961407Y-66466331D01*
X120818549Y-66418712D01*
X120723311Y-66323474D01*
X120675692Y-66228236D01*
X120628073Y-66037760D01*
X120628073Y-65894903D01*
X120675692Y-65704427D01*
X120723311Y-65609189D01*
X120818549Y-65513951D01*
X120961407Y-65466331D01*
X121056645Y-65466331D01*
X121199502Y-65513951D01*
X121247121Y-65561570D01*
X121628073Y-65561570D02*
X121675692Y-65513951D01*
X121770930Y-65466331D01*
X122009026Y-65466331D01*
X122104264Y-65513951D01*
X122151883Y-65561570D01*
X122199502Y-65656808D01*
X122199502Y-65752046D01*
X122151883Y-65894903D01*
X121580454Y-66466331D01*
X122199502Y-66466331D01*
%TO.C,D1*%
X140143295Y-67059859D02*
X140143295Y-66059859D01*
X140381391Y-66059859D01*
X140524248Y-66107479D01*
X140619486Y-66202717D01*
X140667105Y-66297955D01*
X140714724Y-66488431D01*
X140714724Y-66631288D01*
X140667105Y-66821764D01*
X140619486Y-66917002D01*
X140524248Y-67012240D01*
X140381391Y-67059859D01*
X140143295Y-67059859D01*
X141667105Y-67059859D02*
X141095676Y-67059859D01*
X141381391Y-67059859D02*
X141381391Y-66059859D01*
X141286152Y-66202717D01*
X141190914Y-66297955D01*
X141095676Y-66345574D01*
D11*
%TO.C,DMX_Out1*%
X144880502Y-77965400D02*
X144880502Y-84015400D01*
X143530502Y-79075400D02*
X138450502Y-79075400D01*
X143530502Y-78065400D02*
X143530502Y-79075400D01*
X138450502Y-79075400D02*
X138450502Y-78065400D01*
X137080502Y-84015400D02*
X137080502Y-77965400D01*
X144880502Y-84015400D02*
X137080502Y-84015400D01*
X137080502Y-77965400D02*
X144880502Y-77965400D01*
%TO.C,AMS1*%
X118510000Y-75231423D02*
X119770000Y-75231423D01*
X118510000Y-71471423D02*
X118510000Y-75231423D01*
X125330000Y-75231423D02*
X124070000Y-75231423D01*
X125330000Y-69221423D02*
X125330000Y-75231423D01*
%TO.C,ESP32-WROOM-32*%
X89531107Y-73572055D02*
X95946107Y-73572055D01*
X114491107Y-55332055D02*
X115271107Y-55332055D01*
X89531107Y-55332055D02*
X95946107Y-55332055D01*
X115271107Y-55332055D02*
X115271107Y-56332055D01*
X89531107Y-73572055D02*
X89531107Y-55332055D01*
X95946107Y-73572055D02*
X95946107Y-73952055D01*
X115271107Y-73572055D02*
X115271107Y-72572055D01*
X114491107Y-73572055D02*
X115271107Y-73572055D01*
%TO.C,J3*%
X136879390Y-49498608D02*
X136619390Y-49498608D01*
X144089390Y-52288608D02*
X144089390Y-50478608D01*
X143959390Y-47998608D02*
X136879390Y-47998608D01*
X136619390Y-50478608D02*
X136749390Y-50478608D01*
X136749390Y-52288608D02*
X136619390Y-52288608D01*
X136749390Y-50478608D02*
X136749390Y-52288608D01*
X144519390Y-55118608D02*
X142109390Y-55118608D01*
X144519390Y-52708608D02*
X144519390Y-55118608D01*
X144089390Y-50478608D02*
X144219390Y-50478608D01*
X144219390Y-49498608D02*
X143959390Y-49498608D01*
X136619390Y-49498608D02*
X136619390Y-50478608D01*
X136879390Y-47998608D02*
X136879390Y-49498608D01*
X136619390Y-52288608D02*
X136619390Y-54818608D01*
X136619390Y-54818608D02*
X144219390Y-54818608D01*
X144219390Y-52288608D02*
X144089390Y-52288608D01*
X143959390Y-49498608D02*
X143959390Y-47998608D01*
X144219390Y-50478608D02*
X144219390Y-49498608D01*
X144219390Y-54818608D02*
X144219390Y-52288608D01*
%TO.C,Power1*%
X145685042Y-45898261D02*
X135525042Y-45898261D01*
X135525042Y-53518261D02*
X145685042Y-53518261D01*
X135525042Y-45898261D02*
X135525042Y-53518261D01*
X145685042Y-53518261D02*
X145685042Y-45898261D01*
X135525042Y-47168261D02*
X145685042Y-47168261D01*
%TO.C,C3*%
X133997802Y-54214055D02*
X133997802Y-58249055D01*
X134558802Y-54271055D02*
X134558802Y-58249055D01*
X136518802Y-61929055D02*
X136518802Y-63562055D01*
X135798802Y-54632055D02*
X135798802Y-58249055D01*
X135558802Y-61929055D02*
X135558802Y-64043055D01*
X136638802Y-61929055D02*
X136638802Y-63483055D01*
X138758802Y-58227055D02*
X138758802Y-60351055D01*
X137078802Y-55431055D02*
X137078802Y-63147055D01*
X134117802Y-60329055D02*
X134117802Y-64357055D01*
X136078802Y-54764055D02*
X136078802Y-59849055D01*
X135998802Y-54725055D02*
X135998802Y-58249055D01*
X136358802Y-61929055D02*
X136358802Y-63660055D01*
X135838802Y-54650055D02*
X135838802Y-58249055D01*
X136718802Y-55151055D02*
X136718802Y-59849055D01*
X134197802Y-54227055D02*
X134197802Y-58249055D01*
X136238802Y-61929055D02*
X136238802Y-63729055D01*
X136158802Y-54806055D02*
X136158802Y-59849055D01*
X136158802Y-61929055D02*
X136158802Y-63772055D01*
X137598802Y-55942055D02*
X137598802Y-62636055D01*
X136478802Y-54991055D02*
X136478802Y-59849055D01*
X134317802Y-54239055D02*
X134317802Y-58249055D01*
X137958802Y-56400055D02*
X137958802Y-62178055D01*
X138118802Y-56644055D02*
X138118802Y-61934055D01*
X134678802Y-61929055D02*
X134678802Y-64286055D01*
X135398802Y-61929055D02*
X135398802Y-64100055D01*
X137638802Y-55988055D02*
X137638802Y-62590055D01*
X137798802Y-56183055D02*
X137798802Y-62395055D01*
X136318802Y-61929055D02*
X136318802Y-63684055D01*
X137678802Y-56035055D02*
X137678802Y-62543055D01*
X138478802Y-57345055D02*
X138478802Y-61233055D01*
X134437802Y-54254055D02*
X134437802Y-58249055D01*
X128778156Y-55914055D02*
X128778156Y-56914055D01*
X137518802Y-55853055D02*
X137518802Y-62725055D01*
X135918802Y-54686055D02*
X135918802Y-58249055D01*
X136478802Y-61929055D02*
X136478802Y-63587055D01*
X134478802Y-60329055D02*
X134478802Y-64319055D01*
X136998802Y-55364055D02*
X136998802Y-63214055D01*
X135598802Y-61929055D02*
X135598802Y-64027055D01*
X135478802Y-61929055D02*
X135478802Y-64072055D01*
X135798802Y-61929055D02*
X135798802Y-63946055D01*
X134758802Y-61929055D02*
X134758802Y-64271055D01*
X134598802Y-60329055D02*
X134598802Y-64300055D01*
X136598802Y-55068055D02*
X136598802Y-59849055D01*
X135718802Y-54599055D02*
X135718802Y-58249055D01*
X134357802Y-54244055D02*
X134357802Y-58249055D01*
X135158802Y-61929055D02*
X135158802Y-64174055D01*
X137278802Y-55610055D02*
X137278802Y-62968055D01*
X133877802Y-54210055D02*
X133877802Y-64368055D01*
X135358802Y-54465055D02*
X135358802Y-58249055D01*
X135078802Y-54382055D02*
X135078802Y-58249055D01*
X134838802Y-61929055D02*
X134838802Y-64254055D01*
X134277802Y-54235055D02*
X134277802Y-58249055D01*
X135398802Y-54478055D02*
X135398802Y-58249055D01*
X136358802Y-54918055D02*
X136358802Y-59849055D01*
X136038802Y-61929055D02*
X136038802Y-63834055D01*
X136558802Y-61929055D02*
X136558802Y-63536055D01*
X136958802Y-55332055D02*
X136958802Y-63246055D01*
X135158802Y-54404055D02*
X135158802Y-58249055D01*
X134117802Y-54221055D02*
X134117802Y-58249055D01*
X134918802Y-61929055D02*
X134918802Y-64236055D01*
X134037802Y-60329055D02*
X134037802Y-64362055D01*
X137878802Y-56289055D02*
X137878802Y-62289055D01*
X135038802Y-54371055D02*
X135038802Y-58249055D01*
X135878802Y-61929055D02*
X135878802Y-63910055D01*
X134998802Y-61929055D02*
X134998802Y-64217055D01*
X134157802Y-54224055D02*
X134157802Y-58249055D01*
X136078802Y-61929055D02*
X136078802Y-63814055D01*
X138598802Y-57659055D02*
X138598802Y-60919055D01*
X135998802Y-61929055D02*
X135998802Y-63853055D01*
X134157802Y-60329055D02*
X134157802Y-64354055D01*
X134077802Y-54219055D02*
X134077802Y-58249055D01*
X135518802Y-54521055D02*
X135518802Y-58249055D01*
X137158802Y-55500055D02*
X137158802Y-63078055D01*
X137318802Y-55649055D02*
X137318802Y-62929055D01*
X135238802Y-61929055D02*
X135238802Y-64151055D01*
X135638802Y-54566055D02*
X135638802Y-58249055D01*
X135598802Y-54551055D02*
X135598802Y-58249055D01*
X136238802Y-54849055D02*
X136238802Y-59849055D01*
X134958802Y-61929055D02*
X134958802Y-64227055D01*
X134958802Y-54351055D02*
X134958802Y-58249055D01*
X136118802Y-61929055D02*
X136118802Y-63793055D01*
X135718802Y-61929055D02*
X135718802Y-63979055D01*
X135358802Y-61929055D02*
X135358802Y-64113055D01*
X136118802Y-54785055D02*
X136118802Y-59849055D01*
X136398802Y-61929055D02*
X136398802Y-63636055D01*
X128278156Y-56414055D02*
X129278156Y-56414055D01*
X135118802Y-54392055D02*
X135118802Y-58249055D01*
X135958802Y-61929055D02*
X135958802Y-63873055D01*
X135438802Y-54492055D02*
X135438802Y-58249055D01*
X138358802Y-57080055D02*
X138358802Y-61498055D01*
X134678802Y-54292055D02*
X134678802Y-58249055D01*
X138398802Y-57164055D02*
X138398802Y-61414055D01*
X134037802Y-54216055D02*
X134037802Y-58249055D01*
X134798802Y-61929055D02*
X134798802Y-64263055D01*
X136558802Y-55042055D02*
X136558802Y-59849055D01*
X135678802Y-61929055D02*
X135678802Y-63996055D01*
X137918802Y-56344055D02*
X137918802Y-62234055D01*
X136318802Y-54894055D02*
X136318802Y-59849055D01*
X136678802Y-61929055D02*
X136678802Y-63455055D01*
X136278802Y-61929055D02*
X136278802Y-63706055D01*
X135118802Y-61929055D02*
X135118802Y-64186055D01*
X134397802Y-60329055D02*
X134397802Y-64329055D01*
X137198802Y-55536055D02*
X137198802Y-63042055D01*
X135918802Y-61929055D02*
X135918802Y-63892055D01*
X135558802Y-54535055D02*
X135558802Y-58249055D01*
X133997802Y-60329055D02*
X133997802Y-64364055D01*
X138238802Y-56850055D02*
X138238802Y-61728055D01*
X134918802Y-54342055D02*
X134918802Y-58249055D01*
X138158802Y-56710055D02*
X138158802Y-61868055D01*
X136678802Y-55123055D02*
X136678802Y-59849055D01*
X138078802Y-56580055D02*
X138078802Y-61998055D01*
X133957802Y-54212055D02*
X133957802Y-64366055D01*
X135238802Y-54427055D02*
X135238802Y-58249055D01*
X136838802Y-55239055D02*
X136838802Y-63339055D01*
X135838802Y-61929055D02*
X135838802Y-63928055D01*
X137838802Y-56235055D02*
X137838802Y-62343055D01*
X135198802Y-54415055D02*
X135198802Y-58249055D01*
X135318802Y-61929055D02*
X135318802Y-64126055D01*
X134838802Y-54324055D02*
X134838802Y-58249055D01*
X136198802Y-54827055D02*
X136198802Y-59849055D01*
X136278802Y-54872055D02*
X136278802Y-59849055D01*
X138038802Y-56519055D02*
X138038802Y-62059055D01*
X135318802Y-54452055D02*
X135318802Y-58249055D01*
X134197802Y-60329055D02*
X134197802Y-64351055D01*
X136598802Y-61929055D02*
X136598802Y-63510055D01*
X134878802Y-54333055D02*
X134878802Y-58249055D01*
X135078802Y-61929055D02*
X135078802Y-64196055D01*
X138638802Y-57779055D02*
X138638802Y-60799055D01*
X136398802Y-54942055D02*
X136398802Y-59849055D01*
X138718802Y-58059055D02*
X138718802Y-60519055D01*
X138838802Y-58690055D02*
X138838802Y-59888055D01*
X134718802Y-61929055D02*
X134718802Y-64279055D01*
X135878802Y-54668055D02*
X135878802Y-58249055D01*
X136198802Y-61929055D02*
X136198802Y-63751055D01*
X136918802Y-55300055D02*
X136918802Y-63278055D01*
X135438802Y-61929055D02*
X135438802Y-64086055D01*
X136438802Y-54966055D02*
X136438802Y-59849055D01*
X135278802Y-61929055D02*
X135278802Y-64139055D01*
X135958802Y-54705055D02*
X135958802Y-58249055D01*
X133797802Y-54209055D02*
X133797802Y-64369055D01*
X138558802Y-57547055D02*
X138558802Y-61031055D01*
X138678802Y-57911055D02*
X138678802Y-60667055D01*
X134077802Y-60329055D02*
X134077802Y-64359055D01*
X135638802Y-61929055D02*
X135638802Y-64012055D01*
X135758802Y-61929055D02*
X135758802Y-63963055D01*
X137038802Y-55397055D02*
X137038802Y-63181055D01*
X135478802Y-54506055D02*
X135478802Y-58249055D01*
X137358802Y-55688055D02*
X137358802Y-62890055D01*
X138198802Y-56779055D02*
X138198802Y-61799055D01*
X136798802Y-55209055D02*
X136798802Y-63369055D01*
X134558802Y-60329055D02*
X134558802Y-64307055D01*
X137998802Y-56459055D02*
X137998802Y-62119055D01*
X134437802Y-60329055D02*
X134437802Y-64324055D01*
X134518802Y-60329055D02*
X134518802Y-64313055D01*
X135678802Y-54582055D02*
X135678802Y-58249055D01*
X137478802Y-55811055D02*
X137478802Y-62767055D01*
X136038802Y-54744055D02*
X136038802Y-58249055D01*
X136878802Y-55269055D02*
X136878802Y-63309055D01*
X138318802Y-57000055D02*
X138318802Y-61578055D01*
X137718802Y-56083055D02*
X137718802Y-62495055D01*
X134798802Y-54315055D02*
X134798802Y-58249055D01*
X135518802Y-61929055D02*
X135518802Y-64057055D01*
X137398802Y-55728055D02*
X137398802Y-62850055D01*
X133757802Y-54209055D02*
X133757802Y-64369055D01*
X137118802Y-55465055D02*
X137118802Y-63113055D01*
X134237802Y-54231055D02*
X134237802Y-58249055D01*
X136638802Y-55095055D02*
X136638802Y-59849055D01*
X134237802Y-60329055D02*
X134237802Y-64347055D01*
X134518802Y-54265055D02*
X134518802Y-58249055D01*
X134638802Y-60329055D02*
X134638802Y-64293055D01*
X134317802Y-60329055D02*
X134317802Y-64339055D01*
X135198802Y-61929055D02*
X135198802Y-64163055D01*
X138798802Y-58427055D02*
X138798802Y-60151055D01*
X134277802Y-60329055D02*
X134277802Y-64343055D01*
X136718802Y-61929055D02*
X136718802Y-63427055D01*
X136438802Y-61929055D02*
X136438802Y-63612055D01*
X138438802Y-57252055D02*
X138438802Y-61326055D01*
X134638802Y-54285055D02*
X134638802Y-58249055D01*
X134998802Y-54361055D02*
X134998802Y-58249055D01*
X137438802Y-55769055D02*
X137438802Y-62809055D01*
X136518802Y-55016055D02*
X136518802Y-59849055D01*
X135758802Y-54615055D02*
X135758802Y-58249055D01*
X134758802Y-54307055D02*
X134758802Y-58249055D01*
X134718802Y-54299055D02*
X134718802Y-58249055D01*
X134878802Y-61929055D02*
X134878802Y-64245055D01*
X134478802Y-54259055D02*
X134478802Y-58249055D01*
X137558802Y-55897055D02*
X137558802Y-62681055D01*
X135038802Y-61929055D02*
X135038802Y-64207055D01*
X134357802Y-60329055D02*
X134357802Y-64334055D01*
X133917802Y-54211055D02*
X133917802Y-64367055D01*
X136758802Y-55179055D02*
X136758802Y-63399055D01*
X133837802Y-54209055D02*
X133837802Y-64369055D01*
X134397802Y-54249055D02*
X134397802Y-58249055D01*
X134598802Y-54278055D02*
X134598802Y-58249055D01*
X135278802Y-54439055D02*
X135278802Y-58249055D01*
X138518802Y-57443055D02*
X138518802Y-61135055D01*
X137758802Y-56133055D02*
X137758802Y-62445055D01*
X137238802Y-55573055D02*
X137238802Y-63005055D01*
X138278802Y-56924055D02*
X138278802Y-61654055D01*
X138877802Y-59289055D02*
G75*
G03*
X138877802Y-59289055I-5120000J0D01*
G01*
%TO.C,C1*%
X123221618Y-65685620D02*
X121799114Y-65685620D01*
X123221618Y-68405620D02*
X121799114Y-68405620D01*
%TO.C,LED2*%
X134474467Y-45828121D02*
X134474467Y-53448121D01*
X134474467Y-47098121D02*
X119234467Y-47098121D01*
X134474467Y-53448121D02*
X119234467Y-53448121D01*
X119234467Y-45828121D02*
X119234467Y-53448121D01*
X134474467Y-45828121D02*
X119234467Y-45828121D01*
%TO.C,J5*%
X134637135Y-78395794D02*
X134637135Y-84395794D01*
X133287135Y-78495794D02*
X133287135Y-79505794D01*
X124337135Y-84345794D02*
X124337135Y-78395794D01*
X124337135Y-78395794D02*
X134637135Y-78395794D01*
X128207135Y-79505794D02*
X128207135Y-78495794D01*
X133287135Y-79505794D02*
X128207135Y-79505794D01*
X134637135Y-84395794D02*
X128887135Y-84395794D01*
X127537135Y-84345794D02*
X124337135Y-84345794D01*
%TO.C,R3*%
X140610368Y-72375043D02*
X139156240Y-72375043D01*
X140610368Y-70555043D02*
X139156240Y-70555043D01*
%TO.C,R1*%
X143167000Y-64156393D02*
X143167000Y-65610521D01*
X144987000Y-64156393D02*
X144987000Y-65610521D01*
%TO.C,DMX_IN1*%
X147619094Y-62613932D02*
X146609094Y-62613932D01*
X146509094Y-63983932D02*
X146509094Y-56183932D01*
X146609094Y-57533932D02*
X147619094Y-57533932D01*
X152559094Y-63983932D02*
X146509094Y-63983932D01*
X146509094Y-56183932D02*
X152559094Y-56183932D01*
X147619094Y-57533932D02*
X147619094Y-62613932D01*
X152559094Y-56183932D02*
X152559094Y-63983932D01*
%TO.C,D2*%
X139512074Y-76458957D02*
X140162074Y-76458957D01*
X139512074Y-76458957D02*
X138862074Y-76458957D01*
X139512074Y-73338957D02*
X140162074Y-73338957D01*
X139512074Y-73338957D02*
X137837074Y-73338957D01*
%TO.C,MAX_Out1*%
X132068964Y-71479957D02*
X134803964Y-71479957D01*
X134803964Y-71479957D02*
X134803964Y-71744957D01*
X132068964Y-76939957D02*
X129333964Y-76939957D01*
X132068964Y-76939957D02*
X134803964Y-76939957D01*
X129333964Y-76939957D02*
X129333964Y-76674957D01*
X129333964Y-71479957D02*
X129333964Y-71744957D01*
X132068964Y-71479957D02*
X129333964Y-71479957D01*
X129333964Y-71744957D02*
X127593964Y-71744957D01*
X134803964Y-76939957D02*
X134803964Y-76674957D01*
%TO.C,DMX_thru1*%
X147681638Y-72558526D02*
X146671638Y-72558526D01*
X146571638Y-73928526D02*
X146571638Y-66128526D01*
X147681638Y-67478526D02*
X147681638Y-72558526D01*
X152621638Y-73928526D02*
X146571638Y-73928526D01*
X152621638Y-66128526D02*
X152621638Y-73928526D01*
X146571638Y-66128526D02*
X152621638Y-66128526D01*
X146671638Y-67478526D02*
X147681638Y-67478526D01*
%TO.C,R2*%
X144929182Y-69068774D02*
X144929182Y-70522902D01*
X143109182Y-69068774D02*
X143109182Y-70522902D01*
%TO.C,MAX_In1*%
X134883248Y-65361786D02*
X134883248Y-65626786D01*
X129413248Y-65361786D02*
X129413248Y-65626786D01*
X132148248Y-70821786D02*
X129413248Y-70821786D01*
X129413248Y-65626786D02*
X127673248Y-65626786D01*
X134883248Y-70821786D02*
X134883248Y-70556786D01*
X132148248Y-70821786D02*
X134883248Y-70821786D01*
X129413248Y-70821786D02*
X129413248Y-70556786D01*
X132148248Y-65361786D02*
X134883248Y-65361786D01*
X132148248Y-65361786D02*
X129413248Y-65361786D01*
%TO.C,J4*%
X107346973Y-81345000D02*
X107346973Y-78745000D01*
X104746973Y-81345000D02*
X104746973Y-80015000D01*
X107346973Y-81345000D02*
X117566973Y-81345000D01*
X104746973Y-76145000D02*
X117566973Y-76145000D01*
X106076973Y-81345000D02*
X104746973Y-81345000D01*
X104746973Y-78745000D02*
X104746973Y-76145000D01*
X107346973Y-78745000D02*
X104746973Y-78745000D01*
X117566973Y-81345000D02*
X117566973Y-76145000D01*
%TO.C,JTAG1*%
X107538078Y-52525320D02*
X117758078Y-52525320D01*
X117758078Y-52525320D02*
X117758078Y-47325320D01*
X104938078Y-49925320D02*
X104938078Y-47325320D01*
X104938078Y-52525320D02*
X104938078Y-51195320D01*
X107538078Y-49925320D02*
X104938078Y-49925320D01*
X107538078Y-52525320D02*
X107538078Y-49925320D01*
X106268078Y-52525320D02*
X104938078Y-52525320D01*
X104938078Y-47325320D02*
X117758078Y-47325320D01*
%TO.C,LED1*%
X130744467Y-54555957D02*
X122944467Y-54555957D01*
X130744467Y-48505957D02*
X130744467Y-54555957D01*
X124314467Y-49615957D02*
X124314467Y-48605957D01*
X122944467Y-48505957D02*
X130744467Y-48505957D01*
X129394467Y-48605957D02*
X129394467Y-49615957D01*
X122944467Y-54555957D02*
X122944467Y-48505957D01*
X129394467Y-49615957D02*
X124314467Y-49615957D01*
%TO.C,R4*%
X144791927Y-75549482D02*
X144791927Y-74095354D01*
X142971927Y-75549482D02*
X142971927Y-74095354D01*
%TO.C,C2*%
X120652788Y-58723951D02*
X120652788Y-54739951D01*
X120492788Y-64760951D02*
X120492788Y-60803951D01*
X119492788Y-57123951D02*
X119492788Y-55056951D01*
X119492788Y-64470951D02*
X119492788Y-60803951D01*
X118812788Y-57123951D02*
X118812788Y-55392951D01*
X120492788Y-57123951D02*
X120492788Y-54766951D01*
X119372788Y-64420951D02*
X119372788Y-60803951D01*
X120893788Y-58723951D02*
X120893788Y-54709951D01*
X119572788Y-57123951D02*
X119572788Y-55025951D01*
X119292788Y-57123951D02*
X119292788Y-55142951D01*
X118372788Y-63843951D02*
X118372788Y-55683951D01*
X126393434Y-63138951D02*
X126393434Y-62138951D01*
X120813788Y-58723951D02*
X120813788Y-54718951D01*
X121173788Y-58723951D02*
X121173788Y-54688951D01*
X121213788Y-64840951D02*
X121213788Y-54686951D01*
X120012788Y-57123951D02*
X120012788Y-54878951D01*
X120052788Y-64660951D02*
X120052788Y-60803951D01*
X121093788Y-58723951D02*
X121093788Y-54693951D01*
X121013788Y-58723951D02*
X121013788Y-54698951D01*
X118612788Y-57123951D02*
X118612788Y-55516951D01*
X118412788Y-63873951D02*
X118412788Y-55653951D01*
X120412788Y-57123951D02*
X120412788Y-54781951D01*
X118612788Y-64010951D02*
X118612788Y-59203951D01*
X119212788Y-64347951D02*
X119212788Y-60803951D01*
X119412788Y-64437951D02*
X119412788Y-60803951D01*
X120132788Y-64681951D02*
X120132788Y-60803951D01*
X116972788Y-62273951D02*
X116972788Y-57253951D01*
X118972788Y-57123951D02*
X118972788Y-55301951D01*
X120212788Y-64701951D02*
X120212788Y-60803951D01*
X118532788Y-63957951D02*
X118532788Y-59203951D01*
X120052788Y-57123951D02*
X120052788Y-54866951D01*
X118572788Y-63984951D02*
X118572788Y-59203951D01*
X117692788Y-63241951D02*
X117692788Y-56285951D01*
X119852788Y-64600951D02*
X119852788Y-60803951D01*
X120532788Y-64767951D02*
X120532788Y-60803951D01*
X119732788Y-57123951D02*
X119732788Y-54966951D01*
X120773788Y-58723951D02*
X120773788Y-54723951D01*
X120172788Y-64691951D02*
X120172788Y-60803951D01*
X117412788Y-62919951D02*
X117412788Y-56607951D01*
X120092788Y-57123951D02*
X120092788Y-54856951D01*
X118932788Y-64203951D02*
X118932788Y-59203951D01*
X117332788Y-62817951D02*
X117332788Y-56709951D01*
X120292788Y-57123951D02*
X120292788Y-54807951D01*
X119332788Y-64402951D02*
X119332788Y-60803951D01*
X119652788Y-64531951D02*
X119652788Y-60803951D01*
X121013788Y-64828951D02*
X121013788Y-60803951D01*
X119092788Y-64288951D02*
X119092788Y-59203951D01*
X119732788Y-64560951D02*
X119732788Y-60803951D01*
X120452788Y-57123951D02*
X120452788Y-54773951D01*
X120132788Y-57123951D02*
X120132788Y-54845951D01*
X120933788Y-64821951D02*
X120933788Y-60803951D01*
X118332788Y-63813951D02*
X118332788Y-55713951D01*
X120172788Y-57123951D02*
X120172788Y-54835951D01*
X119292788Y-64384951D02*
X119292788Y-60803951D01*
X120372788Y-64737951D02*
X120372788Y-60803951D01*
X119012788Y-57123951D02*
X119012788Y-55280951D01*
X117972788Y-63516951D02*
X117972788Y-56010951D01*
X116852788Y-62052951D02*
X116852788Y-57474951D01*
X118452788Y-63901951D02*
X118452788Y-59203951D01*
X117132788Y-62533951D02*
X117132788Y-56993951D01*
X118892788Y-64180951D02*
X118892788Y-59203951D01*
X120612788Y-58723951D02*
X120612788Y-54745951D01*
X117732788Y-63283951D02*
X117732788Y-56243951D01*
X119972788Y-57123951D02*
X119972788Y-54889951D01*
X119172788Y-57123951D02*
X119172788Y-55199951D01*
X120652788Y-64787951D02*
X120652788Y-60803951D01*
X119692788Y-57123951D02*
X119692788Y-54980951D01*
X121053788Y-64831951D02*
X121053788Y-60803951D01*
X119252788Y-64366951D02*
X119252788Y-60803951D01*
X116732788Y-61800951D02*
X116732788Y-57726951D01*
X119172788Y-64327951D02*
X119172788Y-60803951D01*
X116812788Y-61972951D02*
X116812788Y-57554951D01*
X119772788Y-64574951D02*
X119772788Y-60803951D01*
X119892788Y-64613951D02*
X119892788Y-60803951D01*
X120853788Y-64813951D02*
X120853788Y-60803951D01*
X119212788Y-57123951D02*
X119212788Y-55179951D01*
X116772788Y-61888951D02*
X116772788Y-57638951D01*
X118212788Y-63720951D02*
X118212788Y-55806951D01*
X118772788Y-64110951D02*
X118772788Y-59203951D01*
X119852788Y-57123951D02*
X119852788Y-54926951D01*
X126893434Y-62638951D02*
X125893434Y-62638951D01*
X118692788Y-64061951D02*
X118692788Y-59203951D01*
X118052788Y-63587951D02*
X118052788Y-55939951D01*
X120212788Y-57123951D02*
X120212788Y-54825951D01*
X116652788Y-61609951D02*
X116652788Y-57917951D01*
X118692788Y-57123951D02*
X118692788Y-55465951D01*
X120012788Y-64648951D02*
X120012788Y-60803951D01*
X119612788Y-64517951D02*
X119612788Y-60803951D01*
X119132788Y-57123951D02*
X119132788Y-55218951D01*
X117372788Y-62869951D02*
X117372788Y-56657951D01*
X116492788Y-61141951D02*
X116492788Y-58385951D01*
X118652788Y-64036951D02*
X118652788Y-59203951D01*
X118012788Y-63552951D02*
X118012788Y-55974951D01*
X117292788Y-62763951D02*
X117292788Y-56763951D01*
X117092788Y-62472951D02*
X117092788Y-57054951D01*
X120452788Y-64753951D02*
X120452788Y-60803951D01*
X118092788Y-63621951D02*
X118092788Y-55905951D01*
X119972788Y-64637951D02*
X119972788Y-60803951D01*
X121253788Y-64841951D02*
X121253788Y-54685951D01*
X119052788Y-64267951D02*
X119052788Y-59203951D01*
X121413788Y-64843951D02*
X121413788Y-54683951D01*
X118852788Y-57123951D02*
X118852788Y-55368951D01*
X119372788Y-57123951D02*
X119372788Y-55106951D01*
X116612788Y-61505951D02*
X116612788Y-58021951D01*
X119932788Y-57123951D02*
X119932788Y-54901951D01*
X119612788Y-57123951D02*
X119612788Y-55009951D01*
X119692788Y-64546951D02*
X119692788Y-60803951D01*
X119452788Y-64453951D02*
X119452788Y-60803951D01*
X118732788Y-64086951D02*
X118732788Y-59203951D01*
X120252788Y-57123951D02*
X120252788Y-54816951D01*
X118172788Y-63688951D02*
X118172788Y-55838951D01*
X120813788Y-64808951D02*
X120813788Y-60803951D01*
X119012788Y-64246951D02*
X119012788Y-59203951D01*
X118452788Y-57123951D02*
X118452788Y-55625951D01*
X120853788Y-58723951D02*
X120853788Y-54713951D01*
X117452788Y-62969951D02*
X117452788Y-56557951D01*
X119532788Y-64486951D02*
X119532788Y-60803951D01*
X116372788Y-60625951D02*
X116372788Y-58901951D01*
X116572788Y-61393951D02*
X116572788Y-58133951D01*
X118972788Y-64225951D02*
X118972788Y-59203951D01*
X121133788Y-58723951D02*
X121133788Y-54690951D01*
X119132788Y-64308951D02*
X119132788Y-60803951D01*
X120692788Y-64793951D02*
X120692788Y-60803951D01*
X116692788Y-61707951D02*
X116692788Y-57819951D01*
X119052788Y-57123951D02*
X119052788Y-55259951D01*
X121373788Y-64843951D02*
X121373788Y-54683951D01*
X116892788Y-62128951D02*
X116892788Y-57398951D01*
X119572788Y-64501951D02*
X119572788Y-60803951D01*
X118732788Y-57123951D02*
X118732788Y-55440951D01*
X116412788Y-60825951D02*
X116412788Y-58701951D01*
X120572788Y-64774951D02*
X120572788Y-60803951D01*
X117052788Y-62408951D02*
X117052788Y-57118951D01*
X119812788Y-64587951D02*
X119812788Y-60803951D01*
X116452788Y-60993951D02*
X116452788Y-58533951D01*
X121293788Y-64842951D02*
X121293788Y-54684951D01*
X117772788Y-63324951D02*
X117772788Y-56202951D01*
X118812788Y-64134951D02*
X118812788Y-59203951D01*
X120733788Y-58723951D02*
X120733788Y-54728951D01*
X117652788Y-63199951D02*
X117652788Y-56327951D01*
X118132788Y-63655951D02*
X118132788Y-55871951D01*
X118652788Y-57123951D02*
X118652788Y-55490951D01*
X118292788Y-63783951D02*
X118292788Y-55743951D01*
X118892788Y-57123951D02*
X118892788Y-55346951D01*
X117532788Y-63064951D02*
X117532788Y-56462951D01*
X119452788Y-57123951D02*
X119452788Y-55073951D01*
X120332788Y-64728951D02*
X120332788Y-60803951D01*
X118772788Y-57123951D02*
X118772788Y-55416951D01*
X117252788Y-62708951D02*
X117252788Y-56818951D01*
X121093788Y-64833951D02*
X121093788Y-60803951D01*
X119892788Y-57123951D02*
X119892788Y-54913951D01*
X120412788Y-64745951D02*
X120412788Y-60803951D01*
X120292788Y-64719951D02*
X120292788Y-60803951D01*
X120252788Y-64710951D02*
X120252788Y-60803951D01*
X119772788Y-57123951D02*
X119772788Y-54952951D01*
X120973788Y-58723951D02*
X120973788Y-54701951D01*
X120532788Y-58723951D02*
X120532788Y-54759951D01*
X116332788Y-60362951D02*
X116332788Y-59164951D01*
X120733788Y-64798951D02*
X120733788Y-60803951D01*
X119092788Y-57123951D02*
X119092788Y-55238951D01*
X117892788Y-63442951D02*
X117892788Y-56084951D01*
X118492788Y-57123951D02*
X118492788Y-55597951D01*
X118852788Y-64158951D02*
X118852788Y-59203951D01*
X120372788Y-57123951D02*
X120372788Y-54789951D01*
X118532788Y-57123951D02*
X118532788Y-55569951D01*
X120973788Y-64825951D02*
X120973788Y-60803951D01*
X120572788Y-58723951D02*
X120572788Y-54752951D01*
X119252788Y-57123951D02*
X119252788Y-55160951D01*
X117572788Y-63110951D02*
X117572788Y-56416951D01*
X117812788Y-63364951D02*
X117812788Y-56162951D01*
X119652788Y-57123951D02*
X119652788Y-54995951D01*
X119412788Y-57123951D02*
X119412788Y-55089951D01*
X119812788Y-57123951D02*
X119812788Y-54939951D01*
X120612788Y-64781951D02*
X120612788Y-60803951D01*
X118252788Y-63752951D02*
X118252788Y-55774951D01*
X117612788Y-63155951D02*
X117612788Y-56371951D01*
X118572788Y-57123951D02*
X118572788Y-55542951D01*
X117852788Y-63403951D02*
X117852788Y-56123951D01*
X120332788Y-57123951D02*
X120332788Y-54798951D01*
X121053788Y-58723951D02*
X121053788Y-54695951D01*
X119532788Y-57123951D02*
X119532788Y-55040951D01*
X119332788Y-57123951D02*
X119332788Y-55124951D01*
X120092788Y-64670951D02*
X120092788Y-60803951D01*
X117172788Y-62593951D02*
X117172788Y-56933951D01*
X117012788Y-62342951D02*
X117012788Y-57184951D01*
X118492788Y-63929951D02*
X118492788Y-59203951D01*
X118932788Y-57123951D02*
X118932788Y-55323951D01*
X121333788Y-64843951D02*
X121333788Y-54683951D01*
X117212788Y-62652951D02*
X117212788Y-56874951D01*
X121173788Y-64838951D02*
X121173788Y-60803951D01*
X120893788Y-64817951D02*
X120893788Y-60803951D01*
X117932788Y-63479951D02*
X117932788Y-56047951D01*
X121133788Y-64836951D02*
X121133788Y-60803951D01*
X116532788Y-61273951D02*
X116532788Y-58253951D01*
X120933788Y-58723951D02*
X120933788Y-54705951D01*
X120692788Y-58723951D02*
X120692788Y-54733951D01*
X120773788Y-64803951D02*
X120773788Y-60803951D01*
X119932788Y-64625951D02*
X119932788Y-60803951D01*
X117492788Y-63017951D02*
X117492788Y-56509951D01*
X116932788Y-62202951D02*
X116932788Y-57324951D01*
X126533788Y-59763951D02*
G75*
G03*
X126533788Y-59763951I-5120000J0D01*
G01*
%TO.C,D1*%
X139995942Y-65919078D02*
X138320942Y-65919078D01*
X139995942Y-69039078D02*
X139345942Y-69039078D01*
X139995942Y-65919078D02*
X140645942Y-65919078D01*
X139995942Y-69039078D02*
X140645942Y-69039078D01*
%TD*%
M02*
