%TF.GenerationSoftware,KiCad,Pcbnew,(6.0.10)*%
%TF.CreationDate,2023-02-11T22:55:32+01:00*%
%TF.ProjectId,schematics,73636865-6d61-4746-9963-732e6b696361,rev?*%
%TF.SameCoordinates,Original*%
%TF.FileFunction,Copper,L2,Bot*%
%TF.FilePolarity,Positive*%
%FSLAX46Y46*%
G04 Gerber Fmt 4.6, Leading zero omitted, Abs format (unit mm)*
G04 Created by KiCad (PCBNEW (6.0.10)) date 2023-02-11 22:55:32*
%MOMM*%
%LPD*%
G01*
G04 APERTURE LIST*
G04 Aperture macros list*
%AMRoundRect*
0 Rectangle with rounded corners*
0 $1 Rounding radius*
0 $2 $3 $4 $5 $6 $7 $8 $9 X,Y pos of 4 corners*
0 Add a 4 corners polygon primitive as box body*
4,1,4,$2,$3,$4,$5,$6,$7,$8,$9,$2,$3,0*
0 Add four circle primitives for the rounded corners*
1,1,$1+$1,$2,$3*
1,1,$1+$1,$4,$5*
1,1,$1+$1,$6,$7*
1,1,$1+$1,$8,$9*
0 Add four rect primitives between the rounded corners*
20,1,$1+$1,$2,$3,$4,$5,0*
20,1,$1+$1,$4,$5,$6,$7,0*
20,1,$1+$1,$6,$7,$8,$9,0*
20,1,$1+$1,$8,$9,$2,$3,0*%
G04 Aperture macros list end*
%TA.AperFunction,ComponentPad*%
%ADD10R,1.730000X2.030000*%
%TD*%
%TA.AperFunction,ComponentPad*%
%ADD11O,1.730000X2.030000*%
%TD*%
%TA.AperFunction,HeatsinkPad*%
%ADD12C,0.475000*%
%TD*%
%TA.AperFunction,ComponentPad*%
%ADD13RoundRect,0.250000X0.620000X0.620000X-0.620000X0.620000X-0.620000X-0.620000X0.620000X-0.620000X0*%
%TD*%
%TA.AperFunction,ComponentPad*%
%ADD14C,1.740000*%
%TD*%
%TA.AperFunction,ComponentPad*%
%ADD15R,3.000000X3.000000*%
%TD*%
%TA.AperFunction,ComponentPad*%
%ADD16C,3.000000*%
%TD*%
%TA.AperFunction,ComponentPad*%
%ADD17R,1.600000X1.600000*%
%TD*%
%TA.AperFunction,ComponentPad*%
%ADD18C,1.600000*%
%TD*%
%TA.AperFunction,ComponentPad*%
%ADD19R,2.030000X1.730000*%
%TD*%
%TA.AperFunction,ComponentPad*%
%ADD20O,2.030000X1.730000*%
%TD*%
%TA.AperFunction,ComponentPad*%
%ADD21R,1.700000X1.700000*%
%TD*%
%TA.AperFunction,ComponentPad*%
%ADD22O,1.700000X1.700000*%
%TD*%
%TA.AperFunction,ViaPad*%
%ADD23C,0.800000*%
%TD*%
%TA.AperFunction,Conductor*%
%ADD24C,0.250000*%
%TD*%
G04 APERTURE END LIST*
D10*
%TO.P,DMX_Out1,1,Pin_1*%
%TO.N,GND*%
X143530502Y-81365400D03*
D11*
%TO.P,DMX_Out1,2,Pin_2*%
%TO.N,Net-(D2-Pad1)*%
X140990502Y-81365400D03*
%TO.P,DMX_Out1,3,Pin_3*%
%TO.N,Net-(D2-Pad2)*%
X138450502Y-81365400D03*
%TD*%
D12*
%TO.P,ESP32-WROOM-32,39,GND*%
%TO.N,GND*%
X106006107Y-64369555D03*
X103718607Y-63607055D03*
X104481107Y-65894555D03*
X103718607Y-65132055D03*
X104481107Y-64369555D03*
X103718607Y-66657055D03*
X106006107Y-65894555D03*
X105243607Y-63607055D03*
X102956107Y-64369555D03*
X102956107Y-65894555D03*
X105243607Y-66657055D03*
X105243607Y-65132055D03*
%TD*%
D13*
%TO.P,J3,1,Pin_1*%
%TO.N,GND*%
X141689390Y-52158608D03*
D14*
%TO.P,J3,2,Pin_2*%
%TO.N,+5V*%
X139149390Y-52158608D03*
%TD*%
D15*
%TO.P,Power1,1,Pin_1*%
%TO.N,GND*%
X143145042Y-49708261D03*
D16*
%TO.P,Power1,2,Pin_2*%
%TO.N,+5V*%
X138065042Y-49708261D03*
%TD*%
D17*
%TO.P,C3,1*%
%TO.N,GND*%
X131836865Y-57689055D03*
X132507802Y-59289055D03*
D18*
%TO.P,C3,2*%
%TO.N,+5V*%
X135007802Y-59289055D03*
X135678739Y-60889055D03*
%TD*%
D15*
%TO.P,LED2,1,Pin_1*%
%TO.N,GND*%
X131934467Y-49638121D03*
D16*
%TO.P,LED2,2,Pin_2*%
%TO.N,LED_Pin_1*%
X126854467Y-49638121D03*
%TO.P,LED2,3,Pin_3*%
%TO.N,+5V*%
X121774467Y-49638121D03*
%TD*%
D10*
%TO.P,J5,1,Pin_1*%
%TO.N,GND*%
X133287135Y-81795794D03*
D11*
%TO.P,J5,2,Pin_2*%
%TO.N,Net-(ESP32-WROOM-32-Pad34)*%
X130747135Y-81795794D03*
%TO.P,J5,3,Pin_3*%
%TO.N,Net-(ESP32-WROOM-32-Pad35)*%
X128207135Y-81795794D03*
%TO.P,J5,4,Pin_4*%
%TO.N,+3V3*%
X125667135Y-81795794D03*
%TD*%
D19*
%TO.P,DMX_IN1,1,Pin_1*%
%TO.N,GND*%
X149909094Y-57533932D03*
D20*
%TO.P,DMX_IN1,2,Pin_2*%
%TO.N,Net-(D1-Pad1)*%
X149909094Y-60073932D03*
%TO.P,DMX_IN1,3,Pin_3*%
%TO.N,Net-(D1-Pad2)*%
X149909094Y-62613932D03*
%TD*%
D19*
%TO.P,DMX_thru1,1,Pin_1*%
%TO.N,GND*%
X149971638Y-67478526D03*
D20*
%TO.P,DMX_thru1,2,Pin_2*%
%TO.N,Net-(D1-Pad1)*%
X149971638Y-70018526D03*
%TO.P,DMX_thru1,3,Pin_3*%
%TO.N,Net-(D1-Pad2)*%
X149971638Y-72558526D03*
%TD*%
D21*
%TO.P,J4,1,Pin_1*%
%TO.N,GND*%
X106076973Y-80015000D03*
D22*
%TO.P,J4,2,Pin_2*%
%TO.N,Net-(ESP32-WROOM-32-Pad31)*%
X106076973Y-77475000D03*
%TO.P,J4,3,Pin_3*%
%TO.N,Net-(ESP32-WROOM-32-Pad30)*%
X108616973Y-80015000D03*
%TO.P,J4,4,Pin_4*%
%TO.N,Net-(ESP32-WROOM-32-Pad6)*%
X108616973Y-77475000D03*
%TO.P,J4,5,Pin_5*%
%TO.N,Net-(ESP32-WROOM-32-Pad7)*%
X111156973Y-80015000D03*
%TO.P,J4,6,Pin_6*%
%TO.N,Net-(ESP32-WROOM-32-Pad10)*%
X111156973Y-77475000D03*
%TO.P,J4,7,Pin_7*%
%TO.N,Net-(ESP32-WROOM-32-Pad11)*%
X113696973Y-80015000D03*
%TO.P,J4,8,Pin_8*%
%TO.N,Net-(ESP32-WROOM-32-Pad12)*%
X113696973Y-77475000D03*
%TO.P,J4,9,Pin_9*%
%TO.N,Net-(ESP32-WROOM-32-Pad36)*%
X116236973Y-80015000D03*
%TO.P,J4,10,Pin_10*%
%TO.N,+3V3*%
X116236973Y-77475000D03*
%TD*%
D21*
%TO.P,JTAG1,1,Pin_1*%
%TO.N,unconnected-(JTAG1-Pad1)*%
X106268078Y-51195320D03*
D22*
%TO.P,JTAG1,2,Pin_2*%
%TO.N,ESP_TMS*%
X106268078Y-48655320D03*
%TO.P,JTAG1,3,Pin_3*%
%TO.N,GND*%
X108808078Y-51195320D03*
%TO.P,JTAG1,4,Pin_4*%
%TO.N,ESP_TCK*%
X108808078Y-48655320D03*
%TO.P,JTAG1,5,Pin_5*%
%TO.N,GND*%
X111348078Y-51195320D03*
%TO.P,JTAG1,6,Pin_6*%
%TO.N,ESP_TDO*%
X111348078Y-48655320D03*
%TO.P,JTAG1,7,Pin_7*%
%TO.N,GND*%
X113888078Y-51195320D03*
%TO.P,JTAG1,8,Pin_8*%
%TO.N,ESP_TDI*%
X113888078Y-48655320D03*
%TO.P,JTAG1,9,Pin_9*%
%TO.N,GND*%
X116428078Y-51195320D03*
%TO.P,JTAG1,10,Pin_10*%
%TO.N,unconnected-(JTAG1-Pad10)*%
X116428078Y-48655320D03*
%TD*%
D10*
%TO.P,LED1,1,Pin_1*%
%TO.N,GND*%
X129394467Y-51905957D03*
D11*
%TO.P,LED1,2,Pin_2*%
%TO.N,LED_Pin_1*%
X126854467Y-51905957D03*
%TO.P,LED1,3,Pin_3*%
%TO.N,+5V*%
X124314467Y-51905957D03*
%TD*%
D17*
%TO.P,C2,1*%
%TO.N,GND*%
X123334725Y-61363951D03*
X122663788Y-59763951D03*
D18*
%TO.P,C2,2*%
%TO.N,+3V3*%
X120163788Y-59763951D03*
X119492851Y-58163951D03*
%TD*%
D23*
%TO.N,GND*%
X105447332Y-61964174D03*
X116621652Y-65319564D03*
X103104460Y-83332694D03*
X126406536Y-70304609D03*
X109666539Y-66883827D03*
X116544494Y-69322044D03*
X132520274Y-79184086D03*
X141326968Y-78565434D03*
X149860000Y-76200000D03*
X147320000Y-76200000D03*
X97669739Y-63250000D03*
X105263390Y-69921738D03*
X109372956Y-60596087D03*
X127247911Y-62406172D03*
X127878693Y-56219652D03*
X119508695Y-53211304D03*
X103705905Y-47119494D03*
X134918521Y-48187217D03*
X143193564Y-58870914D03*
X140027521Y-64329609D03*
X142419710Y-67463304D03*
X135865391Y-77785043D03*
X137412695Y-69571999D03*
X107843825Y-83026086D03*
X97917088Y-75414173D03*
%TO.N,Net-(ESP32-WROOM-32-Pad27)*%
X126675825Y-65620174D03*
%TO.N,Net-(ESP32-WROOM-32-Pad33)*%
X126124520Y-66969303D03*
%TO.N,Net-(ESP32-WROOM-32-Pad28)*%
X130661302Y-69322607D03*
%TO.N,Net-(ESP32-WROOM-32-Pad33)*%
X103491107Y-57042585D03*
%TO.N,RE{slash}DE_DMX_Out*%
X108571107Y-57771107D03*
%TO.N,Net-(ESP32-WROOM-32-Pad28)*%
X109841107Y-57798893D03*
%TO.N,Net-(ESP32-WROOM-32-Pad27)*%
X111473564Y-57934782D03*
%TO.N,RX_R0_DMX_Out*%
X109220000Y-71120000D03*
X126309128Y-73660000D03*
%TO.N,RE{slash}DE_DMX_Out*%
X130702433Y-73012346D03*
%TO.N,TX_DI_DMX_Out*%
X126311216Y-75317129D03*
X108329738Y-74889217D03*
%TO.N,LED_Pin_1*%
X98411107Y-53944837D03*
%TO.N,Net-(ESP32-WROOM-32-Pad34)*%
X102544850Y-58268185D03*
%TO.N,Net-(ESP32-WROOM-32-Pad35)*%
X100989580Y-58208367D03*
%TO.N,Net-(ESP32-WROOM-32-Pad36)*%
X99060000Y-71120000D03*
%TO.N,Net-(ESP32-WROOM-32-Pad30)*%
X101011236Y-68968597D03*
%TO.N,Net-(ESP32-WROOM-32-Pad31)*%
X101600000Y-71120000D03*
%TD*%
D24*
%TO.N,Net-(ESP32-WROOM-32-Pad35)*%
X101774398Y-58993185D02*
X100989580Y-58208367D01*
X107604738Y-62429008D02*
X104168915Y-58993185D01*
X107604738Y-75189522D02*
X107604738Y-62429008D01*
X104168915Y-58993185D02*
X101774398Y-58993185D01*
X108399563Y-75984347D02*
X107604738Y-75189522D01*
X109212811Y-75984347D02*
X108399563Y-75984347D01*
%TO.N,GND*%
X108808078Y-51195320D02*
X116428078Y-51195320D01*
%TO.N,LED_Pin_1*%
X126864467Y-48124467D02*
X126864467Y-50466391D01*
X120273856Y-47366144D02*
X126106144Y-47366144D01*
X119380000Y-48260000D02*
X120273856Y-47366144D01*
X126106144Y-47366144D02*
X126864467Y-48124467D01*
X119380000Y-50881066D02*
X119380000Y-48260000D01*
X98411107Y-53944837D02*
X116316229Y-53944837D01*
X116316229Y-53944837D02*
X119380000Y-50881066D01*
%TO.N,Net-(ESP32-WROOM-32-Pad36)*%
X114503626Y-81748347D02*
X116236973Y-80015000D01*
X103268442Y-77705793D02*
X103268442Y-79556469D01*
X103105793Y-77705793D02*
X103268442Y-77705793D01*
X105460320Y-81748347D02*
X114503626Y-81748347D01*
X99060000Y-71120000D02*
X101600000Y-73660000D01*
X101600000Y-73660000D02*
X101600000Y-76200000D01*
X101600000Y-76200000D02*
X103105793Y-77705793D01*
X103268442Y-79556469D02*
X105460320Y-81748347D01*
%TO.N,Net-(ESP32-WROOM-32-Pad35)*%
X122382694Y-75971353D02*
X109220000Y-75971353D01*
X128207135Y-81795794D02*
X122382694Y-75971353D01*
%TO.N,Net-(ESP32-WROOM-32-Pad34)*%
X130747135Y-77407135D02*
X130747135Y-81795794D01*
X111513912Y-74439217D02*
X127779217Y-74439217D01*
X108495000Y-71420305D02*
X111513912Y-74439217D01*
X127779217Y-74439217D02*
X130747135Y-77407135D01*
X108495000Y-62682874D02*
X108495000Y-71420305D01*
X102544850Y-58268185D02*
X104080311Y-58268185D01*
X104080311Y-58268185D02*
X108495000Y-62682874D01*
%TO.N,TX_DI_DMX_Out*%
X125883304Y-74889217D02*
X126311216Y-75317129D01*
X108329738Y-74889217D02*
X125883304Y-74889217D01*
%TO.N,RE{slash}DE_DMX_Out*%
X131386302Y-72328477D02*
X130702433Y-73012346D01*
X131386302Y-66236465D02*
X131386302Y-72328477D01*
X112639782Y-56759782D02*
X120096358Y-64216358D01*
X120096358Y-64216358D02*
X129366195Y-64216358D01*
X109582432Y-56759782D02*
X112639782Y-56759782D01*
X129366195Y-64216358D02*
X131386302Y-66236465D01*
X108571107Y-57771107D02*
X109582432Y-56759782D01*
%TO.N,Net-(ESP32-WROOM-32-Pad28)*%
X110430218Y-57209782D02*
X109841107Y-57798893D01*
X127463220Y-64895174D02*
X119459261Y-64895174D01*
X119459261Y-64895174D02*
X111773869Y-57209782D01*
X111773869Y-57209782D02*
X110430218Y-57209782D01*
X130661302Y-68093256D02*
X127463220Y-64895174D01*
X130661302Y-69322607D02*
X130661302Y-68093256D01*
%TO.N,Net-(ESP32-WROOM-32-Pad33)*%
X113417825Y-66969303D02*
X103491107Y-57042585D01*
X126124520Y-66969303D02*
X113417825Y-66969303D01*
%TO.N,Net-(ESP32-WROOM-32-Pad27)*%
X119158956Y-65620174D02*
X111473564Y-57934782D01*
X126675825Y-65620174D02*
X119158956Y-65620174D01*
%TO.N,RX_R0_DMX_Out*%
X109220000Y-71120000D02*
X123769128Y-71120000D01*
X123769128Y-71120000D02*
X126309128Y-73660000D01*
%TO.N,Net-(ESP32-WROOM-32-Pad30)*%
X101011236Y-68968597D02*
X104712109Y-72669470D01*
X107303292Y-78701319D02*
X108616973Y-80015000D01*
X107303292Y-76157749D02*
X107303292Y-78701319D01*
X104712109Y-72669470D02*
X104712109Y-73566566D01*
X104712109Y-73566566D02*
X107303292Y-76157749D01*
%TO.N,Net-(ESP32-WROOM-32-Pad31)*%
X106076973Y-75596973D02*
X106076973Y-77475000D01*
X101600000Y-71120000D02*
X106076973Y-75596973D01*
%TD*%
%TA.AperFunction,Conductor*%
%TO.N,GND*%
G36*
X154433621Y-45528502D02*
G01*
X154480114Y-45582158D01*
X154491500Y-45634500D01*
X154491500Y-84365500D01*
X154471498Y-84433621D01*
X154417842Y-84480114D01*
X154365500Y-84491500D01*
X129320310Y-84491500D01*
X129252189Y-84471498D01*
X129205696Y-84417842D01*
X129195592Y-84347568D01*
X129199943Y-84328248D01*
X129249033Y-84169665D01*
X129250564Y-84155097D01*
X129270087Y-83969348D01*
X129270087Y-83969346D01*
X129270731Y-83963219D01*
X129251917Y-83756491D01*
X129249433Y-83748049D01*
X129195047Y-83563263D01*
X129193308Y-83557354D01*
X129097136Y-83373394D01*
X129055838Y-83322030D01*
X128991799Y-83242381D01*
X128964703Y-83176759D01*
X128977386Y-83106904D01*
X129015543Y-83061874D01*
X129019322Y-83059581D01*
X129117545Y-82974347D01*
X129191339Y-82910312D01*
X129191341Y-82910310D01*
X129195372Y-82906812D01*
X129253659Y-82835726D01*
X129339781Y-82730694D01*
X129339785Y-82730688D01*
X129343165Y-82726566D01*
X129368080Y-82682796D01*
X129419162Y-82633490D01*
X129488792Y-82619628D01*
X129554863Y-82645611D01*
X129582100Y-82674759D01*
X129630965Y-82747340D01*
X129669864Y-82805119D01*
X129672844Y-82809546D01*
X129676523Y-82813403D01*
X129676525Y-82813405D01*
X129742435Y-82882496D01*
X129833736Y-82978204D01*
X130020744Y-83117342D01*
X130025495Y-83119758D01*
X130025499Y-83119760D01*
X130117466Y-83166518D01*
X130228523Y-83222982D01*
X130451130Y-83292104D01*
X130456419Y-83292805D01*
X130676916Y-83322030D01*
X130676920Y-83322030D01*
X130682200Y-83322730D01*
X130687529Y-83322530D01*
X130687530Y-83322530D01*
X130782259Y-83318973D01*
X130915128Y-83313985D01*
X131143252Y-83266120D01*
X131148211Y-83264162D01*
X131148213Y-83264161D01*
X131307945Y-83201079D01*
X131360049Y-83180502D01*
X131551310Y-83064443D01*
X131554761Y-83062349D01*
X131554764Y-83062347D01*
X131559322Y-83059581D01*
X131571691Y-83048848D01*
X131734410Y-82907648D01*
X131798969Y-82878108D01*
X131869250Y-82888162D01*
X131922939Y-82934617D01*
X131934972Y-82958583D01*
X131968811Y-83048848D01*
X131977349Y-83064443D01*
X132053850Y-83166518D01*
X132066411Y-83179079D01*
X132168486Y-83255580D01*
X132184081Y-83264118D01*
X132304529Y-83309272D01*
X132319784Y-83312899D01*
X132370649Y-83318425D01*
X132377463Y-83318794D01*
X133015020Y-83318794D01*
X133030259Y-83314319D01*
X133031464Y-83312929D01*
X133033135Y-83305246D01*
X133033135Y-83300678D01*
X133541135Y-83300678D01*
X133545610Y-83315917D01*
X133547000Y-83317122D01*
X133554683Y-83318793D01*
X134196804Y-83318793D01*
X134203625Y-83318423D01*
X134254487Y-83312899D01*
X134269739Y-83309273D01*
X134390189Y-83264118D01*
X134405784Y-83255580D01*
X134507859Y-83179079D01*
X134520420Y-83166518D01*
X134596921Y-83064443D01*
X134605459Y-83048848D01*
X134650613Y-82928400D01*
X134654240Y-82913145D01*
X134659766Y-82862280D01*
X134660135Y-82855466D01*
X134660135Y-82067909D01*
X134655660Y-82052670D01*
X134654270Y-82051465D01*
X134646587Y-82049794D01*
X133559250Y-82049794D01*
X133544011Y-82054269D01*
X133542806Y-82055659D01*
X133541135Y-82063342D01*
X133541135Y-83300678D01*
X133033135Y-83300678D01*
X133033135Y-81573927D01*
X137077002Y-81573927D01*
X137091743Y-81747657D01*
X137093083Y-81752821D01*
X137093084Y-81752825D01*
X137141054Y-81937641D01*
X137150302Y-81973273D01*
X137152494Y-81978139D01*
X137242548Y-82178051D01*
X137246037Y-82185797D01*
X137376211Y-82379152D01*
X137379890Y-82383009D01*
X137379892Y-82383011D01*
X137426517Y-82431886D01*
X137537103Y-82547810D01*
X137724111Y-82686948D01*
X137728862Y-82689364D01*
X137728866Y-82689366D01*
X137802034Y-82726566D01*
X137931890Y-82792588D01*
X138154497Y-82861710D01*
X138159786Y-82862411D01*
X138380283Y-82891636D01*
X138380287Y-82891636D01*
X138385567Y-82892336D01*
X138390896Y-82892136D01*
X138390897Y-82892136D01*
X138485626Y-82888579D01*
X138618495Y-82883591D01*
X138846619Y-82835726D01*
X138851578Y-82833768D01*
X138851580Y-82833767D01*
X138961973Y-82790170D01*
X139063416Y-82750108D01*
X139172752Y-82683762D01*
X139258128Y-82631955D01*
X139258131Y-82631953D01*
X139262689Y-82629187D01*
X139277666Y-82616191D01*
X139434706Y-82479918D01*
X139434708Y-82479916D01*
X139438739Y-82476418D01*
X139480840Y-82425072D01*
X139583148Y-82300300D01*
X139583152Y-82300294D01*
X139586532Y-82296172D01*
X139611447Y-82252402D01*
X139662529Y-82203096D01*
X139732159Y-82189234D01*
X139798230Y-82215217D01*
X139825467Y-82244365D01*
X139874959Y-82317878D01*
X139913231Y-82374725D01*
X139916211Y-82379152D01*
X139919890Y-82383009D01*
X139919892Y-82383011D01*
X139966517Y-82431886D01*
X140077103Y-82547810D01*
X140264111Y-82686948D01*
X140268862Y-82689364D01*
X140268866Y-82689366D01*
X140342034Y-82726566D01*
X140471890Y-82792588D01*
X140694497Y-82861710D01*
X140699786Y-82862411D01*
X140920283Y-82891636D01*
X140920287Y-82891636D01*
X140925567Y-82892336D01*
X140930896Y-82892136D01*
X140930897Y-82892136D01*
X141025626Y-82888579D01*
X141158495Y-82883591D01*
X141386619Y-82835726D01*
X141391578Y-82833768D01*
X141391580Y-82833767D01*
X141501973Y-82790170D01*
X141603416Y-82750108D01*
X141712752Y-82683762D01*
X141798128Y-82631955D01*
X141798131Y-82631953D01*
X141802689Y-82629187D01*
X141806724Y-82625686D01*
X141977777Y-82477254D01*
X142042336Y-82447714D01*
X142112617Y-82457768D01*
X142166306Y-82504223D01*
X142178339Y-82528189D01*
X142212178Y-82618454D01*
X142220716Y-82634049D01*
X142297217Y-82736124D01*
X142309778Y-82748685D01*
X142411853Y-82825186D01*
X142427448Y-82833724D01*
X142547896Y-82878878D01*
X142563151Y-82882505D01*
X142614016Y-82888031D01*
X142620830Y-82888400D01*
X143258387Y-82888400D01*
X143273626Y-82883925D01*
X143274831Y-82882535D01*
X143276502Y-82874852D01*
X143276502Y-82870284D01*
X143784502Y-82870284D01*
X143788977Y-82885523D01*
X143790367Y-82886728D01*
X143798050Y-82888399D01*
X144440171Y-82888399D01*
X144446992Y-82888029D01*
X144497854Y-82882505D01*
X144513106Y-82878879D01*
X144633556Y-82833724D01*
X144649151Y-82825186D01*
X144751226Y-82748685D01*
X144763787Y-82736124D01*
X144840288Y-82634049D01*
X144848826Y-82618454D01*
X144893980Y-82498006D01*
X144897607Y-82482751D01*
X144903133Y-82431886D01*
X144903502Y-82425072D01*
X144903502Y-81637515D01*
X144899027Y-81622276D01*
X144897637Y-81621071D01*
X144889954Y-81619400D01*
X143802617Y-81619400D01*
X143787378Y-81623875D01*
X143786173Y-81625265D01*
X143784502Y-81632948D01*
X143784502Y-82870284D01*
X143276502Y-82870284D01*
X143276502Y-81093285D01*
X143784502Y-81093285D01*
X143788977Y-81108524D01*
X143790367Y-81109729D01*
X143798050Y-81111400D01*
X144885386Y-81111400D01*
X144900625Y-81106925D01*
X144901830Y-81105535D01*
X144903501Y-81097852D01*
X144903501Y-80305731D01*
X144903131Y-80298910D01*
X144897607Y-80248048D01*
X144893981Y-80232796D01*
X144856458Y-80132703D01*
X147890743Y-80132703D01*
X147891302Y-80136947D01*
X147891302Y-80136951D01*
X147900521Y-80206972D01*
X147928268Y-80417734D01*
X148004129Y-80695036D01*
X148005813Y-80698984D01*
X148098732Y-80916827D01*
X148116923Y-80959476D01*
X148134556Y-80988938D01*
X148253645Y-81187921D01*
X148264561Y-81206161D01*
X148444313Y-81430528D01*
X148542474Y-81523679D01*
X148645104Y-81621071D01*
X148652851Y-81628423D01*
X148886317Y-81796186D01*
X148890112Y-81798195D01*
X148890113Y-81798196D01*
X148911869Y-81809715D01*
X149140392Y-81930712D01*
X149410373Y-82029511D01*
X149691264Y-82090755D01*
X149719841Y-82093004D01*
X149914282Y-82108307D01*
X149914291Y-82108307D01*
X149916739Y-82108500D01*
X150072271Y-82108500D01*
X150074407Y-82108354D01*
X150074418Y-82108354D01*
X150282548Y-82094165D01*
X150282554Y-82094164D01*
X150286825Y-82093873D01*
X150291020Y-82093004D01*
X150291022Y-82093004D01*
X150434255Y-82063342D01*
X150568342Y-82035574D01*
X150839343Y-81939607D01*
X151094812Y-81807750D01*
X151098313Y-81805289D01*
X151098317Y-81805287D01*
X151326204Y-81645125D01*
X151330023Y-81642441D01*
X151408403Y-81569606D01*
X151537479Y-81449661D01*
X151537481Y-81449658D01*
X151540622Y-81446740D01*
X151722713Y-81224268D01*
X151872927Y-80979142D01*
X151903809Y-80908792D01*
X151986757Y-80719830D01*
X151988483Y-80715898D01*
X152009471Y-80642221D01*
X152056412Y-80477432D01*
X152067244Y-80439406D01*
X152107751Y-80154784D01*
X152107845Y-80136951D01*
X152109235Y-79871583D01*
X152109235Y-79871576D01*
X152109257Y-79867297D01*
X152108365Y-79860516D01*
X152075731Y-79612641D01*
X152071732Y-79582266D01*
X152068638Y-79570954D01*
X152015192Y-79375590D01*
X151995871Y-79304964D01*
X151942337Y-79179457D01*
X151884763Y-79044476D01*
X151884761Y-79044472D01*
X151883077Y-79040524D01*
X151777796Y-78864612D01*
X151737643Y-78797521D01*
X151737640Y-78797517D01*
X151735439Y-78793839D01*
X151555687Y-78569472D01*
X151347149Y-78371577D01*
X151113683Y-78203814D01*
X151091843Y-78192250D01*
X150979317Y-78132671D01*
X150859608Y-78069288D01*
X150589627Y-77970489D01*
X150308736Y-77909245D01*
X150277685Y-77906801D01*
X150085718Y-77891693D01*
X150085709Y-77891693D01*
X150083261Y-77891500D01*
X149927729Y-77891500D01*
X149925593Y-77891646D01*
X149925582Y-77891646D01*
X149717452Y-77905835D01*
X149717446Y-77905836D01*
X149713175Y-77906127D01*
X149708980Y-77906996D01*
X149708978Y-77906996D01*
X149572417Y-77935276D01*
X149431658Y-77964426D01*
X149160657Y-78060393D01*
X149156848Y-78062359D01*
X149020621Y-78132671D01*
X148905188Y-78192250D01*
X148901687Y-78194711D01*
X148901683Y-78194713D01*
X148891594Y-78201804D01*
X148669977Y-78357559D01*
X148654892Y-78371577D01*
X148500056Y-78515460D01*
X148459378Y-78553260D01*
X148277287Y-78775732D01*
X148127073Y-79020858D01*
X148125347Y-79024791D01*
X148125346Y-79024792D01*
X148083409Y-79120328D01*
X148011517Y-79284102D01*
X148010342Y-79288229D01*
X148010341Y-79288230D01*
X147987677Y-79367792D01*
X147932756Y-79560594D01*
X147892249Y-79845216D01*
X147892227Y-79849505D01*
X147892226Y-79849512D01*
X147890765Y-80128417D01*
X147890743Y-80132703D01*
X144856458Y-80132703D01*
X144848826Y-80112346D01*
X144840288Y-80096751D01*
X144763787Y-79994676D01*
X144751226Y-79982115D01*
X144649151Y-79905614D01*
X144633556Y-79897076D01*
X144513108Y-79851922D01*
X144497853Y-79848295D01*
X144446988Y-79842769D01*
X144440174Y-79842400D01*
X143802617Y-79842400D01*
X143787378Y-79846875D01*
X143786173Y-79848265D01*
X143784502Y-79855948D01*
X143784502Y-81093285D01*
X143276502Y-81093285D01*
X143276502Y-79860516D01*
X143272027Y-79845277D01*
X143270637Y-79844072D01*
X143262954Y-79842401D01*
X142620833Y-79842401D01*
X142614012Y-79842771D01*
X142563150Y-79848295D01*
X142547898Y-79851921D01*
X142427448Y-79897076D01*
X142411853Y-79905614D01*
X142309778Y-79982115D01*
X142297217Y-79994676D01*
X142220716Y-80096751D01*
X142212178Y-80112346D01*
X142176704Y-80206972D01*
X142134062Y-80263736D01*
X142067501Y-80288436D01*
X141998152Y-80273228D01*
X141967552Y-80249713D01*
X141907586Y-80186852D01*
X141907581Y-80186847D01*
X141903901Y-80182990D01*
X141826643Y-80125508D01*
X141721175Y-80047038D01*
X141721176Y-80047038D01*
X141716893Y-80043852D01*
X141712142Y-80041436D01*
X141712138Y-80041434D01*
X141569996Y-79969166D01*
X141509114Y-79938212D01*
X141286507Y-79869090D01*
X141272979Y-79867297D01*
X141060721Y-79839164D01*
X141060717Y-79839164D01*
X141055437Y-79838464D01*
X141050108Y-79838664D01*
X141050107Y-79838664D01*
X140955378Y-79842221D01*
X140822509Y-79847209D01*
X140594385Y-79895074D01*
X140589426Y-79897032D01*
X140589424Y-79897033D01*
X140570109Y-79904661D01*
X140377588Y-79980692D01*
X140296731Y-80029757D01*
X140182876Y-80098845D01*
X140182873Y-80098847D01*
X140178315Y-80101613D01*
X140174287Y-80105108D01*
X140174286Y-80105109D01*
X140007646Y-80249713D01*
X140002265Y-80254382D01*
X139976059Y-80286342D01*
X139857856Y-80430500D01*
X139857852Y-80430506D01*
X139854472Y-80434628D01*
X139849403Y-80443534D01*
X139829557Y-80478398D01*
X139778475Y-80527704D01*
X139708845Y-80541566D01*
X139642774Y-80515583D01*
X139615535Y-80486433D01*
X139609476Y-80477432D01*
X139524793Y-80351648D01*
X139501729Y-80327470D01*
X139425963Y-80248048D01*
X139363901Y-80182990D01*
X139286643Y-80125508D01*
X139181175Y-80047038D01*
X139181176Y-80047038D01*
X139176893Y-80043852D01*
X139172142Y-80041436D01*
X139172138Y-80041434D01*
X139029996Y-79969166D01*
X138969114Y-79938212D01*
X138746507Y-79869090D01*
X138732979Y-79867297D01*
X138520721Y-79839164D01*
X138520717Y-79839164D01*
X138515437Y-79838464D01*
X138510108Y-79838664D01*
X138510107Y-79838664D01*
X138415378Y-79842221D01*
X138282509Y-79847209D01*
X138054385Y-79895074D01*
X138049426Y-79897032D01*
X138049424Y-79897033D01*
X138030109Y-79904661D01*
X137837588Y-79980692D01*
X137756731Y-80029757D01*
X137642876Y-80098845D01*
X137642873Y-80098847D01*
X137638315Y-80101613D01*
X137634287Y-80105108D01*
X137634286Y-80105109D01*
X137467646Y-80249713D01*
X137462265Y-80254382D01*
X137436059Y-80286342D01*
X137317856Y-80430500D01*
X137317852Y-80430506D01*
X137314472Y-80434628D01*
X137199162Y-80637200D01*
X137197341Y-80642216D01*
X137197339Y-80642221D01*
X137132776Y-80820088D01*
X137119631Y-80856303D01*
X137118682Y-80861552D01*
X137118681Y-80861555D01*
X137078892Y-81081591D01*
X137078891Y-81081598D01*
X137078154Y-81085675D01*
X137077002Y-81110102D01*
X137077002Y-81573927D01*
X133033135Y-81573927D01*
X133033135Y-81523679D01*
X133541135Y-81523679D01*
X133545610Y-81538918D01*
X133547000Y-81540123D01*
X133554683Y-81541794D01*
X134642019Y-81541794D01*
X134657258Y-81537319D01*
X134658463Y-81535929D01*
X134660134Y-81528246D01*
X134660134Y-80736125D01*
X134659764Y-80729304D01*
X134654240Y-80678442D01*
X134650614Y-80663190D01*
X134605459Y-80542740D01*
X134596921Y-80527145D01*
X134520420Y-80425070D01*
X134507859Y-80412509D01*
X134405784Y-80336008D01*
X134390189Y-80327470D01*
X134269741Y-80282316D01*
X134254486Y-80278689D01*
X134203621Y-80273163D01*
X134196807Y-80272794D01*
X133559250Y-80272794D01*
X133544011Y-80277269D01*
X133542806Y-80278659D01*
X133541135Y-80286342D01*
X133541135Y-81523679D01*
X133033135Y-81523679D01*
X133033135Y-80290910D01*
X133028660Y-80275671D01*
X133027270Y-80274466D01*
X133019587Y-80272795D01*
X132377466Y-80272795D01*
X132370645Y-80273165D01*
X132319783Y-80278689D01*
X132304531Y-80282315D01*
X132184081Y-80327470D01*
X132168486Y-80336008D01*
X132066411Y-80412509D01*
X132053850Y-80425070D01*
X131977349Y-80527145D01*
X131968811Y-80542740D01*
X131933337Y-80637366D01*
X131890695Y-80694130D01*
X131824134Y-80718830D01*
X131754785Y-80703622D01*
X131724185Y-80680107D01*
X131664219Y-80617246D01*
X131664214Y-80617241D01*
X131660534Y-80613384D01*
X131473526Y-80474246D01*
X131468771Y-80471828D01*
X131468767Y-80471826D01*
X131449531Y-80462046D01*
X131397873Y-80413343D01*
X131380635Y-80349729D01*
X131380635Y-77485902D01*
X131381162Y-77474719D01*
X131382837Y-77467226D01*
X131381256Y-77416905D01*
X131380697Y-77399136D01*
X131380635Y-77395178D01*
X131380635Y-77367279D01*
X131380131Y-77363288D01*
X131379198Y-77351446D01*
X131379139Y-77349545D01*
X131377809Y-77307246D01*
X131375597Y-77299632D01*
X131375596Y-77299627D01*
X131372158Y-77287794D01*
X131368147Y-77268430D01*
X131366602Y-77256199D01*
X131365609Y-77248338D01*
X131362692Y-77240971D01*
X131362691Y-77240966D01*
X131349333Y-77207227D01*
X131345489Y-77196000D01*
X131335365Y-77161157D01*
X131333153Y-77153542D01*
X131322842Y-77136107D01*
X131314147Y-77118359D01*
X131306687Y-77099518D01*
X131299014Y-77088956D01*
X131280699Y-77063748D01*
X131274183Y-77053828D01*
X131255715Y-77022600D01*
X131255713Y-77022597D01*
X131251677Y-77015773D01*
X131237356Y-77001452D01*
X131224515Y-76986418D01*
X131217266Y-76976441D01*
X131212607Y-76970028D01*
X131178530Y-76941837D01*
X131169751Y-76933847D01*
X128282869Y-74046964D01*
X128275329Y-74038678D01*
X128271217Y-74032199D01*
X128221565Y-73985573D01*
X128218724Y-73982819D01*
X128198987Y-73963082D01*
X128195790Y-73960602D01*
X128186768Y-73952897D01*
X128164303Y-73931801D01*
X128154538Y-73922631D01*
X128147592Y-73918812D01*
X128147589Y-73918810D01*
X128136783Y-73912869D01*
X128120264Y-73902018D01*
X128119800Y-73901658D01*
X128104258Y-73889603D01*
X128096989Y-73886458D01*
X128096985Y-73886455D01*
X128063680Y-73872043D01*
X128053030Y-73866826D01*
X128014277Y-73845522D01*
X127994654Y-73840484D01*
X127975951Y-73834080D01*
X127964637Y-73829184D01*
X127964636Y-73829184D01*
X127957362Y-73826036D01*
X127949539Y-73824797D01*
X127949529Y-73824794D01*
X127913693Y-73819118D01*
X127902073Y-73816712D01*
X127866928Y-73807689D01*
X127866927Y-73807689D01*
X127859247Y-73805717D01*
X127838993Y-73805717D01*
X127819282Y-73804166D01*
X127807103Y-73802237D01*
X127799274Y-73800997D01*
X127791382Y-73801743D01*
X127755256Y-73805158D01*
X127743398Y-73805717D01*
X127347254Y-73805717D01*
X127279133Y-73785715D01*
X127232640Y-73732059D01*
X127223025Y-73673170D01*
X127221942Y-73673170D01*
X127221942Y-73666565D01*
X127222632Y-73660000D01*
X127215340Y-73590622D01*
X127203360Y-73476635D01*
X127203360Y-73476633D01*
X127202670Y-73470072D01*
X127143655Y-73288444D01*
X127138874Y-73280162D01*
X127078736Y-73176001D01*
X127048168Y-73123056D01*
X126948485Y-73012346D01*
X126924803Y-72986045D01*
X126924802Y-72986044D01*
X126920381Y-72981134D01*
X126765880Y-72868882D01*
X126759852Y-72866198D01*
X126759850Y-72866197D01*
X126597447Y-72793891D01*
X126597446Y-72793891D01*
X126591416Y-72791206D01*
X126482166Y-72767984D01*
X126411072Y-72752872D01*
X126411067Y-72752872D01*
X126404615Y-72751500D01*
X126348723Y-72751500D01*
X126280602Y-72731498D01*
X126259628Y-72714595D01*
X124272780Y-70727747D01*
X124265240Y-70719461D01*
X124261128Y-70712982D01*
X124211473Y-70666353D01*
X124208631Y-70663598D01*
X124188898Y-70643865D01*
X124185701Y-70641385D01*
X124176679Y-70633680D01*
X124150228Y-70608841D01*
X124144449Y-70603414D01*
X124137503Y-70599595D01*
X124137500Y-70599593D01*
X124126694Y-70593652D01*
X124110175Y-70582801D01*
X124104176Y-70578148D01*
X124094169Y-70570386D01*
X124086900Y-70567241D01*
X124086896Y-70567238D01*
X124053591Y-70552826D01*
X124042941Y-70547609D01*
X124004188Y-70526305D01*
X123984565Y-70521267D01*
X123965862Y-70514863D01*
X123954548Y-70509967D01*
X123954547Y-70509967D01*
X123947273Y-70506819D01*
X123939450Y-70505580D01*
X123939440Y-70505577D01*
X123903604Y-70499901D01*
X123891984Y-70497495D01*
X123856839Y-70488472D01*
X123856838Y-70488472D01*
X123849158Y-70486500D01*
X123828904Y-70486500D01*
X123809193Y-70484949D01*
X123797014Y-70483020D01*
X123789185Y-70481780D01*
X123781293Y-70482526D01*
X123745167Y-70485941D01*
X123733309Y-70486500D01*
X109928200Y-70486500D01*
X109860079Y-70466498D01*
X109840853Y-70450157D01*
X109840580Y-70450460D01*
X109835668Y-70446037D01*
X109831253Y-70441134D01*
X109676752Y-70328882D01*
X109670724Y-70326198D01*
X109670722Y-70326197D01*
X109508319Y-70253891D01*
X109508318Y-70253891D01*
X109502288Y-70251206D01*
X109407730Y-70231107D01*
X109321944Y-70212872D01*
X109321939Y-70212872D01*
X109315487Y-70211500D01*
X109254500Y-70211500D01*
X109186379Y-70191498D01*
X109139886Y-70137842D01*
X109128500Y-70085500D01*
X109128500Y-63880072D01*
X109148502Y-63811951D01*
X109202158Y-63765458D01*
X109272432Y-63755354D01*
X109337012Y-63784848D01*
X109343595Y-63790977D01*
X112914168Y-67361550D01*
X112921712Y-67369840D01*
X112925825Y-67376321D01*
X112931602Y-67381746D01*
X112975492Y-67422961D01*
X112978334Y-67425716D01*
X112998055Y-67445437D01*
X113001250Y-67447915D01*
X113010272Y-67455621D01*
X113042504Y-67485889D01*
X113049453Y-67489709D01*
X113060257Y-67495649D01*
X113076781Y-67506502D01*
X113092784Y-67518916D01*
X113133368Y-67536479D01*
X113143998Y-67541686D01*
X113182765Y-67562998D01*
X113190442Y-67564969D01*
X113190447Y-67564971D01*
X113202383Y-67568035D01*
X113221091Y-67574440D01*
X113239680Y-67582484D01*
X113247508Y-67583724D01*
X113247515Y-67583726D01*
X113283349Y-67589402D01*
X113294969Y-67591808D01*
X113330114Y-67600831D01*
X113337795Y-67602803D01*
X113358049Y-67602803D01*
X113377759Y-67604354D01*
X113397768Y-67607523D01*
X113405660Y-67606777D01*
X113441786Y-67603362D01*
X113453644Y-67602803D01*
X125416320Y-67602803D01*
X125484441Y-67622805D01*
X125503667Y-67639146D01*
X125503940Y-67638843D01*
X125508852Y-67643266D01*
X125513267Y-67648169D01*
X125667768Y-67760421D01*
X125673796Y-67763105D01*
X125673798Y-67763106D01*
X125836201Y-67835412D01*
X125842232Y-67838097D01*
X125935633Y-67857950D01*
X126022576Y-67876431D01*
X126022581Y-67876431D01*
X126029033Y-67877803D01*
X126220007Y-67877803D01*
X126226459Y-67876431D01*
X126226464Y-67876431D01*
X126313407Y-67857950D01*
X126406808Y-67838097D01*
X126412839Y-67835412D01*
X126575242Y-67763106D01*
X126575244Y-67763105D01*
X126581272Y-67760421D01*
X126735773Y-67648169D01*
X126772371Y-67607523D01*
X126859141Y-67511155D01*
X126859142Y-67511154D01*
X126863560Y-67506247D01*
X126938573Y-67376321D01*
X126955743Y-67346582D01*
X126955744Y-67346581D01*
X126959047Y-67340859D01*
X127018062Y-67159231D01*
X127023302Y-67109380D01*
X127037334Y-66975868D01*
X127038024Y-66969303D01*
X127018062Y-66779375D01*
X126968640Y-66627271D01*
X126963110Y-66610251D01*
X126961082Y-66539284D01*
X126997745Y-66478486D01*
X127031694Y-66456208D01*
X127126547Y-66413977D01*
X127126549Y-66413976D01*
X127132577Y-66411292D01*
X127287078Y-66299040D01*
X127337318Y-66243243D01*
X127410446Y-66162026D01*
X127410447Y-66162025D01*
X127414865Y-66157118D01*
X127484442Y-66036607D01*
X127535823Y-65987615D01*
X127605537Y-65974179D01*
X127671448Y-66000565D01*
X127682655Y-66010513D01*
X128837650Y-67165509D01*
X129990897Y-68318756D01*
X130024923Y-68381068D01*
X130027802Y-68407851D01*
X130027802Y-68620083D01*
X130007800Y-68688204D01*
X129995444Y-68704386D01*
X129922262Y-68785663D01*
X129826775Y-68951051D01*
X129767760Y-69132679D01*
X129767070Y-69139240D01*
X129767070Y-69139242D01*
X129760442Y-69202304D01*
X129747798Y-69322607D01*
X129767760Y-69512535D01*
X129826775Y-69694163D01*
X129830078Y-69699885D01*
X129830079Y-69699886D01*
X129846201Y-69727810D01*
X129922262Y-69859551D01*
X130050049Y-70001473D01*
X130149145Y-70073471D01*
X130181331Y-70096855D01*
X130204550Y-70113725D01*
X130210578Y-70116409D01*
X130210580Y-70116410D01*
X130372983Y-70188716D01*
X130379014Y-70191401D01*
X130472415Y-70211254D01*
X130559358Y-70229735D01*
X130559363Y-70229735D01*
X130565815Y-70231107D01*
X130626802Y-70231107D01*
X130694923Y-70251109D01*
X130741416Y-70304765D01*
X130752802Y-70357107D01*
X130752802Y-71977846D01*
X130732800Y-72045967D01*
X130679144Y-72092460D01*
X130626802Y-72103846D01*
X130606946Y-72103846D01*
X130600494Y-72105218D01*
X130600489Y-72105218D01*
X130513545Y-72123699D01*
X130420145Y-72143552D01*
X130414115Y-72146237D01*
X130414114Y-72146237D01*
X130251711Y-72218543D01*
X130251709Y-72218544D01*
X130245681Y-72221228D01*
X130240340Y-72225108D01*
X130240339Y-72225109D01*
X130207796Y-72248753D01*
X130091180Y-72333480D01*
X130086759Y-72338390D01*
X130086758Y-72338391D01*
X129973622Y-72464042D01*
X129963393Y-72475402D01*
X129912508Y-72563537D01*
X129880073Y-72619717D01*
X129867906Y-72640790D01*
X129808891Y-72822418D01*
X129808201Y-72828979D01*
X129808201Y-72828981D01*
X129795542Y-72949424D01*
X129788929Y-73012346D01*
X129789619Y-73018911D01*
X129807699Y-73190928D01*
X129808891Y-73202274D01*
X129867906Y-73383902D01*
X129963393Y-73549290D01*
X129967811Y-73554197D01*
X129967812Y-73554198D01*
X130074935Y-73673170D01*
X130091180Y-73691212D01*
X130245681Y-73803464D01*
X130251709Y-73806148D01*
X130251711Y-73806149D01*
X130414114Y-73878455D01*
X130420145Y-73881140D01*
X130482806Y-73894459D01*
X130600489Y-73919474D01*
X130600494Y-73919474D01*
X130606946Y-73920846D01*
X130797920Y-73920846D01*
X130804372Y-73919474D01*
X130804377Y-73919474D01*
X130922060Y-73894459D01*
X130984721Y-73881140D01*
X130990752Y-73878455D01*
X131153155Y-73806149D01*
X131153157Y-73806148D01*
X131159185Y-73803464D01*
X131313686Y-73691212D01*
X131329931Y-73673170D01*
X131437054Y-73554198D01*
X131437055Y-73554197D01*
X131441473Y-73549290D01*
X131536960Y-73383902D01*
X131595975Y-73202274D01*
X131597168Y-73190928D01*
X131613340Y-73037054D01*
X131640353Y-72971397D01*
X131649555Y-72961128D01*
X131778560Y-72832124D01*
X131786839Y-72824590D01*
X131793320Y-72820477D01*
X131839946Y-72770825D01*
X131842700Y-72767984D01*
X131862437Y-72748247D01*
X131864917Y-72745050D01*
X131872622Y-72736028D01*
X131902888Y-72703798D01*
X131906707Y-72696852D01*
X131906709Y-72696849D01*
X131912650Y-72686043D01*
X131923501Y-72669524D01*
X131931060Y-72659778D01*
X131935916Y-72653518D01*
X131939061Y-72646249D01*
X131939064Y-72646245D01*
X131953476Y-72612940D01*
X131958693Y-72602290D01*
X131979997Y-72563537D01*
X131985035Y-72543914D01*
X131991439Y-72525211D01*
X131996335Y-72513897D01*
X131996335Y-72513896D01*
X131999483Y-72506622D01*
X132000722Y-72498799D01*
X132000725Y-72498789D01*
X132001548Y-72493591D01*
X148444702Y-72493591D01*
X148444902Y-72498920D01*
X148444902Y-72498921D01*
X148445191Y-72506622D01*
X148453447Y-72726519D01*
X148501312Y-72954643D01*
X148503270Y-72959602D01*
X148503271Y-72959604D01*
X148524100Y-73012346D01*
X148586930Y-73171440D01*
X148609450Y-73208552D01*
X148667467Y-73304161D01*
X148707851Y-73370713D01*
X148711346Y-73374741D01*
X148711347Y-73374742D01*
X148814690Y-73493833D01*
X148860620Y-73546763D01*
X148903369Y-73581815D01*
X149036738Y-73691172D01*
X149036744Y-73691176D01*
X149040866Y-73694556D01*
X149243438Y-73809866D01*
X149248454Y-73811687D01*
X149248459Y-73811689D01*
X149457526Y-73887577D01*
X149457530Y-73887578D01*
X149462541Y-73889397D01*
X149467790Y-73890346D01*
X149467793Y-73890347D01*
X149687829Y-73930136D01*
X149687836Y-73930137D01*
X149691913Y-73930874D01*
X149709837Y-73931719D01*
X149714852Y-73931956D01*
X149714859Y-73931956D01*
X149716340Y-73932026D01*
X150180165Y-73932026D01*
X150353895Y-73917285D01*
X150359059Y-73915945D01*
X150359063Y-73915944D01*
X150574346Y-73860067D01*
X150574350Y-73860065D01*
X150579511Y-73858726D01*
X150672779Y-73816712D01*
X150787174Y-73765181D01*
X150787177Y-73765180D01*
X150792035Y-73762991D01*
X150985390Y-73632817D01*
X151154048Y-73471925D01*
X151293186Y-73284917D01*
X151296320Y-73278754D01*
X151348562Y-73176001D01*
X151398826Y-73077138D01*
X151467948Y-72854531D01*
X151483608Y-72736377D01*
X151497874Y-72628745D01*
X151497874Y-72628741D01*
X151498574Y-72623461D01*
X151489829Y-72390533D01*
X151441964Y-72162409D01*
X151435578Y-72146237D01*
X151373941Y-71990166D01*
X151356346Y-71945612D01*
X151269655Y-71802749D01*
X151238193Y-71750900D01*
X151238191Y-71750897D01*
X151235425Y-71746339D01*
X151151310Y-71649405D01*
X151086156Y-71574322D01*
X151086154Y-71574320D01*
X151082656Y-71570289D01*
X150993614Y-71497279D01*
X150906538Y-71425880D01*
X150906532Y-71425876D01*
X150902410Y-71422496D01*
X150858640Y-71397581D01*
X150809334Y-71346499D01*
X150795472Y-71276869D01*
X150821455Y-71210798D01*
X150850603Y-71183561D01*
X150985390Y-71092817D01*
X151154048Y-70931925D01*
X151293186Y-70744917D01*
X151398826Y-70537138D01*
X151467948Y-70314531D01*
X151488540Y-70159167D01*
X151497874Y-70088745D01*
X151497874Y-70088741D01*
X151498574Y-70083461D01*
X151489829Y-69850533D01*
X151441964Y-69622409D01*
X151356346Y-69405612D01*
X151235425Y-69206339D01*
X151199382Y-69164803D01*
X151083492Y-69031251D01*
X151053952Y-68966692D01*
X151064006Y-68896411D01*
X151110461Y-68842722D01*
X151134427Y-68830689D01*
X151224692Y-68796850D01*
X151240287Y-68788312D01*
X151342362Y-68711811D01*
X151354923Y-68699250D01*
X151431424Y-68597175D01*
X151439962Y-68581580D01*
X151485116Y-68461132D01*
X151488743Y-68445877D01*
X151494269Y-68395012D01*
X151494638Y-68388198D01*
X151494638Y-67750641D01*
X151490163Y-67735402D01*
X151488773Y-67734197D01*
X151481090Y-67732526D01*
X148466754Y-67732526D01*
X148451515Y-67737001D01*
X148450310Y-67738391D01*
X148448639Y-67746074D01*
X148448639Y-68388195D01*
X148449009Y-68395016D01*
X148454533Y-68445878D01*
X148458159Y-68461130D01*
X148503314Y-68581580D01*
X148511852Y-68597175D01*
X148588353Y-68699250D01*
X148600914Y-68711811D01*
X148702989Y-68788312D01*
X148718584Y-68796850D01*
X148813210Y-68832324D01*
X148869974Y-68874966D01*
X148894674Y-68941527D01*
X148879466Y-69010876D01*
X148855951Y-69041476D01*
X148793090Y-69101442D01*
X148793085Y-69101447D01*
X148789228Y-69105127D01*
X148650090Y-69292135D01*
X148544450Y-69499914D01*
X148475328Y-69722521D01*
X148474627Y-69727810D01*
X148454841Y-69877097D01*
X148444702Y-69953591D01*
X148453447Y-70186519D01*
X148501312Y-70414643D01*
X148503270Y-70419602D01*
X148503271Y-70419604D01*
X148528316Y-70483020D01*
X148586930Y-70631440D01*
X148608116Y-70666353D01*
X148654457Y-70742721D01*
X148707851Y-70830713D01*
X148711346Y-70834741D01*
X148711347Y-70834742D01*
X148795679Y-70931925D01*
X148860620Y-71006763D01*
X148864751Y-71010150D01*
X149036738Y-71151172D01*
X149036744Y-71151176D01*
X149040866Y-71154556D01*
X149070136Y-71171217D01*
X149084636Y-71179471D01*
X149133942Y-71230553D01*
X149147804Y-71300183D01*
X149121821Y-71366254D01*
X149092673Y-71393491D01*
X148957886Y-71484235D01*
X148954029Y-71487914D01*
X148954027Y-71487916D01*
X148944212Y-71497279D01*
X148789228Y-71645127D01*
X148650090Y-71832135D01*
X148544450Y-72039914D01*
X148475328Y-72262521D01*
X148474627Y-72267810D01*
X148447113Y-72475402D01*
X148444702Y-72493591D01*
X132001548Y-72493591D01*
X132006401Y-72462953D01*
X132008807Y-72451333D01*
X132017830Y-72416188D01*
X132017830Y-72416187D01*
X132019802Y-72408507D01*
X132019802Y-72388253D01*
X132021353Y-72368542D01*
X132023282Y-72356363D01*
X132024522Y-72348534D01*
X132020361Y-72304515D01*
X132019802Y-72292658D01*
X132019802Y-67206411D01*
X148448638Y-67206411D01*
X148453113Y-67221650D01*
X148454503Y-67222855D01*
X148462186Y-67224526D01*
X149699523Y-67224526D01*
X149714762Y-67220051D01*
X149715967Y-67218661D01*
X149717638Y-67210978D01*
X149717638Y-67206411D01*
X150225638Y-67206411D01*
X150230113Y-67221650D01*
X150231503Y-67222855D01*
X150239186Y-67224526D01*
X151476522Y-67224526D01*
X151491761Y-67220051D01*
X151492966Y-67218661D01*
X151494637Y-67210978D01*
X151494637Y-66568857D01*
X151494267Y-66562036D01*
X151488743Y-66511174D01*
X151485117Y-66495922D01*
X151439962Y-66375472D01*
X151431424Y-66359877D01*
X151354923Y-66257802D01*
X151342362Y-66245241D01*
X151240287Y-66168740D01*
X151224692Y-66160202D01*
X151104244Y-66115048D01*
X151088989Y-66111421D01*
X151038124Y-66105895D01*
X151031310Y-66105526D01*
X150243753Y-66105526D01*
X150228514Y-66110001D01*
X150227309Y-66111391D01*
X150225638Y-66119074D01*
X150225638Y-67206411D01*
X149717638Y-67206411D01*
X149717638Y-66123642D01*
X149713163Y-66108403D01*
X149711773Y-66107198D01*
X149704090Y-66105527D01*
X148911969Y-66105527D01*
X148905148Y-66105897D01*
X148854286Y-66111421D01*
X148839034Y-66115047D01*
X148718584Y-66160202D01*
X148702989Y-66168740D01*
X148600914Y-66245241D01*
X148588353Y-66257802D01*
X148511852Y-66359877D01*
X148503314Y-66375472D01*
X148458160Y-66495920D01*
X148454533Y-66511175D01*
X148449007Y-66562040D01*
X148448638Y-66568854D01*
X148448638Y-67206411D01*
X132019802Y-67206411D01*
X132019802Y-66315233D01*
X132020329Y-66304050D01*
X132022004Y-66296557D01*
X132021156Y-66269558D01*
X132019864Y-66228467D01*
X132019802Y-66224509D01*
X132019802Y-66196609D01*
X132019298Y-66192618D01*
X132018365Y-66180776D01*
X132018315Y-66179164D01*
X132016976Y-66136576D01*
X132014764Y-66128962D01*
X132014763Y-66128957D01*
X132011325Y-66117124D01*
X132007314Y-66097760D01*
X132005769Y-66085529D01*
X132004776Y-66077668D01*
X132001859Y-66070301D01*
X132001858Y-66070296D01*
X131988500Y-66036557D01*
X131984656Y-66025330D01*
X131980351Y-66010513D01*
X131972320Y-65982872D01*
X131962009Y-65965437D01*
X131953314Y-65947689D01*
X131945854Y-65928848D01*
X131930245Y-65907363D01*
X131919866Y-65893078D01*
X131913350Y-65883158D01*
X131894882Y-65851930D01*
X131894880Y-65851927D01*
X131890844Y-65845103D01*
X131876523Y-65830782D01*
X131863682Y-65815748D01*
X131856433Y-65805771D01*
X131851774Y-65799358D01*
X131817697Y-65771167D01*
X131808918Y-65763177D01*
X129869847Y-63824105D01*
X129862307Y-63815819D01*
X129858195Y-63809340D01*
X129808543Y-63762714D01*
X129805702Y-63759960D01*
X129785965Y-63740223D01*
X129782768Y-63737743D01*
X129773746Y-63730038D01*
X129747295Y-63705199D01*
X129741516Y-63699772D01*
X129734570Y-63695953D01*
X129734567Y-63695951D01*
X129723761Y-63690010D01*
X129707242Y-63679159D01*
X129706778Y-63678799D01*
X129691236Y-63666744D01*
X129683967Y-63663599D01*
X129683963Y-63663596D01*
X129650658Y-63649184D01*
X129640008Y-63643967D01*
X129601255Y-63622663D01*
X129581632Y-63617625D01*
X129562929Y-63611221D01*
X129551615Y-63606325D01*
X129551614Y-63606325D01*
X129544340Y-63603177D01*
X129536517Y-63601938D01*
X129536507Y-63601935D01*
X129500671Y-63596259D01*
X129489051Y-63593853D01*
X129453906Y-63584830D01*
X129453905Y-63584830D01*
X129446225Y-63582858D01*
X129425971Y-63582858D01*
X129406260Y-63581307D01*
X129394081Y-63579378D01*
X129386252Y-63578138D01*
X129378360Y-63578884D01*
X129342234Y-63582299D01*
X129330376Y-63582858D01*
X120410952Y-63582858D01*
X120342831Y-63562856D01*
X120321857Y-63545953D01*
X118407403Y-61631499D01*
X122026725Y-61631499D01*
X122026726Y-62208620D01*
X122027096Y-62215441D01*
X122032620Y-62266303D01*
X122036246Y-62281555D01*
X122081401Y-62402005D01*
X122089939Y-62417600D01*
X122166440Y-62519675D01*
X122179001Y-62532236D01*
X122281076Y-62608737D01*
X122296671Y-62617275D01*
X122417119Y-62662429D01*
X122432374Y-62666056D01*
X122483239Y-62671582D01*
X122490053Y-62671951D01*
X123062610Y-62671951D01*
X123077849Y-62667476D01*
X123079054Y-62666086D01*
X123080725Y-62658403D01*
X123080725Y-62653835D01*
X123588725Y-62653835D01*
X123593200Y-62669074D01*
X123594590Y-62670279D01*
X123602273Y-62671950D01*
X124179394Y-62671950D01*
X124186215Y-62671580D01*
X124237077Y-62666056D01*
X124252329Y-62662430D01*
X124372779Y-62617275D01*
X124388374Y-62608737D01*
X124468085Y-62548997D01*
X148382158Y-62548997D01*
X148390903Y-62781925D01*
X148438768Y-63010049D01*
X148524386Y-63226846D01*
X148645307Y-63426119D01*
X148648802Y-63430147D01*
X148648803Y-63430148D01*
X148794003Y-63597475D01*
X148798076Y-63602169D01*
X148815716Y-63616633D01*
X148974194Y-63746578D01*
X148974200Y-63746582D01*
X148978322Y-63749962D01*
X149180894Y-63865272D01*
X149185910Y-63867093D01*
X149185915Y-63867095D01*
X149394982Y-63942983D01*
X149394986Y-63942984D01*
X149399997Y-63944803D01*
X149405246Y-63945752D01*
X149405249Y-63945753D01*
X149625285Y-63985542D01*
X149625292Y-63985543D01*
X149629369Y-63986280D01*
X149647293Y-63987125D01*
X149652308Y-63987362D01*
X149652315Y-63987362D01*
X149653796Y-63987432D01*
X150117621Y-63987432D01*
X150291351Y-63972691D01*
X150296515Y-63971351D01*
X150296519Y-63971350D01*
X150511802Y-63915473D01*
X150511806Y-63915471D01*
X150516967Y-63914132D01*
X150540621Y-63903477D01*
X150724630Y-63820587D01*
X150724633Y-63820586D01*
X150729491Y-63818397D01*
X150922846Y-63688223D01*
X150940272Y-63671600D01*
X151013299Y-63601935D01*
X151091504Y-63527331D01*
X151230642Y-63340323D01*
X151250304Y-63301652D01*
X151286018Y-63231407D01*
X151336282Y-63132544D01*
X151405404Y-62909937D01*
X151406415Y-62902311D01*
X151435330Y-62684151D01*
X151435330Y-62684147D01*
X151436030Y-62678867D01*
X151435757Y-62671582D01*
X151427485Y-62451270D01*
X151427285Y-62445939D01*
X151379420Y-62217815D01*
X151293802Y-62001018D01*
X151172881Y-61801745D01*
X151113535Y-61733355D01*
X151023612Y-61629728D01*
X151023610Y-61629726D01*
X151020112Y-61625695D01*
X150928176Y-61550312D01*
X150843994Y-61481286D01*
X150843988Y-61481282D01*
X150839866Y-61477902D01*
X150796096Y-61452987D01*
X150746790Y-61401905D01*
X150732928Y-61332275D01*
X150758911Y-61266204D01*
X150788059Y-61238967D01*
X150922846Y-61148223D01*
X150969114Y-61104086D01*
X150997538Y-61076970D01*
X151091504Y-60987331D01*
X151230642Y-60800323D01*
X151245984Y-60770149D01*
X151286018Y-60691407D01*
X151336282Y-60592544D01*
X151405404Y-60369937D01*
X151424243Y-60227798D01*
X151435330Y-60144151D01*
X151435330Y-60144147D01*
X151436030Y-60138867D01*
X151427285Y-59905939D01*
X151379420Y-59677815D01*
X151354886Y-59615690D01*
X151328516Y-59548920D01*
X151293802Y-59461018D01*
X151195075Y-59298320D01*
X151175649Y-59266306D01*
X151175647Y-59266303D01*
X151172881Y-59261745D01*
X151169380Y-59257710D01*
X151020948Y-59086657D01*
X150991408Y-59022098D01*
X151001462Y-58951817D01*
X151047917Y-58898128D01*
X151071883Y-58886095D01*
X151162148Y-58852256D01*
X151177743Y-58843718D01*
X151279818Y-58767217D01*
X151292379Y-58754656D01*
X151368880Y-58652581D01*
X151377418Y-58636986D01*
X151422572Y-58516538D01*
X151426199Y-58501283D01*
X151431725Y-58450418D01*
X151432094Y-58443604D01*
X151432094Y-57806047D01*
X151427619Y-57790808D01*
X151426229Y-57789603D01*
X151418546Y-57787932D01*
X148404210Y-57787932D01*
X148388971Y-57792407D01*
X148387766Y-57793797D01*
X148386095Y-57801480D01*
X148386095Y-58443601D01*
X148386465Y-58450422D01*
X148391989Y-58501284D01*
X148395615Y-58516536D01*
X148440770Y-58636986D01*
X148449308Y-58652581D01*
X148525809Y-58754656D01*
X148538370Y-58767217D01*
X148640445Y-58843718D01*
X148656040Y-58852256D01*
X148750666Y-58887730D01*
X148807430Y-58930372D01*
X148832130Y-58996933D01*
X148816922Y-59066282D01*
X148793407Y-59096882D01*
X148730546Y-59156848D01*
X148730541Y-59156853D01*
X148726684Y-59160533D01*
X148587546Y-59347541D01*
X148585130Y-59352292D01*
X148585128Y-59352296D01*
X148563818Y-59394211D01*
X148481906Y-59555320D01*
X148480323Y-59560418D01*
X148479610Y-59562715D01*
X148412784Y-59777927D01*
X148412083Y-59783216D01*
X148384406Y-59992038D01*
X148382158Y-60008997D01*
X148390903Y-60241925D01*
X148438768Y-60470049D01*
X148524386Y-60686846D01*
X148645307Y-60886119D01*
X148648802Y-60890147D01*
X148648803Y-60890148D01*
X148792784Y-61056070D01*
X148798076Y-61062169D01*
X148802207Y-61065556D01*
X148974194Y-61206578D01*
X148974200Y-61206582D01*
X148978322Y-61209962D01*
X148982960Y-61212602D01*
X149022092Y-61234877D01*
X149071398Y-61285959D01*
X149085260Y-61355589D01*
X149059277Y-61421660D01*
X149030129Y-61448897D01*
X148895342Y-61539641D01*
X148891485Y-61543320D01*
X148891483Y-61543322D01*
X148884156Y-61550312D01*
X148726684Y-61700533D01*
X148587546Y-61887541D01*
X148481906Y-62095320D01*
X148412784Y-62317927D01*
X148412083Y-62323216D01*
X148384380Y-62532236D01*
X148382158Y-62548997D01*
X124468085Y-62548997D01*
X124490449Y-62532236D01*
X124503010Y-62519675D01*
X124579511Y-62417600D01*
X124588049Y-62402005D01*
X124633203Y-62281557D01*
X124636830Y-62266302D01*
X124642356Y-62215437D01*
X124642725Y-62208623D01*
X124642725Y-61636066D01*
X124638250Y-61620827D01*
X124636860Y-61619622D01*
X124629177Y-61617951D01*
X123606840Y-61617951D01*
X123591601Y-61622426D01*
X123590396Y-61623816D01*
X123588725Y-61631499D01*
X123588725Y-62653835D01*
X123080725Y-62653835D01*
X123080725Y-61636066D01*
X123076250Y-61620827D01*
X123074860Y-61619622D01*
X123067177Y-61617951D01*
X122044840Y-61617951D01*
X122029601Y-61622426D01*
X122028396Y-61623816D01*
X122026725Y-61631499D01*
X118407403Y-61631499D01*
X114939856Y-58163951D01*
X118179353Y-58163951D01*
X118199308Y-58392038D01*
X118200732Y-58397351D01*
X118200732Y-58397353D01*
X118253075Y-58592696D01*
X118258567Y-58613194D01*
X118260890Y-58618175D01*
X118260890Y-58618176D01*
X118353002Y-58815713D01*
X118353005Y-58815718D01*
X118355328Y-58820700D01*
X118401118Y-58886095D01*
X118474686Y-58991160D01*
X118486653Y-59008251D01*
X118648551Y-59170149D01*
X118653059Y-59173306D01*
X118653062Y-59173308D01*
X118756727Y-59245895D01*
X118836102Y-59301474D01*
X118837342Y-59302052D01*
X118885453Y-59352512D01*
X118898888Y-59422226D01*
X118895166Y-59442857D01*
X118874621Y-59519531D01*
X118870245Y-59535864D01*
X118850290Y-59763951D01*
X118870245Y-59992038D01*
X118871669Y-59997351D01*
X118871669Y-59997353D01*
X118925958Y-60199959D01*
X118929504Y-60213194D01*
X118931827Y-60218175D01*
X118931827Y-60218176D01*
X119023939Y-60415713D01*
X119023942Y-60415718D01*
X119026265Y-60420700D01*
X119066118Y-60477616D01*
X119149750Y-60597054D01*
X119157590Y-60608251D01*
X119319488Y-60770149D01*
X119323996Y-60773306D01*
X119323999Y-60773308D01*
X119355790Y-60795568D01*
X119507039Y-60901474D01*
X119512021Y-60903797D01*
X119512026Y-60903800D01*
X119691161Y-60987331D01*
X119714545Y-60998235D01*
X119719853Y-60999657D01*
X119719855Y-60999658D01*
X119930386Y-61056070D01*
X119930388Y-61056070D01*
X119935701Y-61057494D01*
X120163788Y-61077449D01*
X120391875Y-61057494D01*
X120397188Y-61056070D01*
X120397190Y-61056070D01*
X120607721Y-60999658D01*
X120607723Y-60999657D01*
X120613031Y-60998235D01*
X120636415Y-60987331D01*
X120815550Y-60903800D01*
X120815555Y-60903797D01*
X120820537Y-60901474D01*
X120971786Y-60795568D01*
X121003577Y-60773308D01*
X121003580Y-60773306D01*
X121008088Y-60770149D01*
X121154208Y-60624029D01*
X121216520Y-60590003D01*
X121287335Y-60595068D01*
X121344171Y-60637615D01*
X121361471Y-60674557D01*
X121362536Y-60674158D01*
X121410464Y-60802005D01*
X121419002Y-60817600D01*
X121495503Y-60919675D01*
X121508064Y-60932236D01*
X121610139Y-61008737D01*
X121625734Y-61017275D01*
X121746182Y-61062429D01*
X121761437Y-61066056D01*
X121812302Y-61071582D01*
X121819116Y-61071951D01*
X121943669Y-61071951D01*
X122011790Y-61091953D01*
X122026182Y-61102727D01*
X122032590Y-61108280D01*
X122040273Y-61109951D01*
X122391673Y-61109951D01*
X122406912Y-61105476D01*
X122408117Y-61104086D01*
X122409788Y-61096403D01*
X122409788Y-61091836D01*
X122917788Y-61091836D01*
X122922263Y-61107075D01*
X122923653Y-61108280D01*
X122931336Y-61109951D01*
X123062610Y-61109951D01*
X123077849Y-61105476D01*
X123079054Y-61104086D01*
X123080725Y-61096403D01*
X123080725Y-61091836D01*
X123588725Y-61091836D01*
X123593200Y-61107075D01*
X123594590Y-61108280D01*
X123602273Y-61109951D01*
X124624609Y-61109951D01*
X124639848Y-61105476D01*
X124641053Y-61104086D01*
X124642724Y-61096403D01*
X124642724Y-60519282D01*
X124642354Y-60512461D01*
X124636830Y-60461599D01*
X124633204Y-60446347D01*
X124588049Y-60325897D01*
X124579511Y-60310302D01*
X124503010Y-60208227D01*
X124490449Y-60195666D01*
X124388374Y-60119165D01*
X124372779Y-60110627D01*
X124252331Y-60065473D01*
X124237076Y-60061846D01*
X124186211Y-60056320D01*
X124179397Y-60055951D01*
X124054844Y-60055951D01*
X123986723Y-60035949D01*
X123972331Y-60025175D01*
X123965923Y-60019622D01*
X123958240Y-60017951D01*
X123606840Y-60017951D01*
X123591601Y-60022426D01*
X123590396Y-60023816D01*
X123588725Y-60031499D01*
X123588725Y-61091836D01*
X123080725Y-61091836D01*
X123080725Y-60036066D01*
X123076250Y-60020827D01*
X123074860Y-60019622D01*
X123067177Y-60017951D01*
X122935903Y-60017951D01*
X122920664Y-60022426D01*
X122919459Y-60023816D01*
X122917788Y-60031499D01*
X122917788Y-61091836D01*
X122409788Y-61091836D01*
X122409788Y-59556603D01*
X131199802Y-59556603D01*
X131199803Y-60133724D01*
X131200173Y-60140545D01*
X131205697Y-60191407D01*
X131209323Y-60206659D01*
X131254478Y-60327109D01*
X131263016Y-60342704D01*
X131339517Y-60444779D01*
X131352078Y-60457340D01*
X131454153Y-60533841D01*
X131469748Y-60542379D01*
X131590196Y-60587533D01*
X131605451Y-60591160D01*
X131656316Y-60596686D01*
X131663130Y-60597055D01*
X132235687Y-60597055D01*
X132250926Y-60592580D01*
X132252131Y-60591190D01*
X132253802Y-60583507D01*
X132253802Y-60578939D01*
X132761802Y-60578939D01*
X132766277Y-60594178D01*
X132767667Y-60595383D01*
X132775350Y-60597054D01*
X133352471Y-60597054D01*
X133359292Y-60596684D01*
X133410154Y-60591160D01*
X133425406Y-60587534D01*
X133545856Y-60542379D01*
X133561451Y-60533841D01*
X133663526Y-60457340D01*
X133676087Y-60444779D01*
X133752588Y-60342704D01*
X133761126Y-60327109D01*
X133809054Y-60199262D01*
X133810914Y-60199959D01*
X133840933Y-60147427D01*
X133903892Y-60114613D01*
X133974596Y-60121047D01*
X134017383Y-60149134D01*
X134163502Y-60295253D01*
X134168010Y-60298410D01*
X134168013Y-60298412D01*
X134271678Y-60370999D01*
X134351053Y-60426578D01*
X134352293Y-60427156D01*
X134400404Y-60477616D01*
X134413839Y-60547330D01*
X134410117Y-60567961D01*
X134398277Y-60612148D01*
X134385196Y-60660968D01*
X134365241Y-60889055D01*
X134385196Y-61117142D01*
X134386620Y-61122455D01*
X134386620Y-61122457D01*
X134440965Y-61325272D01*
X134444455Y-61338298D01*
X134446778Y-61343279D01*
X134446778Y-61343280D01*
X134538890Y-61540817D01*
X134538893Y-61540822D01*
X134541216Y-61545804D01*
X134604418Y-61636066D01*
X134649559Y-61700533D01*
X134672541Y-61733355D01*
X134834439Y-61895253D01*
X134838947Y-61898410D01*
X134838950Y-61898412D01*
X134917128Y-61953153D01*
X135021990Y-62026578D01*
X135026972Y-62028901D01*
X135026977Y-62028904D01*
X135180341Y-62100418D01*
X135229496Y-62123339D01*
X135234804Y-62124761D01*
X135234806Y-62124762D01*
X135445337Y-62181174D01*
X135445339Y-62181174D01*
X135450652Y-62182598D01*
X135678739Y-62202553D01*
X135906826Y-62182598D01*
X135912139Y-62181174D01*
X135912141Y-62181174D01*
X136122672Y-62124762D01*
X136122674Y-62124761D01*
X136127982Y-62123339D01*
X136177137Y-62100418D01*
X136330501Y-62028904D01*
X136330506Y-62028901D01*
X136335488Y-62026578D01*
X136440350Y-61953153D01*
X136518528Y-61898412D01*
X136518531Y-61898410D01*
X136523039Y-61895253D01*
X136684937Y-61733355D01*
X136707920Y-61700533D01*
X136753060Y-61636066D01*
X136816262Y-61545804D01*
X136818585Y-61540822D01*
X136818588Y-61540817D01*
X136910700Y-61343280D01*
X136910700Y-61343279D01*
X136913023Y-61338298D01*
X136916514Y-61325272D01*
X136970858Y-61122457D01*
X136970858Y-61122455D01*
X136972282Y-61117142D01*
X136992237Y-60889055D01*
X136972282Y-60660968D01*
X136959201Y-60612148D01*
X136914446Y-60445122D01*
X136914445Y-60445120D01*
X136913023Y-60439812D01*
X136847088Y-60298412D01*
X136818588Y-60237293D01*
X136818585Y-60237288D01*
X136816262Y-60232306D01*
X136699444Y-60065473D01*
X136688096Y-60049266D01*
X136688094Y-60049263D01*
X136684937Y-60044755D01*
X136523039Y-59882857D01*
X136518531Y-59879700D01*
X136518528Y-59879698D01*
X136339992Y-59754686D01*
X136335488Y-59751532D01*
X136334248Y-59750954D01*
X136286137Y-59700494D01*
X136272702Y-59630780D01*
X136276424Y-59610149D01*
X136299921Y-59522457D01*
X136299921Y-59522455D01*
X136301345Y-59517142D01*
X136321300Y-59289055D01*
X136301345Y-59060968D01*
X136290930Y-59022098D01*
X136243509Y-58845122D01*
X136243508Y-58845120D01*
X136242086Y-58839812D01*
X136203822Y-58757753D01*
X136147651Y-58637293D01*
X136147648Y-58637288D01*
X136145325Y-58632306D01*
X136060124Y-58510627D01*
X136017159Y-58449266D01*
X136017157Y-58449263D01*
X136014000Y-58444755D01*
X135852102Y-58282857D01*
X135847594Y-58279700D01*
X135847591Y-58279698D01*
X135755095Y-58214932D01*
X135664551Y-58151532D01*
X135659569Y-58149209D01*
X135659564Y-58149206D01*
X135462027Y-58057094D01*
X135462026Y-58057094D01*
X135457045Y-58054771D01*
X135451737Y-58053349D01*
X135451735Y-58053348D01*
X135241204Y-57996936D01*
X135241202Y-57996936D01*
X135235889Y-57995512D01*
X135007802Y-57975557D01*
X134779715Y-57995512D01*
X134774402Y-57996936D01*
X134774400Y-57996936D01*
X134563869Y-58053348D01*
X134563867Y-58053349D01*
X134558559Y-58054771D01*
X134553578Y-58057094D01*
X134553577Y-58057094D01*
X134356040Y-58149206D01*
X134356035Y-58149209D01*
X134351053Y-58151532D01*
X134260509Y-58214932D01*
X134168013Y-58279698D01*
X134168010Y-58279700D01*
X134163502Y-58282857D01*
X134017382Y-58428977D01*
X133955070Y-58463003D01*
X133884255Y-58457938D01*
X133827419Y-58415391D01*
X133810119Y-58378449D01*
X133809054Y-58378848D01*
X133761126Y-58251001D01*
X133752588Y-58235406D01*
X133676087Y-58133331D01*
X133663526Y-58120770D01*
X133561451Y-58044269D01*
X133545856Y-58035731D01*
X133425408Y-57990577D01*
X133410153Y-57986950D01*
X133359288Y-57981424D01*
X133352474Y-57981055D01*
X133227921Y-57981055D01*
X133159800Y-57961053D01*
X133145408Y-57950279D01*
X133139000Y-57944726D01*
X133131317Y-57943055D01*
X132779917Y-57943055D01*
X132764678Y-57947530D01*
X132763473Y-57948920D01*
X132761802Y-57956603D01*
X132761802Y-60578939D01*
X132253802Y-60578939D01*
X132253802Y-59561170D01*
X132249327Y-59545931D01*
X132247937Y-59544726D01*
X132240254Y-59543055D01*
X131217917Y-59543055D01*
X131202678Y-59547530D01*
X131201473Y-59548920D01*
X131199802Y-59556603D01*
X122409788Y-59556603D01*
X122409788Y-59491836D01*
X122917788Y-59491836D01*
X122922263Y-59507075D01*
X122923653Y-59508280D01*
X122931336Y-59509951D01*
X123953673Y-59509951D01*
X123968912Y-59505476D01*
X123970117Y-59504086D01*
X123971788Y-59496403D01*
X123971787Y-58919282D01*
X123971417Y-58912461D01*
X123965893Y-58861599D01*
X123962267Y-58846347D01*
X123917112Y-58725897D01*
X123908574Y-58710302D01*
X123832073Y-58608227D01*
X123819512Y-58595666D01*
X123736863Y-58533724D01*
X130528866Y-58533724D01*
X130529236Y-58540545D01*
X130534760Y-58591407D01*
X130538386Y-58606659D01*
X130583541Y-58727109D01*
X130592079Y-58742704D01*
X130668580Y-58844779D01*
X130681141Y-58857340D01*
X130783216Y-58933841D01*
X130798811Y-58942379D01*
X130919259Y-58987533D01*
X130934514Y-58991160D01*
X130985379Y-58996686D01*
X130992193Y-58997055D01*
X131116746Y-58997055D01*
X131184867Y-59017057D01*
X131199259Y-59027831D01*
X131205667Y-59033384D01*
X131213350Y-59035055D01*
X131564750Y-59035055D01*
X131579989Y-59030580D01*
X131581194Y-59029190D01*
X131582865Y-59021507D01*
X131582865Y-59016940D01*
X132090865Y-59016940D01*
X132095340Y-59032179D01*
X132096730Y-59033384D01*
X132104413Y-59035055D01*
X132235687Y-59035055D01*
X132250926Y-59030580D01*
X132252131Y-59029190D01*
X132253802Y-59021507D01*
X132253802Y-57961170D01*
X132249327Y-57945931D01*
X132247937Y-57944726D01*
X132240254Y-57943055D01*
X132108980Y-57943055D01*
X132093741Y-57947530D01*
X132092536Y-57948920D01*
X132090865Y-57956603D01*
X132090865Y-59016940D01*
X131582865Y-59016940D01*
X131582865Y-57961170D01*
X131578390Y-57945931D01*
X131577000Y-57944726D01*
X131569317Y-57943055D01*
X130546981Y-57943055D01*
X130531742Y-57947530D01*
X130530537Y-57948920D01*
X130528866Y-57956603D01*
X130528866Y-58533724D01*
X123736863Y-58533724D01*
X123717437Y-58519165D01*
X123701842Y-58510627D01*
X123581394Y-58465473D01*
X123566139Y-58461846D01*
X123515274Y-58456320D01*
X123508460Y-58455951D01*
X122935903Y-58455951D01*
X122920664Y-58460426D01*
X122919459Y-58461816D01*
X122917788Y-58469499D01*
X122917788Y-59491836D01*
X122409788Y-59491836D01*
X122409788Y-58474067D01*
X122405313Y-58458828D01*
X122403923Y-58457623D01*
X122396240Y-58455952D01*
X121819119Y-58455952D01*
X121812298Y-58456322D01*
X121761436Y-58461846D01*
X121746184Y-58465472D01*
X121625734Y-58510627D01*
X121610139Y-58519165D01*
X121508064Y-58595666D01*
X121495503Y-58608227D01*
X121419002Y-58710302D01*
X121410464Y-58725897D01*
X121362536Y-58853744D01*
X121360676Y-58853047D01*
X121330657Y-58905579D01*
X121267698Y-58938393D01*
X121196994Y-58931959D01*
X121154207Y-58903872D01*
X121008088Y-58757753D01*
X121003580Y-58754596D01*
X121003577Y-58754594D01*
X120839778Y-58639901D01*
X120820537Y-58626428D01*
X120819297Y-58625850D01*
X120771186Y-58575390D01*
X120757751Y-58505676D01*
X120761473Y-58485045D01*
X120784970Y-58397353D01*
X120784970Y-58397351D01*
X120786394Y-58392038D01*
X120806349Y-58163951D01*
X120786394Y-57935864D01*
X120758319Y-57831088D01*
X120728558Y-57720018D01*
X120728557Y-57720016D01*
X120727135Y-57714708D01*
X120709758Y-57677443D01*
X120632700Y-57512189D01*
X120632697Y-57512184D01*
X120630374Y-57507202D01*
X120567172Y-57416940D01*
X130528865Y-57416940D01*
X130533340Y-57432179D01*
X130534730Y-57433384D01*
X130542413Y-57435055D01*
X131564750Y-57435055D01*
X131579989Y-57430580D01*
X131581194Y-57429190D01*
X131582865Y-57421507D01*
X131582865Y-57416940D01*
X132090865Y-57416940D01*
X132095340Y-57432179D01*
X132096730Y-57433384D01*
X132104413Y-57435055D01*
X133126750Y-57435055D01*
X133141989Y-57430580D01*
X133143194Y-57429190D01*
X133144865Y-57421507D01*
X133144865Y-57261817D01*
X148386094Y-57261817D01*
X148390569Y-57277056D01*
X148391959Y-57278261D01*
X148399642Y-57279932D01*
X149636979Y-57279932D01*
X149652218Y-57275457D01*
X149653423Y-57274067D01*
X149655094Y-57266384D01*
X149655094Y-57261817D01*
X150163094Y-57261817D01*
X150167569Y-57277056D01*
X150168959Y-57278261D01*
X150176642Y-57279932D01*
X151413978Y-57279932D01*
X151429217Y-57275457D01*
X151430422Y-57274067D01*
X151432093Y-57266384D01*
X151432093Y-56624263D01*
X151431723Y-56617442D01*
X151426199Y-56566580D01*
X151422573Y-56551328D01*
X151377418Y-56430878D01*
X151368880Y-56415283D01*
X151292379Y-56313208D01*
X151279818Y-56300647D01*
X151177743Y-56224146D01*
X151162148Y-56215608D01*
X151041700Y-56170454D01*
X151026445Y-56166827D01*
X150975580Y-56161301D01*
X150968766Y-56160932D01*
X150181209Y-56160932D01*
X150165970Y-56165407D01*
X150164765Y-56166797D01*
X150163094Y-56174480D01*
X150163094Y-57261817D01*
X149655094Y-57261817D01*
X149655094Y-56179048D01*
X149650619Y-56163809D01*
X149649229Y-56162604D01*
X149641546Y-56160933D01*
X148849425Y-56160933D01*
X148842604Y-56161303D01*
X148791742Y-56166827D01*
X148776490Y-56170453D01*
X148656040Y-56215608D01*
X148640445Y-56224146D01*
X148538370Y-56300647D01*
X148525809Y-56313208D01*
X148449308Y-56415283D01*
X148440770Y-56430878D01*
X148395616Y-56551326D01*
X148391989Y-56566581D01*
X148386463Y-56617446D01*
X148386094Y-56624260D01*
X148386094Y-57261817D01*
X133144865Y-57261817D01*
X133144864Y-56844386D01*
X133144494Y-56837565D01*
X133138970Y-56786703D01*
X133135344Y-56771451D01*
X133090189Y-56651001D01*
X133081651Y-56635406D01*
X133005150Y-56533331D01*
X132992589Y-56520770D01*
X132890514Y-56444269D01*
X132874919Y-56435731D01*
X132754471Y-56390577D01*
X132739216Y-56386950D01*
X132688351Y-56381424D01*
X132681537Y-56381055D01*
X132108980Y-56381055D01*
X132093741Y-56385530D01*
X132092536Y-56386920D01*
X132090865Y-56394603D01*
X132090865Y-57416940D01*
X131582865Y-57416940D01*
X131582865Y-56399171D01*
X131578390Y-56383932D01*
X131577000Y-56382727D01*
X131569317Y-56381056D01*
X130992196Y-56381056D01*
X130985375Y-56381426D01*
X130934513Y-56386950D01*
X130919261Y-56390576D01*
X130798811Y-56435731D01*
X130783216Y-56444269D01*
X130681141Y-56520770D01*
X130668580Y-56533331D01*
X130592079Y-56635406D01*
X130583541Y-56651001D01*
X130538387Y-56771449D01*
X130534760Y-56786704D01*
X130529234Y-56837569D01*
X130528865Y-56844383D01*
X130528865Y-57416940D01*
X120567172Y-57416940D01*
X120499049Y-57319651D01*
X120337151Y-57157753D01*
X120332643Y-57154596D01*
X120332640Y-57154594D01*
X120238045Y-57088358D01*
X120149600Y-57026428D01*
X120144618Y-57024105D01*
X120144613Y-57024102D01*
X119947076Y-56931990D01*
X119947075Y-56931990D01*
X119942094Y-56929667D01*
X119936786Y-56928245D01*
X119936784Y-56928244D01*
X119726253Y-56871832D01*
X119726251Y-56871832D01*
X119720938Y-56870408D01*
X119492851Y-56850453D01*
X119264764Y-56870408D01*
X119259451Y-56871832D01*
X119259449Y-56871832D01*
X119048918Y-56928244D01*
X119048916Y-56928245D01*
X119043608Y-56929667D01*
X119038627Y-56931990D01*
X119038626Y-56931990D01*
X118841089Y-57024102D01*
X118841084Y-57024105D01*
X118836102Y-57026428D01*
X118747657Y-57088358D01*
X118653062Y-57154594D01*
X118653059Y-57154596D01*
X118648551Y-57157753D01*
X118486653Y-57319651D01*
X118355328Y-57507202D01*
X118353005Y-57512184D01*
X118353002Y-57512189D01*
X118275944Y-57677443D01*
X118258567Y-57714708D01*
X118257145Y-57720016D01*
X118257144Y-57720018D01*
X118227383Y-57831088D01*
X118199308Y-57935864D01*
X118179353Y-58163951D01*
X114939856Y-58163951D01*
X113143434Y-56367529D01*
X113135894Y-56359243D01*
X113131782Y-56352764D01*
X113105816Y-56328380D01*
X113082131Y-56306139D01*
X113079289Y-56303384D01*
X113059552Y-56283647D01*
X113056355Y-56281167D01*
X113047333Y-56273462D01*
X113043179Y-56269561D01*
X113015103Y-56243196D01*
X113008157Y-56239377D01*
X113008154Y-56239375D01*
X112997348Y-56233434D01*
X112980829Y-56222583D01*
X112971836Y-56215608D01*
X112964823Y-56210168D01*
X112957554Y-56207023D01*
X112957550Y-56207020D01*
X112924245Y-56192608D01*
X112913595Y-56187391D01*
X112874842Y-56166087D01*
X112855219Y-56161049D01*
X112836516Y-56154645D01*
X112825202Y-56149749D01*
X112825201Y-56149749D01*
X112817927Y-56146601D01*
X112810104Y-56145362D01*
X112810094Y-56145359D01*
X112774258Y-56139683D01*
X112762638Y-56137277D01*
X112727493Y-56128254D01*
X112727492Y-56128254D01*
X112719812Y-56126282D01*
X112699558Y-56126282D01*
X112679847Y-56124731D01*
X112667668Y-56122802D01*
X112659839Y-56121562D01*
X112630568Y-56124329D01*
X112615821Y-56125723D01*
X112603963Y-56126282D01*
X109661200Y-56126282D01*
X109650017Y-56125755D01*
X109642524Y-56124080D01*
X109634598Y-56124329D01*
X109634597Y-56124329D01*
X109574434Y-56126220D01*
X109570476Y-56126282D01*
X109542576Y-56126282D01*
X109538586Y-56126786D01*
X109526752Y-56127718D01*
X109482543Y-56129108D01*
X109474927Y-56131321D01*
X109474925Y-56131321D01*
X109463084Y-56134761D01*
X109443725Y-56138770D01*
X109442415Y-56138936D01*
X109423635Y-56141308D01*
X109416269Y-56144224D01*
X109416263Y-56144226D01*
X109382530Y-56157582D01*
X109371300Y-56161427D01*
X109336449Y-56171552D01*
X109328839Y-56173763D01*
X109322016Y-56177798D01*
X109311398Y-56184077D01*
X109293645Y-56192774D01*
X109286000Y-56195801D01*
X109274815Y-56200230D01*
X109261137Y-56210168D01*
X109239044Y-56226219D01*
X109229127Y-56232733D01*
X109191070Y-56255240D01*
X109176749Y-56269561D01*
X109161716Y-56282401D01*
X109145325Y-56294310D01*
X109140275Y-56300414D01*
X109140270Y-56300419D01*
X109117139Y-56328380D01*
X109109149Y-56337161D01*
X108620606Y-56825703D01*
X108558294Y-56859728D01*
X108531511Y-56862607D01*
X108475620Y-56862607D01*
X108469168Y-56863979D01*
X108469163Y-56863979D01*
X108382220Y-56882460D01*
X108288819Y-56902313D01*
X108282789Y-56904998D01*
X108282788Y-56904998D01*
X108120385Y-56977304D01*
X108120383Y-56977305D01*
X108114355Y-56979989D01*
X107959854Y-57092241D01*
X107832067Y-57234163D01*
X107808226Y-57275457D01*
X107758805Y-57361057D01*
X107736580Y-57399551D01*
X107677565Y-57581179D01*
X107657603Y-57771107D01*
X107658293Y-57777672D01*
X107676435Y-57950279D01*
X107677565Y-57961035D01*
X107736580Y-58142663D01*
X107739883Y-58148385D01*
X107739884Y-58148386D01*
X107743523Y-58154689D01*
X107832067Y-58308051D01*
X107836485Y-58312958D01*
X107836486Y-58312959D01*
X107928716Y-58415391D01*
X107959854Y-58449973D01*
X108114355Y-58562225D01*
X108120383Y-58564909D01*
X108120385Y-58564910D01*
X108282788Y-58637216D01*
X108288819Y-58639901D01*
X108382219Y-58659754D01*
X108469163Y-58678235D01*
X108469168Y-58678235D01*
X108475620Y-58679607D01*
X108666594Y-58679607D01*
X108673046Y-58678235D01*
X108673051Y-58678235D01*
X108759995Y-58659754D01*
X108853395Y-58639901D01*
X108859426Y-58637216D01*
X109021829Y-58564910D01*
X109021831Y-58564909D01*
X109027859Y-58562225D01*
X109112925Y-58500421D01*
X109179791Y-58476563D01*
X109248943Y-58492643D01*
X109261041Y-58500418D01*
X109306883Y-58533724D01*
X109361820Y-58573638D01*
X109384355Y-58590011D01*
X109390383Y-58592695D01*
X109390385Y-58592696D01*
X109524890Y-58652581D01*
X109558819Y-58667687D01*
X109652220Y-58687540D01*
X109739163Y-58706021D01*
X109739168Y-58706021D01*
X109745620Y-58707393D01*
X109936594Y-58707393D01*
X109943046Y-58706021D01*
X109943051Y-58706021D01*
X110029994Y-58687540D01*
X110123395Y-58667687D01*
X110157324Y-58652581D01*
X110291829Y-58592696D01*
X110291831Y-58592695D01*
X110297859Y-58590011D01*
X110320395Y-58573638D01*
X110395370Y-58519165D01*
X110452360Y-58477759D01*
X110481801Y-58445062D01*
X110510363Y-58413340D01*
X110570809Y-58376100D01*
X110641792Y-58377452D01*
X110700777Y-58416965D01*
X110713118Y-58434650D01*
X110731222Y-58466008D01*
X110731225Y-58466013D01*
X110734524Y-58471726D01*
X110738942Y-58476633D01*
X110738943Y-58476634D01*
X110841028Y-58590011D01*
X110862311Y-58613648D01*
X110951207Y-58678235D01*
X111002048Y-58715173D01*
X111016812Y-58725900D01*
X111022840Y-58728584D01*
X111022842Y-58728585D01*
X111185245Y-58800891D01*
X111191276Y-58803576D01*
X111271838Y-58820700D01*
X111371620Y-58841910D01*
X111371625Y-58841910D01*
X111378077Y-58843282D01*
X111433970Y-58843282D01*
X111502091Y-58863284D01*
X111523065Y-58880187D01*
X118655299Y-66012421D01*
X118662843Y-66020711D01*
X118666956Y-66027192D01*
X118712858Y-66070296D01*
X118716623Y-66073832D01*
X118719465Y-66076587D01*
X118739187Y-66096309D01*
X118742311Y-66098732D01*
X118742315Y-66098736D01*
X118742380Y-66098786D01*
X118751401Y-66106491D01*
X118763606Y-66117952D01*
X118799572Y-66179164D01*
X118796735Y-66250104D01*
X118755995Y-66308249D01*
X118690287Y-66335137D01*
X118677354Y-66335803D01*
X113732420Y-66335803D01*
X113664299Y-66315801D01*
X113643325Y-66298898D01*
X104438229Y-57093802D01*
X104404203Y-57031490D01*
X104402014Y-57017877D01*
X104385339Y-56859220D01*
X104385339Y-56859218D01*
X104384649Y-56852657D01*
X104325634Y-56671029D01*
X104294696Y-56617442D01*
X104246134Y-56533331D01*
X104230147Y-56505641D01*
X104174888Y-56444269D01*
X104106782Y-56368630D01*
X104106781Y-56368629D01*
X104102360Y-56363719D01*
X103990437Y-56282402D01*
X103953201Y-56255348D01*
X103953200Y-56255347D01*
X103947859Y-56251467D01*
X103941831Y-56248783D01*
X103941829Y-56248782D01*
X103779426Y-56176476D01*
X103779425Y-56176476D01*
X103773395Y-56173791D01*
X103660287Y-56149749D01*
X103593051Y-56135457D01*
X103593046Y-56135457D01*
X103586594Y-56134085D01*
X103395620Y-56134085D01*
X103389168Y-56135457D01*
X103389163Y-56135457D01*
X103321927Y-56149749D01*
X103208819Y-56173791D01*
X103202789Y-56176476D01*
X103202788Y-56176476D01*
X103040385Y-56248782D01*
X103040383Y-56248783D01*
X103034355Y-56251467D01*
X103029014Y-56255347D01*
X103029013Y-56255348D01*
X102991777Y-56282402D01*
X102879854Y-56363719D01*
X102875433Y-56368629D01*
X102875432Y-56368630D01*
X102807327Y-56444269D01*
X102752067Y-56505641D01*
X102736080Y-56533331D01*
X102687519Y-56617442D01*
X102656580Y-56671029D01*
X102597565Y-56852657D01*
X102596875Y-56859218D01*
X102596875Y-56859220D01*
X102589471Y-56929667D01*
X102577603Y-57042585D01*
X102578293Y-57049150D01*
X102596304Y-57220515D01*
X102583532Y-57290353D01*
X102535030Y-57342200D01*
X102470994Y-57359685D01*
X102449363Y-57359685D01*
X102442911Y-57361057D01*
X102442906Y-57361057D01*
X102355963Y-57379538D01*
X102262562Y-57399391D01*
X102256532Y-57402076D01*
X102256531Y-57402076D01*
X102094128Y-57474382D01*
X102094126Y-57474383D01*
X102088098Y-57477067D01*
X102082757Y-57480947D01*
X102082756Y-57480948D01*
X102046621Y-57507202D01*
X101933597Y-57589319D01*
X101929176Y-57594229D01*
X101929175Y-57594230D01*
X101887781Y-57640203D01*
X101827335Y-57677443D01*
X101756352Y-57676091D01*
X101700509Y-57640203D01*
X101605255Y-57534412D01*
X101605254Y-57534411D01*
X101600833Y-57529501D01*
X101466881Y-57432179D01*
X101451674Y-57421130D01*
X101451673Y-57421129D01*
X101446332Y-57417249D01*
X101440304Y-57414565D01*
X101440302Y-57414564D01*
X101277899Y-57342258D01*
X101277898Y-57342258D01*
X101271868Y-57339573D01*
X101178143Y-57319651D01*
X101091524Y-57301239D01*
X101091519Y-57301239D01*
X101085067Y-57299867D01*
X100894093Y-57299867D01*
X100887641Y-57301239D01*
X100887636Y-57301239D01*
X100801017Y-57319651D01*
X100707292Y-57339573D01*
X100701262Y-57342258D01*
X100701261Y-57342258D01*
X100538858Y-57414564D01*
X100538856Y-57414565D01*
X100532828Y-57417249D01*
X100527487Y-57421129D01*
X100527486Y-57421130D01*
X100512279Y-57432179D01*
X100378327Y-57529501D01*
X100373906Y-57534411D01*
X100373905Y-57534412D01*
X100278651Y-57640203D01*
X100250540Y-57671423D01*
X100155053Y-57836811D01*
X100096038Y-58018439D01*
X100095348Y-58025000D01*
X100095348Y-58025002D01*
X100081718Y-58154689D01*
X100076076Y-58208367D01*
X100096038Y-58398295D01*
X100155053Y-58579923D01*
X100158356Y-58585645D01*
X100158357Y-58585646D01*
X100164142Y-58595666D01*
X100250540Y-58745311D01*
X100254958Y-58750218D01*
X100254959Y-58750219D01*
X100347546Y-58853047D01*
X100378327Y-58887233D01*
X100454229Y-58942379D01*
X100521370Y-58991160D01*
X100532828Y-58999485D01*
X100538856Y-59002169D01*
X100538858Y-59002170D01*
X100682857Y-59066282D01*
X100707292Y-59077161D01*
X100800692Y-59097014D01*
X100887636Y-59115495D01*
X100887641Y-59115495D01*
X100894093Y-59116867D01*
X100949986Y-59116867D01*
X101018107Y-59136869D01*
X101039081Y-59153772D01*
X101270741Y-59385432D01*
X101278285Y-59393722D01*
X101282398Y-59400203D01*
X101288175Y-59405628D01*
X101332065Y-59446843D01*
X101334907Y-59449598D01*
X101354628Y-59469319D01*
X101357823Y-59471797D01*
X101366845Y-59479503D01*
X101399077Y-59509771D01*
X101406026Y-59513591D01*
X101416830Y-59519531D01*
X101433354Y-59530384D01*
X101449357Y-59542798D01*
X101489941Y-59560361D01*
X101500571Y-59565568D01*
X101539338Y-59586880D01*
X101547015Y-59588851D01*
X101547020Y-59588853D01*
X101558956Y-59591917D01*
X101577664Y-59598322D01*
X101596253Y-59606366D01*
X101604081Y-59607606D01*
X101604088Y-59607608D01*
X101639922Y-59613284D01*
X101651542Y-59615690D01*
X101686687Y-59624713D01*
X101694368Y-59626685D01*
X101714622Y-59626685D01*
X101734332Y-59628236D01*
X101754341Y-59631405D01*
X101762233Y-59630659D01*
X101798359Y-59627244D01*
X101810217Y-59626685D01*
X103854321Y-59626685D01*
X103922442Y-59646687D01*
X103943416Y-59663590D01*
X106934333Y-62654507D01*
X106968359Y-62716819D01*
X106971238Y-62743602D01*
X106971238Y-64129075D01*
X106951236Y-64197196D01*
X106897580Y-64243689D01*
X106827306Y-64253793D01*
X106762726Y-64224299D01*
X106726247Y-64170512D01*
X106684996Y-64052055D01*
X106683083Y-64048064D01*
X106675378Y-64041214D01*
X106666327Y-64045210D01*
X106354791Y-64356747D01*
X106347180Y-64370685D01*
X106347312Y-64372521D01*
X106351561Y-64379133D01*
X106663729Y-64691302D01*
X106676108Y-64698061D01*
X106679924Y-64695205D01*
X106727450Y-64570091D01*
X106770339Y-64513513D01*
X106837007Y-64489104D01*
X106906289Y-64504614D01*
X106956188Y-64555118D01*
X106971238Y-64614835D01*
X106971238Y-65654075D01*
X106951236Y-65722196D01*
X106897580Y-65768689D01*
X106827306Y-65778793D01*
X106762726Y-65749299D01*
X106726247Y-65695512D01*
X106684996Y-65577055D01*
X106683083Y-65573064D01*
X106675378Y-65566214D01*
X106666327Y-65570210D01*
X106354791Y-65881747D01*
X106347180Y-65895685D01*
X106347312Y-65897521D01*
X106351561Y-65904133D01*
X106663729Y-66216302D01*
X106676108Y-66223061D01*
X106679924Y-66220205D01*
X106727450Y-66095091D01*
X106770339Y-66038513D01*
X106837007Y-66014104D01*
X106906289Y-66029614D01*
X106956188Y-66080118D01*
X106971238Y-66139835D01*
X106971238Y-74625601D01*
X106951236Y-74693722D01*
X106897580Y-74740215D01*
X106827306Y-74750319D01*
X106762726Y-74720825D01*
X106756143Y-74714696D01*
X106144382Y-74102934D01*
X105382514Y-73341066D01*
X105348488Y-73278754D01*
X105345609Y-73251971D01*
X105345609Y-72748237D01*
X105346136Y-72737054D01*
X105347811Y-72729561D01*
X105345671Y-72661470D01*
X105345609Y-72657513D01*
X105345609Y-72629614D01*
X105345105Y-72625623D01*
X105344172Y-72613781D01*
X105343975Y-72607488D01*
X105342783Y-72569581D01*
X105340571Y-72561967D01*
X105340570Y-72561962D01*
X105337132Y-72550129D01*
X105333121Y-72530765D01*
X105331576Y-72518534D01*
X105330583Y-72510673D01*
X105327666Y-72503306D01*
X105327665Y-72503301D01*
X105314307Y-72469562D01*
X105310463Y-72458335D01*
X105300339Y-72423492D01*
X105298127Y-72415877D01*
X105287816Y-72398442D01*
X105279121Y-72380694D01*
X105271661Y-72361853D01*
X105245673Y-72326083D01*
X105239157Y-72316163D01*
X105220689Y-72284935D01*
X105220687Y-72284932D01*
X105216651Y-72278108D01*
X105202330Y-72263787D01*
X105189489Y-72248753D01*
X105182240Y-72238776D01*
X105177581Y-72232363D01*
X105143504Y-72204172D01*
X105134725Y-72196182D01*
X101958358Y-69019814D01*
X101924332Y-68957502D01*
X101922143Y-68943889D01*
X101905468Y-68785232D01*
X101905468Y-68785230D01*
X101904778Y-68778669D01*
X101845763Y-68597041D01*
X101750276Y-68431653D01*
X101622489Y-68289731D01*
X101467988Y-68177479D01*
X101461960Y-68174795D01*
X101461958Y-68174794D01*
X101299555Y-68102488D01*
X101299554Y-68102488D01*
X101293524Y-68099803D01*
X101200124Y-68079950D01*
X101113180Y-68061469D01*
X101113175Y-68061469D01*
X101106723Y-68060097D01*
X100915749Y-68060097D01*
X100909297Y-68061469D01*
X100909292Y-68061469D01*
X100822348Y-68079950D01*
X100728948Y-68099803D01*
X100722918Y-68102488D01*
X100722917Y-68102488D01*
X100560514Y-68174794D01*
X100560512Y-68174795D01*
X100554484Y-68177479D01*
X100399983Y-68289731D01*
X100272196Y-68431653D01*
X100176709Y-68597041D01*
X100117694Y-68778669D01*
X100117004Y-68785230D01*
X100117004Y-68785232D01*
X100100178Y-68945328D01*
X100097732Y-68968597D01*
X100098422Y-68975162D01*
X100114978Y-69132679D01*
X100117694Y-69158525D01*
X100176709Y-69340153D01*
X100272196Y-69505541D01*
X100276614Y-69510448D01*
X100276615Y-69510449D01*
X100395561Y-69642552D01*
X100399983Y-69647463D01*
X100554484Y-69759715D01*
X100560512Y-69762399D01*
X100560514Y-69762400D01*
X100722917Y-69834706D01*
X100728948Y-69837391D01*
X100815856Y-69855864D01*
X100909292Y-69875725D01*
X100909297Y-69875725D01*
X100915749Y-69877097D01*
X100971642Y-69877097D01*
X101039763Y-69897099D01*
X101060737Y-69914002D01*
X101243590Y-70096855D01*
X101277616Y-70159167D01*
X101272551Y-70229982D01*
X101230004Y-70286818D01*
X101205744Y-70301057D01*
X101149278Y-70326197D01*
X101149276Y-70326198D01*
X101143248Y-70328882D01*
X100988747Y-70441134D01*
X100984326Y-70446044D01*
X100984325Y-70446045D01*
X100875203Y-70567238D01*
X100860960Y-70583056D01*
X100831732Y-70633680D01*
X100770255Y-70740162D01*
X100765473Y-70748444D01*
X100706458Y-70930072D01*
X100705768Y-70936633D01*
X100705768Y-70936635D01*
X100689740Y-71089136D01*
X100686496Y-71120000D01*
X100706458Y-71309928D01*
X100765473Y-71491556D01*
X100860960Y-71656944D01*
X100865378Y-71661851D01*
X100865379Y-71661852D01*
X100969220Y-71777179D01*
X100975734Y-71790751D01*
X100975843Y-71790775D01*
X100989519Y-71799427D01*
X101034538Y-71832135D01*
X101143248Y-71911118D01*
X101149276Y-71913802D01*
X101149278Y-71913803D01*
X101293122Y-71977846D01*
X101317712Y-71988794D01*
X101411112Y-72008647D01*
X101498056Y-72027128D01*
X101498061Y-72027128D01*
X101504513Y-72028500D01*
X101560406Y-72028500D01*
X101628527Y-72048502D01*
X101649501Y-72065405D01*
X105406568Y-75822473D01*
X105440594Y-75884785D01*
X105443473Y-75911568D01*
X105443473Y-76196692D01*
X105423471Y-76264813D01*
X105375656Y-76308453D01*
X105350580Y-76321507D01*
X105346447Y-76324610D01*
X105346444Y-76324612D01*
X105231197Y-76411142D01*
X105171938Y-76455635D01*
X105017602Y-76617138D01*
X105014688Y-76621410D01*
X105014687Y-76621411D01*
X104999771Y-76643277D01*
X104891716Y-76801680D01*
X104875976Y-76835590D01*
X104826658Y-76941837D01*
X104797661Y-77004305D01*
X104737962Y-77219570D01*
X104714224Y-77441695D01*
X104714521Y-77446848D01*
X104714521Y-77446851D01*
X104726239Y-77650079D01*
X104727083Y-77664715D01*
X104728220Y-77669761D01*
X104728221Y-77669767D01*
X104733896Y-77694947D01*
X104776195Y-77882639D01*
X104860239Y-78089616D01*
X104901075Y-78156254D01*
X104974264Y-78275688D01*
X104976960Y-78280088D01*
X105123223Y-78448938D01*
X105127198Y-78452238D01*
X105127204Y-78452244D01*
X105132398Y-78456556D01*
X105172032Y-78515460D01*
X105173528Y-78586441D01*
X105136412Y-78646962D01*
X105096141Y-78671480D01*
X104988919Y-78711676D01*
X104973324Y-78720214D01*
X104871249Y-78796715D01*
X104858688Y-78809276D01*
X104782187Y-78911351D01*
X104773649Y-78926946D01*
X104728495Y-79047394D01*
X104724868Y-79062649D01*
X104719342Y-79113514D01*
X104718973Y-79120328D01*
X104718974Y-79806906D01*
X104698972Y-79875027D01*
X104645316Y-79921520D01*
X104575043Y-79931624D01*
X104510462Y-79902131D01*
X104503879Y-79896001D01*
X103938847Y-79330969D01*
X103904821Y-79268657D01*
X103901942Y-79241874D01*
X103901942Y-77777586D01*
X103904174Y-77753977D01*
X103904232Y-77753674D01*
X103904232Y-77753670D01*
X103905717Y-77745887D01*
X103902191Y-77689842D01*
X103901942Y-77681931D01*
X103901942Y-77665937D01*
X103899936Y-77650063D01*
X103899193Y-77642195D01*
X103896165Y-77594056D01*
X103896165Y-77594055D01*
X103895667Y-77586143D01*
X103893121Y-77578306D01*
X103887948Y-77555162D01*
X103887910Y-77554858D01*
X103887909Y-77554853D01*
X103886916Y-77546996D01*
X103884000Y-77539631D01*
X103883999Y-77539627D01*
X103866243Y-77494782D01*
X103863571Y-77487363D01*
X103846206Y-77433918D01*
X103841956Y-77427221D01*
X103841792Y-77426962D01*
X103831027Y-77405835D01*
X103830913Y-77405547D01*
X103830910Y-77405542D01*
X103827994Y-77398176D01*
X103823338Y-77391768D01*
X103823335Y-77391762D01*
X103794984Y-77352741D01*
X103790534Y-77346194D01*
X103760442Y-77298775D01*
X103754435Y-77293134D01*
X103738754Y-77275347D01*
X103738576Y-77275102D01*
X103738574Y-77275100D01*
X103733914Y-77268686D01*
X103727804Y-77263631D01*
X103690646Y-77232890D01*
X103684712Y-77227659D01*
X103649544Y-77194635D01*
X103649541Y-77194633D01*
X103643763Y-77189207D01*
X103636539Y-77185235D01*
X103616936Y-77171912D01*
X103616696Y-77171713D01*
X103616689Y-77171709D01*
X103610586Y-77166660D01*
X103571042Y-77148052D01*
X103559766Y-77142746D01*
X103552734Y-77139164D01*
X103503502Y-77112098D01*
X103495827Y-77110128D01*
X103495821Y-77110125D01*
X103495523Y-77110049D01*
X103473214Y-77102017D01*
X103472939Y-77101887D01*
X103472931Y-77101884D01*
X103465760Y-77098510D01*
X103415672Y-77088956D01*
X103350187Y-77054283D01*
X102270405Y-75974500D01*
X102236379Y-75912188D01*
X102233500Y-75885405D01*
X102233500Y-73738763D01*
X102234027Y-73727579D01*
X102235701Y-73720091D01*
X102233562Y-73652032D01*
X102233500Y-73648075D01*
X102233500Y-73620144D01*
X102232994Y-73616138D01*
X102232061Y-73604292D01*
X102230922Y-73568037D01*
X102230673Y-73560110D01*
X102225022Y-73540658D01*
X102221014Y-73521306D01*
X102219468Y-73509068D01*
X102219467Y-73509066D01*
X102218474Y-73501203D01*
X102202194Y-73460086D01*
X102198359Y-73448885D01*
X102186018Y-73406406D01*
X102181985Y-73399587D01*
X102181983Y-73399582D01*
X102175707Y-73388971D01*
X102167010Y-73371221D01*
X102159552Y-73352383D01*
X102133571Y-73316623D01*
X102127053Y-73306701D01*
X102108578Y-73275460D01*
X102108574Y-73275455D01*
X102104542Y-73268637D01*
X102090218Y-73254313D01*
X102077376Y-73239278D01*
X102065472Y-73222893D01*
X102031406Y-73194711D01*
X102022627Y-73186722D01*
X100826363Y-71990458D01*
X100815398Y-71970377D01*
X100809494Y-71968765D01*
X100786489Y-71950584D01*
X100007122Y-71171217D01*
X99973096Y-71108905D01*
X99970907Y-71095292D01*
X99954232Y-70936635D01*
X99954232Y-70936633D01*
X99953542Y-70930072D01*
X99894527Y-70748444D01*
X99889746Y-70740162D01*
X99828268Y-70633680D01*
X99799040Y-70583056D01*
X99784798Y-70567238D01*
X99675675Y-70446045D01*
X99675674Y-70446044D01*
X99671253Y-70441134D01*
X99516752Y-70328882D01*
X99510724Y-70326198D01*
X99510722Y-70326197D01*
X99348319Y-70253891D01*
X99348318Y-70253891D01*
X99342288Y-70251206D01*
X99247730Y-70231107D01*
X99161944Y-70212872D01*
X99161939Y-70212872D01*
X99155487Y-70211500D01*
X98964513Y-70211500D01*
X98958061Y-70212872D01*
X98958056Y-70212872D01*
X98872270Y-70231107D01*
X98777712Y-70251206D01*
X98771682Y-70253891D01*
X98771681Y-70253891D01*
X98609278Y-70326197D01*
X98609276Y-70326198D01*
X98603248Y-70328882D01*
X98448747Y-70441134D01*
X98444326Y-70446044D01*
X98444325Y-70446045D01*
X98335203Y-70567238D01*
X98320960Y-70583056D01*
X98291732Y-70633680D01*
X98230255Y-70740162D01*
X98225473Y-70748444D01*
X98166458Y-70930072D01*
X98165768Y-70936633D01*
X98165768Y-70936635D01*
X98149740Y-71089136D01*
X98146496Y-71120000D01*
X98166458Y-71309928D01*
X98225473Y-71491556D01*
X98320960Y-71656944D01*
X98325378Y-71661851D01*
X98325379Y-71661852D01*
X98405558Y-71750900D01*
X98448747Y-71798866D01*
X98603248Y-71911118D01*
X98609276Y-71913802D01*
X98609278Y-71913803D01*
X98753122Y-71977846D01*
X98777712Y-71988794D01*
X98871112Y-72008647D01*
X98958056Y-72027128D01*
X98958061Y-72027128D01*
X98964513Y-72028500D01*
X99020406Y-72028500D01*
X99088527Y-72048502D01*
X99109501Y-72065405D01*
X100929595Y-73885499D01*
X100963621Y-73947811D01*
X100966500Y-73974594D01*
X100966500Y-76121233D01*
X100965973Y-76132416D01*
X100964298Y-76139909D01*
X100964547Y-76147835D01*
X100964547Y-76147836D01*
X100966438Y-76207986D01*
X100966500Y-76211945D01*
X100966500Y-76239856D01*
X100966997Y-76243790D01*
X100966997Y-76243791D01*
X100967005Y-76243856D01*
X100967938Y-76255693D01*
X100969327Y-76299889D01*
X100974978Y-76319339D01*
X100978987Y-76338700D01*
X100981526Y-76358797D01*
X100984445Y-76366168D01*
X100984445Y-76366170D01*
X100997804Y-76399912D01*
X101001649Y-76411142D01*
X101013982Y-76453593D01*
X101018015Y-76460412D01*
X101018017Y-76460417D01*
X101024293Y-76471028D01*
X101032988Y-76488776D01*
X101040448Y-76507617D01*
X101045110Y-76514033D01*
X101045110Y-76514034D01*
X101066436Y-76543387D01*
X101072952Y-76553307D01*
X101095458Y-76591362D01*
X101109779Y-76605683D01*
X101122619Y-76620716D01*
X101134528Y-76637107D01*
X101165891Y-76663053D01*
X101168605Y-76665298D01*
X101177384Y-76673288D01*
X102598037Y-78093942D01*
X102632063Y-78156254D01*
X102634942Y-78183037D01*
X102634942Y-79477702D01*
X102634415Y-79488885D01*
X102632740Y-79496378D01*
X102632989Y-79504304D01*
X102632989Y-79504305D01*
X102634880Y-79564455D01*
X102634942Y-79568414D01*
X102634942Y-79596325D01*
X102635439Y-79600259D01*
X102635439Y-79600260D01*
X102635447Y-79600325D01*
X102636380Y-79612162D01*
X102637769Y-79656358D01*
X102643420Y-79675808D01*
X102647429Y-79695169D01*
X102649968Y-79715266D01*
X102652887Y-79722637D01*
X102652887Y-79722639D01*
X102666246Y-79756381D01*
X102670091Y-79767611D01*
X102678781Y-79797522D01*
X102682424Y-79810062D01*
X102686457Y-79816881D01*
X102686459Y-79816886D01*
X102692735Y-79827497D01*
X102701430Y-79845245D01*
X102708890Y-79864086D01*
X102713552Y-79870502D01*
X102713552Y-79870503D01*
X102734878Y-79899856D01*
X102741394Y-79909776D01*
X102748340Y-79921520D01*
X102763900Y-79947831D01*
X102778221Y-79962152D01*
X102791061Y-79977185D01*
X102802970Y-79993576D01*
X102809076Y-79998627D01*
X102837047Y-80021767D01*
X102845826Y-80029757D01*
X104956663Y-82140594D01*
X104964207Y-82148884D01*
X104968320Y-82155365D01*
X104974097Y-82160790D01*
X105017987Y-82202005D01*
X105020829Y-82204760D01*
X105040551Y-82224482D01*
X105043675Y-82226905D01*
X105043679Y-82226909D01*
X105043744Y-82226959D01*
X105052765Y-82234664D01*
X105084999Y-82264933D01*
X105091947Y-82268752D01*
X105091949Y-82268754D01*
X105102752Y-82274693D01*
X105119279Y-82285549D01*
X105129018Y-82293104D01*
X105129020Y-82293105D01*
X105135280Y-82297961D01*
X105175860Y-82315521D01*
X105186508Y-82320738D01*
X105211296Y-82334365D01*
X105225260Y-82342042D01*
X105232936Y-82344013D01*
X105232939Y-82344014D01*
X105244882Y-82347080D01*
X105263587Y-82353484D01*
X105282175Y-82361528D01*
X105289998Y-82362767D01*
X105290008Y-82362770D01*
X105325844Y-82368446D01*
X105337464Y-82370852D01*
X105369279Y-82379020D01*
X105380290Y-82381847D01*
X105400544Y-82381847D01*
X105420254Y-82383398D01*
X105440263Y-82386567D01*
X105448155Y-82385821D01*
X105466900Y-82384049D01*
X105484282Y-82382406D01*
X105496139Y-82381847D01*
X114424859Y-82381847D01*
X114436042Y-82382374D01*
X114443535Y-82384049D01*
X114451461Y-82383800D01*
X114451462Y-82383800D01*
X114511612Y-82381909D01*
X114515571Y-82381847D01*
X114543482Y-82381847D01*
X114547417Y-82381350D01*
X114547482Y-82381342D01*
X114559319Y-82380409D01*
X114591577Y-82379395D01*
X114595596Y-82379269D01*
X114603515Y-82379020D01*
X114622969Y-82373368D01*
X114642326Y-82369360D01*
X114654556Y-82367815D01*
X114654557Y-82367815D01*
X114662423Y-82366821D01*
X114669794Y-82363902D01*
X114669796Y-82363902D01*
X114703538Y-82350543D01*
X114714768Y-82346698D01*
X114749609Y-82336576D01*
X114749610Y-82336576D01*
X114757219Y-82334365D01*
X114764038Y-82330332D01*
X114764043Y-82330330D01*
X114774654Y-82324054D01*
X114792402Y-82315359D01*
X114811243Y-82307899D01*
X114847013Y-82281911D01*
X114856933Y-82275395D01*
X114888161Y-82256927D01*
X114888164Y-82256925D01*
X114894988Y-82252889D01*
X114909309Y-82238568D01*
X114924343Y-82225727D01*
X114926057Y-82224482D01*
X114940733Y-82213819D01*
X114968924Y-82179742D01*
X114976914Y-82170963D01*
X115781522Y-81366355D01*
X115843834Y-81332329D01*
X115895735Y-81331979D01*
X116075570Y-81368567D01*
X116080745Y-81368757D01*
X116080747Y-81368757D01*
X116293646Y-81376564D01*
X116293650Y-81376564D01*
X116298810Y-81376753D01*
X116303930Y-81376097D01*
X116303932Y-81376097D01*
X116515261Y-81349025D01*
X116515262Y-81349025D01*
X116520389Y-81348368D01*
X116525339Y-81346883D01*
X116729402Y-81285661D01*
X116729407Y-81285659D01*
X116734357Y-81284174D01*
X116934967Y-81185896D01*
X117116833Y-81056173D01*
X117131852Y-81041207D01*
X117210169Y-80963163D01*
X117275069Y-80898489D01*
X117405426Y-80717077D01*
X117416320Y-80695036D01*
X117502109Y-80521453D01*
X117502110Y-80521451D01*
X117504403Y-80516811D01*
X117559335Y-80336008D01*
X117567838Y-80308023D01*
X117567838Y-80308021D01*
X117569343Y-80303069D01*
X117598502Y-80081590D01*
X117598584Y-80078240D01*
X117600047Y-80018365D01*
X117600047Y-80018361D01*
X117600129Y-80015000D01*
X117581825Y-79792361D01*
X117527404Y-79575702D01*
X117438327Y-79370840D01*
X117316987Y-79183277D01*
X117166643Y-79018051D01*
X117162592Y-79014852D01*
X117162588Y-79014848D01*
X116995387Y-78882800D01*
X116995383Y-78882798D01*
X116991332Y-78879598D01*
X116950026Y-78856796D01*
X116900057Y-78806364D01*
X116885285Y-78736921D01*
X116910401Y-78670516D01*
X116937753Y-78643909D01*
X116981576Y-78612650D01*
X117116833Y-78516173D01*
X117275069Y-78358489D01*
X117334567Y-78275689D01*
X117402408Y-78181277D01*
X117405426Y-78177077D01*
X117415718Y-78156254D01*
X117502109Y-77981453D01*
X117502110Y-77981451D01*
X117504403Y-77976811D01*
X117536873Y-77869940D01*
X117567838Y-77768023D01*
X117567838Y-77768021D01*
X117569343Y-77763069D01*
X117598502Y-77541590D01*
X117600129Y-77475000D01*
X117581825Y-77252361D01*
X117527404Y-77035702D01*
X117438327Y-76830840D01*
X117417917Y-76799291D01*
X117397711Y-76731234D01*
X117417507Y-76663053D01*
X117471022Y-76616398D01*
X117523710Y-76604853D01*
X122068100Y-76604853D01*
X122136221Y-76624855D01*
X122157195Y-76641758D01*
X125578633Y-80063196D01*
X125612659Y-80125508D01*
X125607594Y-80196323D01*
X125565047Y-80253159D01*
X125504888Y-80277352D01*
X125504474Y-80277403D01*
X125499142Y-80277603D01*
X125271018Y-80325468D01*
X125266059Y-80327426D01*
X125266057Y-80327427D01*
X125193519Y-80356074D01*
X125054221Y-80411086D01*
X125007780Y-80439267D01*
X124859509Y-80529239D01*
X124859506Y-80529241D01*
X124854948Y-80532007D01*
X124850920Y-80535502D01*
X124850919Y-80535503D01*
X124684279Y-80680107D01*
X124678898Y-80684776D01*
X124652413Y-80717077D01*
X124534489Y-80860894D01*
X124534485Y-80860900D01*
X124531105Y-80865022D01*
X124415795Y-81067594D01*
X124413974Y-81072610D01*
X124413972Y-81072615D01*
X124357720Y-81227586D01*
X124336264Y-81286697D01*
X124335315Y-81291946D01*
X124335314Y-81291949D01*
X124295525Y-81511985D01*
X124295524Y-81511992D01*
X124294787Y-81516069D01*
X124293635Y-81540496D01*
X124293635Y-82004321D01*
X124308376Y-82178051D01*
X124309716Y-82183215D01*
X124309717Y-82183219D01*
X124362497Y-82386567D01*
X124366935Y-82403667D01*
X124369127Y-82408533D01*
X124431867Y-82547810D01*
X124462670Y-82616191D01*
X124592844Y-82809546D01*
X124596523Y-82813403D01*
X124596525Y-82813405D01*
X124662435Y-82882496D01*
X124753736Y-82978204D01*
X124940744Y-83117342D01*
X124945495Y-83119758D01*
X124945499Y-83119760D01*
X125037466Y-83166518D01*
X125148523Y-83222982D01*
X125371130Y-83292104D01*
X125376419Y-83292805D01*
X125596916Y-83322030D01*
X125596920Y-83322030D01*
X125602200Y-83322730D01*
X125607529Y-83322530D01*
X125607530Y-83322530D01*
X125702259Y-83318973D01*
X125835128Y-83313985D01*
X126063252Y-83266120D01*
X126068211Y-83264162D01*
X126068213Y-83264161D01*
X126227945Y-83201079D01*
X126280049Y-83180502D01*
X126471310Y-83064443D01*
X126474761Y-83062349D01*
X126474764Y-83062347D01*
X126479322Y-83059581D01*
X126491691Y-83048848D01*
X126651339Y-82910312D01*
X126651341Y-82910310D01*
X126655372Y-82906812D01*
X126713659Y-82835726D01*
X126799781Y-82730694D01*
X126799785Y-82730688D01*
X126803165Y-82726566D01*
X126828080Y-82682796D01*
X126879162Y-82633490D01*
X126948792Y-82619628D01*
X127014863Y-82645611D01*
X127042100Y-82674759D01*
X127090965Y-82747340D01*
X127129864Y-82805119D01*
X127132844Y-82809546D01*
X127136523Y-82813403D01*
X127136525Y-82813405D01*
X127202435Y-82882496D01*
X127293736Y-82978204D01*
X127402911Y-83059432D01*
X127445623Y-83116141D01*
X127450896Y-83186941D01*
X127424781Y-83240836D01*
X127325352Y-83361024D01*
X127322423Y-83366441D01*
X127322421Y-83366444D01*
X127229551Y-83538204D01*
X127229549Y-83538209D01*
X127226621Y-83543624D01*
X127165237Y-83741923D01*
X127164593Y-83748048D01*
X127164593Y-83748049D01*
X127163061Y-83762630D01*
X127143539Y-83948369D01*
X127162353Y-84155097D01*
X127164091Y-84161003D01*
X127164092Y-84161007D01*
X127213807Y-84329925D01*
X127213851Y-84400922D01*
X127175506Y-84460672D01*
X127110943Y-84490206D01*
X127092933Y-84491500D01*
X96646000Y-84491500D01*
X96577879Y-84471498D01*
X96531386Y-84417842D01*
X96520000Y-84365500D01*
X96520000Y-80132703D01*
X97890743Y-80132703D01*
X97891302Y-80136947D01*
X97891302Y-80136951D01*
X97900521Y-80206972D01*
X97928268Y-80417734D01*
X98004129Y-80695036D01*
X98005813Y-80698984D01*
X98098732Y-80916827D01*
X98116923Y-80959476D01*
X98134556Y-80988938D01*
X98253645Y-81187921D01*
X98264561Y-81206161D01*
X98444313Y-81430528D01*
X98542474Y-81523679D01*
X98645104Y-81621071D01*
X98652851Y-81628423D01*
X98886317Y-81796186D01*
X98890112Y-81798195D01*
X98890113Y-81798196D01*
X98911869Y-81809715D01*
X99140392Y-81930712D01*
X99410373Y-82029511D01*
X99691264Y-82090755D01*
X99719841Y-82093004D01*
X99914282Y-82108307D01*
X99914291Y-82108307D01*
X99916739Y-82108500D01*
X100072271Y-82108500D01*
X100074407Y-82108354D01*
X100074418Y-82108354D01*
X100282548Y-82094165D01*
X100282554Y-82094164D01*
X100286825Y-82093873D01*
X100291020Y-82093004D01*
X100291022Y-82093004D01*
X100434255Y-82063342D01*
X100568342Y-82035574D01*
X100839343Y-81939607D01*
X101094812Y-81807750D01*
X101098313Y-81805289D01*
X101098317Y-81805287D01*
X101326204Y-81645125D01*
X101330023Y-81642441D01*
X101408403Y-81569606D01*
X101537479Y-81449661D01*
X101537481Y-81449658D01*
X101540622Y-81446740D01*
X101722713Y-81224268D01*
X101872927Y-80979142D01*
X101903809Y-80908792D01*
X101986757Y-80719830D01*
X101988483Y-80715898D01*
X102009471Y-80642221D01*
X102056412Y-80477432D01*
X102067244Y-80439406D01*
X102107751Y-80154784D01*
X102107845Y-80136951D01*
X102109235Y-79871583D01*
X102109235Y-79871576D01*
X102109257Y-79867297D01*
X102108365Y-79860516D01*
X102075731Y-79612641D01*
X102071732Y-79582266D01*
X102068638Y-79570954D01*
X102015192Y-79375590D01*
X101995871Y-79304964D01*
X101942337Y-79179457D01*
X101884763Y-79044476D01*
X101884761Y-79044472D01*
X101883077Y-79040524D01*
X101777796Y-78864612D01*
X101737643Y-78797521D01*
X101737640Y-78797517D01*
X101735439Y-78793839D01*
X101555687Y-78569472D01*
X101347149Y-78371577D01*
X101113683Y-78203814D01*
X101091843Y-78192250D01*
X100979317Y-78132671D01*
X100859608Y-78069288D01*
X100589627Y-77970489D01*
X100308736Y-77909245D01*
X100277685Y-77906801D01*
X100085718Y-77891693D01*
X100085709Y-77891693D01*
X100083261Y-77891500D01*
X99927729Y-77891500D01*
X99925593Y-77891646D01*
X99925582Y-77891646D01*
X99717452Y-77905835D01*
X99717446Y-77905836D01*
X99713175Y-77906127D01*
X99708980Y-77906996D01*
X99708978Y-77906996D01*
X99572417Y-77935276D01*
X99431658Y-77964426D01*
X99160657Y-78060393D01*
X99156848Y-78062359D01*
X99020621Y-78132671D01*
X98905188Y-78192250D01*
X98901687Y-78194711D01*
X98901683Y-78194713D01*
X98891594Y-78201804D01*
X98669977Y-78357559D01*
X98654892Y-78371577D01*
X98500056Y-78515460D01*
X98459378Y-78553260D01*
X98277287Y-78775732D01*
X98127073Y-79020858D01*
X98125347Y-79024791D01*
X98125346Y-79024792D01*
X98083409Y-79120328D01*
X98011517Y-79284102D01*
X98010342Y-79288229D01*
X98010341Y-79288230D01*
X97987677Y-79367792D01*
X97932756Y-79560594D01*
X97892249Y-79845216D01*
X97892227Y-79849505D01*
X97892226Y-79849512D01*
X97890765Y-80128417D01*
X97890743Y-80132703D01*
X96520000Y-80132703D01*
X96520000Y-67327475D01*
X103389682Y-67327475D01*
X103392465Y-67331193D01*
X103530507Y-67382530D01*
X103544098Y-67385919D01*
X103695915Y-67406176D01*
X103709911Y-67406469D01*
X103862438Y-67392588D01*
X103876162Y-67389771D01*
X104021826Y-67342442D01*
X104034576Y-67336658D01*
X104036406Y-67335567D01*
X104043909Y-67327475D01*
X104914682Y-67327475D01*
X104917465Y-67331193D01*
X105055507Y-67382530D01*
X105069098Y-67385919D01*
X105220915Y-67406176D01*
X105234911Y-67406469D01*
X105387438Y-67392588D01*
X105401162Y-67389771D01*
X105546826Y-67342442D01*
X105559576Y-67336658D01*
X105561406Y-67335567D01*
X105570994Y-67325226D01*
X105567488Y-67316812D01*
X105256419Y-67005743D01*
X105242475Y-66998129D01*
X105240640Y-66998260D01*
X105234030Y-67002508D01*
X104921441Y-67315096D01*
X104914682Y-67327475D01*
X104043909Y-67327475D01*
X104045994Y-67325226D01*
X104042488Y-67316812D01*
X103731419Y-67005743D01*
X103717475Y-66998129D01*
X103715640Y-66998260D01*
X103709030Y-67002508D01*
X103396441Y-67315096D01*
X103389682Y-67327475D01*
X96520000Y-67327475D01*
X96520000Y-66564975D01*
X102627182Y-66564975D01*
X102629965Y-66568693D01*
X102768007Y-66620030D01*
X102781598Y-66623419D01*
X102869649Y-66635167D01*
X102934526Y-66664002D01*
X102973514Y-66723335D01*
X102978384Y-66747764D01*
X102984097Y-66806026D01*
X102987008Y-66819719D01*
X103035353Y-66965048D01*
X103040320Y-66975798D01*
X103050095Y-66984735D01*
X103058714Y-66981073D01*
X103369923Y-66669863D01*
X103376300Y-66658184D01*
X104059681Y-66658184D01*
X104059812Y-66660022D01*
X104064062Y-66666634D01*
X104376229Y-66978802D01*
X104388608Y-66985561D01*
X104408113Y-66970960D01*
X104474634Y-66946149D01*
X104544008Y-66961241D01*
X104568640Y-66978834D01*
X104575095Y-66984735D01*
X104583714Y-66981073D01*
X104894923Y-66669863D01*
X104901300Y-66658184D01*
X105584681Y-66658184D01*
X105584812Y-66660022D01*
X105589062Y-66666634D01*
X105901229Y-66978802D01*
X105913608Y-66985561D01*
X105917424Y-66982704D01*
X105967753Y-66850212D01*
X105971235Y-66836651D01*
X105984428Y-66742779D01*
X106013716Y-66678105D01*
X106073320Y-66639532D01*
X106097783Y-66634833D01*
X106149947Y-66630086D01*
X106163662Y-66627271D01*
X106309326Y-66579942D01*
X106322076Y-66574158D01*
X106323906Y-66573067D01*
X106333494Y-66562726D01*
X106329988Y-66554312D01*
X106018919Y-66243243D01*
X106004975Y-66235629D01*
X106003140Y-66235760D01*
X105996530Y-66240008D01*
X105618612Y-66617925D01*
X105618610Y-66617927D01*
X105592292Y-66644246D01*
X105584681Y-66658184D01*
X104901300Y-66658184D01*
X104902534Y-66655925D01*
X104902402Y-66654089D01*
X104898153Y-66647477D01*
X104520237Y-66269560D01*
X104520235Y-66269558D01*
X104493916Y-66243240D01*
X104479978Y-66235629D01*
X104478140Y-66235760D01*
X104471528Y-66240010D01*
X104093612Y-66617925D01*
X104093610Y-66617927D01*
X104067292Y-66644246D01*
X104059681Y-66658184D01*
X103376300Y-66658184D01*
X103377534Y-66655925D01*
X103377402Y-66654089D01*
X103373153Y-66647477D01*
X102995237Y-66269560D01*
X102995235Y-66269558D01*
X102968916Y-66243240D01*
X102954978Y-66235629D01*
X102953140Y-66235760D01*
X102946528Y-66240010D01*
X102633941Y-66552596D01*
X102627182Y-66564975D01*
X96520000Y-66564975D01*
X96520000Y-65891092D01*
X102206651Y-65891092D01*
X102221597Y-66043525D01*
X102224508Y-66057219D01*
X102272853Y-66202548D01*
X102277820Y-66213298D01*
X102287595Y-66222235D01*
X102296214Y-66218573D01*
X102607423Y-65907363D01*
X102613800Y-65895684D01*
X103297181Y-65895684D01*
X103297312Y-65897523D01*
X103301560Y-65904132D01*
X103331112Y-65933685D01*
X103331111Y-65933685D01*
X103331112Y-65933686D01*
X103705797Y-66308370D01*
X103719737Y-66315982D01*
X103721573Y-66315850D01*
X103728185Y-66311601D01*
X104106102Y-65933685D01*
X104106104Y-65933683D01*
X104132422Y-65907364D01*
X104138800Y-65895684D01*
X104822181Y-65895684D01*
X104822312Y-65897523D01*
X104826560Y-65904132D01*
X104856112Y-65933685D01*
X104856111Y-65933685D01*
X104856112Y-65933686D01*
X105230797Y-66308370D01*
X105244737Y-66315982D01*
X105246573Y-66315850D01*
X105253185Y-66311601D01*
X105631102Y-65933685D01*
X105631104Y-65933683D01*
X105657422Y-65907364D01*
X105665033Y-65893426D01*
X105664902Y-65891588D01*
X105660652Y-65884976D01*
X105282737Y-65507060D01*
X105282735Y-65507058D01*
X105256416Y-65480740D01*
X105242478Y-65473129D01*
X105240640Y-65473260D01*
X105234028Y-65477510D01*
X104856112Y-65855425D01*
X104856110Y-65855427D01*
X104829792Y-65881746D01*
X104822181Y-65895684D01*
X104138800Y-65895684D01*
X104140033Y-65893426D01*
X104139902Y-65891588D01*
X104135652Y-65884976D01*
X103757737Y-65507060D01*
X103757735Y-65507058D01*
X103731416Y-65480740D01*
X103717478Y-65473129D01*
X103715640Y-65473260D01*
X103709028Y-65477510D01*
X103331112Y-65855425D01*
X103331110Y-65855427D01*
X103304792Y-65881746D01*
X103297181Y-65895684D01*
X102613800Y-65895684D01*
X102615034Y-65893425D01*
X102614902Y-65891589D01*
X102610653Y-65884977D01*
X102297932Y-65572256D01*
X102285552Y-65565496D01*
X102281338Y-65568651D01*
X102229334Y-65711528D01*
X102226042Y-65725136D01*
X102206847Y-65877086D01*
X102206651Y-65891092D01*
X96520000Y-65891092D01*
X96520000Y-65039975D01*
X102627182Y-65039975D01*
X102641469Y-65059060D01*
X102666280Y-65125580D01*
X102651189Y-65194954D01*
X102634182Y-65218941D01*
X102628110Y-65225676D01*
X102631934Y-65234506D01*
X102943295Y-65545867D01*
X102957239Y-65553481D01*
X102959074Y-65553350D01*
X102965684Y-65549102D01*
X103343602Y-65171185D01*
X103343604Y-65171183D01*
X103369922Y-65144864D01*
X103376300Y-65133184D01*
X104059681Y-65133184D01*
X104059812Y-65135023D01*
X104064060Y-65141632D01*
X104093612Y-65171185D01*
X104093611Y-65171185D01*
X104093612Y-65171186D01*
X104468297Y-65545870D01*
X104482237Y-65553482D01*
X104484073Y-65553350D01*
X104490685Y-65549101D01*
X104868602Y-65171185D01*
X104868604Y-65171183D01*
X104894922Y-65144864D01*
X104901300Y-65133184D01*
X105584681Y-65133184D01*
X105584812Y-65135023D01*
X105589060Y-65141632D01*
X105618612Y-65171185D01*
X105618611Y-65171185D01*
X105618612Y-65171186D01*
X105993297Y-65545870D01*
X106007237Y-65553482D01*
X106009073Y-65553350D01*
X106015685Y-65549101D01*
X106328007Y-65236780D01*
X106334766Y-65224402D01*
X106319852Y-65204480D01*
X106295041Y-65137960D01*
X106310132Y-65068585D01*
X106328325Y-65043301D01*
X106333494Y-65037726D01*
X106329988Y-65029312D01*
X106018919Y-64718243D01*
X106004975Y-64710629D01*
X106003140Y-64710760D01*
X105996530Y-64715008D01*
X105618612Y-65092925D01*
X105618610Y-65092927D01*
X105592292Y-65119246D01*
X105584681Y-65133184D01*
X104901300Y-65133184D01*
X104902533Y-65130926D01*
X104902402Y-65129088D01*
X104898152Y-65122476D01*
X104520237Y-64744560D01*
X104520235Y-64744558D01*
X104493916Y-64718240D01*
X104479978Y-64710629D01*
X104478140Y-64710760D01*
X104471528Y-64715010D01*
X104093612Y-65092925D01*
X104093610Y-65092927D01*
X104067292Y-65119246D01*
X104059681Y-65133184D01*
X103376300Y-65133184D01*
X103377533Y-65130926D01*
X103377402Y-65129088D01*
X103373152Y-65122476D01*
X102995237Y-64744560D01*
X102995235Y-64744558D01*
X102968916Y-64718240D01*
X102954978Y-64710629D01*
X102953140Y-64710760D01*
X102946528Y-64715010D01*
X102633941Y-65027596D01*
X102627182Y-65039975D01*
X96520000Y-65039975D01*
X96520000Y-64366092D01*
X102206651Y-64366092D01*
X102221597Y-64518525D01*
X102224508Y-64532219D01*
X102272853Y-64677548D01*
X102277820Y-64688298D01*
X102287595Y-64697235D01*
X102296214Y-64693573D01*
X102607423Y-64382363D01*
X102613800Y-64370684D01*
X103297181Y-64370684D01*
X103297312Y-64372523D01*
X103301560Y-64379132D01*
X103331112Y-64408685D01*
X103331111Y-64408685D01*
X103331112Y-64408686D01*
X103705797Y-64783370D01*
X103719737Y-64790982D01*
X103721573Y-64790850D01*
X103728185Y-64786601D01*
X104106102Y-64408685D01*
X104106104Y-64408683D01*
X104132422Y-64382364D01*
X104138800Y-64370684D01*
X104822181Y-64370684D01*
X104822312Y-64372523D01*
X104826560Y-64379132D01*
X104856112Y-64408685D01*
X104856111Y-64408685D01*
X104856112Y-64408686D01*
X105230797Y-64783370D01*
X105244737Y-64790982D01*
X105246573Y-64790850D01*
X105253185Y-64786601D01*
X105631102Y-64408685D01*
X105631104Y-64408683D01*
X105657422Y-64382364D01*
X105665033Y-64368426D01*
X105664902Y-64366588D01*
X105660652Y-64359976D01*
X105282737Y-63982060D01*
X105282735Y-63982058D01*
X105256416Y-63955740D01*
X105242478Y-63948129D01*
X105240640Y-63948260D01*
X105234028Y-63952510D01*
X104856112Y-64330425D01*
X104856110Y-64330427D01*
X104829792Y-64356746D01*
X104822181Y-64370684D01*
X104138800Y-64370684D01*
X104140033Y-64368426D01*
X104139902Y-64366588D01*
X104135652Y-64359976D01*
X103757737Y-63982060D01*
X103757735Y-63982058D01*
X103731416Y-63955740D01*
X103717478Y-63948129D01*
X103715640Y-63948260D01*
X103709028Y-63952510D01*
X103331112Y-64330425D01*
X103331110Y-64330427D01*
X103304792Y-64356746D01*
X103297181Y-64370684D01*
X102613800Y-64370684D01*
X102615034Y-64368425D01*
X102614902Y-64366589D01*
X102610653Y-64359977D01*
X102297932Y-64047256D01*
X102285552Y-64040496D01*
X102281338Y-64043651D01*
X102229334Y-64186528D01*
X102226042Y-64200136D01*
X102206847Y-64352086D01*
X102206651Y-64366092D01*
X96520000Y-64366092D01*
X96520000Y-63700676D01*
X102628110Y-63700676D01*
X102631934Y-63709506D01*
X102943295Y-64020867D01*
X102957239Y-64028481D01*
X102959074Y-64028350D01*
X102965684Y-64024102D01*
X103343602Y-63646185D01*
X103343604Y-63646183D01*
X103369922Y-63619864D01*
X103376299Y-63608185D01*
X104059680Y-63608185D01*
X104059812Y-63610021D01*
X104064061Y-63616633D01*
X104093612Y-63646185D01*
X104093611Y-63646185D01*
X104093612Y-63646186D01*
X104468297Y-64020870D01*
X104482237Y-64028482D01*
X104484073Y-64028350D01*
X104490685Y-64024101D01*
X104868602Y-63646185D01*
X104868604Y-63646183D01*
X104894922Y-63619864D01*
X104901299Y-63608185D01*
X105584680Y-63608185D01*
X105584812Y-63610021D01*
X105589061Y-63616633D01*
X105618612Y-63646185D01*
X105618611Y-63646185D01*
X105618612Y-63646186D01*
X105993297Y-64020870D01*
X106007237Y-64028482D01*
X106009073Y-64028350D01*
X106015685Y-64024101D01*
X106328007Y-63711780D01*
X106334766Y-63699401D01*
X106330796Y-63694098D01*
X106328339Y-63692899D01*
X106184055Y-63641522D01*
X106170430Y-63638327D01*
X106094148Y-63629230D01*
X106028875Y-63601302D01*
X105989063Y-63542519D01*
X105983853Y-63518161D01*
X105975966Y-63447845D01*
X105972864Y-63434192D01*
X105922496Y-63289555D01*
X105920583Y-63285564D01*
X105912878Y-63278714D01*
X105903827Y-63282710D01*
X105592291Y-63594247D01*
X105584680Y-63608185D01*
X104901299Y-63608185D01*
X104902533Y-63605926D01*
X104902402Y-63604089D01*
X104898151Y-63597475D01*
X104585432Y-63284756D01*
X104573052Y-63277996D01*
X104554436Y-63291932D01*
X104487916Y-63316743D01*
X104418542Y-63301652D01*
X104395217Y-63285238D01*
X104387878Y-63278714D01*
X104378827Y-63282710D01*
X104067291Y-63594247D01*
X104059680Y-63608185D01*
X103376299Y-63608185D01*
X103377533Y-63605926D01*
X103377402Y-63604089D01*
X103373151Y-63597475D01*
X103060432Y-63284756D01*
X103048052Y-63277996D01*
X103043838Y-63281151D01*
X102991834Y-63424028D01*
X102988542Y-63437637D01*
X102978159Y-63519825D01*
X102949777Y-63584902D01*
X102890717Y-63624303D01*
X102866324Y-63629343D01*
X102802009Y-63636103D01*
X102788345Y-63639108D01*
X102643350Y-63688467D01*
X102635996Y-63691928D01*
X102628110Y-63700676D01*
X96520000Y-63700676D01*
X96520000Y-62938176D01*
X103390610Y-62938176D01*
X103394434Y-62947006D01*
X103705795Y-63258367D01*
X103719739Y-63265981D01*
X103721574Y-63265850D01*
X103728184Y-63261602D01*
X104040507Y-62949280D01*
X104046570Y-62938176D01*
X104915610Y-62938176D01*
X104919434Y-62947006D01*
X105230795Y-63258367D01*
X105244739Y-63265981D01*
X105246574Y-63265850D01*
X105253184Y-63261602D01*
X105565507Y-62949280D01*
X105572266Y-62936901D01*
X105568296Y-62931598D01*
X105565839Y-62930399D01*
X105421555Y-62879022D01*
X105407929Y-62875826D01*
X105255836Y-62857690D01*
X105241840Y-62857592D01*
X105089509Y-62873603D01*
X105075845Y-62876608D01*
X104930850Y-62925967D01*
X104923496Y-62929428D01*
X104915610Y-62938176D01*
X104046570Y-62938176D01*
X104047266Y-62936901D01*
X104043296Y-62931598D01*
X104040839Y-62930399D01*
X103896555Y-62879022D01*
X103882929Y-62875826D01*
X103730836Y-62857690D01*
X103716840Y-62857592D01*
X103564509Y-62873603D01*
X103550845Y-62876608D01*
X103405850Y-62925967D01*
X103398496Y-62929428D01*
X103390610Y-62938176D01*
X96520000Y-62938176D01*
X96520000Y-53944837D01*
X97497603Y-53944837D01*
X97517565Y-54134765D01*
X97576580Y-54316393D01*
X97672067Y-54481781D01*
X97676485Y-54486688D01*
X97676486Y-54486689D01*
X97758559Y-54577840D01*
X97799854Y-54623703D01*
X97954355Y-54735955D01*
X97960383Y-54738639D01*
X97960385Y-54738640D01*
X98122788Y-54810946D01*
X98128819Y-54813631D01*
X98222220Y-54833484D01*
X98309163Y-54851965D01*
X98309168Y-54851965D01*
X98315620Y-54853337D01*
X98506594Y-54853337D01*
X98513046Y-54851965D01*
X98513051Y-54851965D01*
X98599995Y-54833484D01*
X98693395Y-54813631D01*
X98699426Y-54810946D01*
X98861829Y-54738640D01*
X98861831Y-54738639D01*
X98867859Y-54735955D01*
X99022360Y-54623703D01*
X99026775Y-54618800D01*
X99031687Y-54614377D01*
X99032812Y-54615626D01*
X99086121Y-54582786D01*
X99119307Y-54578337D01*
X116237462Y-54578337D01*
X116248645Y-54578864D01*
X116256138Y-54580539D01*
X116264064Y-54580290D01*
X116264065Y-54580290D01*
X116324215Y-54578399D01*
X116328174Y-54578337D01*
X116356085Y-54578337D01*
X116360020Y-54577840D01*
X116360085Y-54577832D01*
X116371922Y-54576899D01*
X116404180Y-54575885D01*
X116408199Y-54575759D01*
X116416118Y-54575510D01*
X116435572Y-54569858D01*
X116454929Y-54565850D01*
X116467159Y-54564305D01*
X116467160Y-54564305D01*
X116475026Y-54563311D01*
X116482397Y-54560392D01*
X116482399Y-54560392D01*
X116516141Y-54547033D01*
X116527371Y-54543188D01*
X116562212Y-54533066D01*
X116562213Y-54533066D01*
X116569822Y-54530855D01*
X116576641Y-54526822D01*
X116576646Y-54526820D01*
X116587257Y-54520544D01*
X116605005Y-54511849D01*
X116623846Y-54504389D01*
X116659616Y-54478401D01*
X116669536Y-54471885D01*
X116700764Y-54453417D01*
X116700767Y-54453415D01*
X116707591Y-54449379D01*
X116721912Y-54435058D01*
X116736946Y-54422217D01*
X116746923Y-54414968D01*
X116753336Y-54410309D01*
X116781527Y-54376232D01*
X116789517Y-54367453D01*
X119772247Y-51384723D01*
X119780537Y-51377179D01*
X119787018Y-51373066D01*
X119833659Y-51323398D01*
X119836413Y-51320557D01*
X119856135Y-51300835D01*
X119858612Y-51297642D01*
X119866317Y-51288621D01*
X119896586Y-51256387D01*
X119900407Y-51249437D01*
X119906346Y-51238634D01*
X119917202Y-51222107D01*
X119924757Y-51212368D01*
X119924758Y-51212366D01*
X119929614Y-51206106D01*
X119947174Y-51165526D01*
X119952391Y-51154878D01*
X119969875Y-51123075D01*
X119969876Y-51123073D01*
X119973695Y-51116126D01*
X119978733Y-51096503D01*
X119985137Y-51077800D01*
X119990033Y-51066486D01*
X119990033Y-51066485D01*
X119993181Y-51059211D01*
X119994420Y-51051388D01*
X119994423Y-51051378D01*
X120000099Y-51015542D01*
X120002505Y-51003920D01*
X120010268Y-50973685D01*
X120046583Y-50912679D01*
X120110115Y-50880990D01*
X120180694Y-50888680D01*
X120225503Y-50920220D01*
X120381049Y-51091164D01*
X120384344Y-51093919D01*
X120384345Y-51093920D01*
X120463472Y-51160080D01*
X120591142Y-51266828D01*
X120594783Y-51269112D01*
X120819491Y-51410072D01*
X120819495Y-51410074D01*
X120823131Y-51412355D01*
X120945119Y-51467435D01*
X121068812Y-51523285D01*
X121068816Y-51523287D01*
X121072724Y-51525051D01*
X121076844Y-51526271D01*
X121076843Y-51526271D01*
X121331190Y-51601612D01*
X121331194Y-51601613D01*
X121335303Y-51602830D01*
X121339537Y-51603478D01*
X121339542Y-51603479D01*
X121601765Y-51643604D01*
X121601767Y-51643604D01*
X121606007Y-51644253D01*
X121745379Y-51646443D01*
X121875538Y-51648488D01*
X121875544Y-51648488D01*
X121879829Y-51648555D01*
X122151702Y-51615655D01*
X122416594Y-51546162D01*
X122420554Y-51544522D01*
X122420559Y-51544520D01*
X122594147Y-51472617D01*
X122669603Y-51441362D01*
X122673302Y-51439200D01*
X122673313Y-51439195D01*
X122775448Y-51379512D01*
X122844354Y-51362413D01*
X122911567Y-51385282D01*
X122955746Y-51440859D01*
X122963007Y-51510720D01*
X122960195Y-51526271D01*
X122942857Y-51622148D01*
X122942856Y-51622155D01*
X122942119Y-51626232D01*
X122941924Y-51630377D01*
X122941091Y-51648039D01*
X122940967Y-51650659D01*
X122940967Y-52114484D01*
X122955708Y-52288214D01*
X122957048Y-52293378D01*
X122957049Y-52293382D01*
X123001726Y-52465511D01*
X123014267Y-52513830D01*
X123016459Y-52518696D01*
X123083629Y-52667807D01*
X123110002Y-52726354D01*
X123240176Y-52919709D01*
X123243855Y-52923566D01*
X123243857Y-52923568D01*
X123289245Y-52971147D01*
X123401068Y-53088367D01*
X123588076Y-53227505D01*
X123592827Y-53229921D01*
X123592831Y-53229923D01*
X123663733Y-53265971D01*
X123795855Y-53333145D01*
X124018462Y-53402267D01*
X124023751Y-53402968D01*
X124244248Y-53432193D01*
X124244252Y-53432193D01*
X124249532Y-53432893D01*
X124254861Y-53432693D01*
X124254862Y-53432693D01*
X124349591Y-53429136D01*
X124482460Y-53424148D01*
X124710584Y-53376283D01*
X124715543Y-53374325D01*
X124715545Y-53374324D01*
X124825938Y-53330727D01*
X124927381Y-53290665D01*
X125051894Y-53215109D01*
X125122093Y-53172512D01*
X125122096Y-53172510D01*
X125126654Y-53169744D01*
X125145121Y-53153719D01*
X125298671Y-53020475D01*
X125298673Y-53020473D01*
X125302704Y-53016975D01*
X125344805Y-52965629D01*
X125447113Y-52840857D01*
X125447117Y-52840851D01*
X125450497Y-52836729D01*
X125475412Y-52792959D01*
X125526494Y-52743653D01*
X125596124Y-52729791D01*
X125662195Y-52755774D01*
X125689432Y-52784922D01*
X125724311Y-52836729D01*
X125777196Y-52915282D01*
X125780176Y-52919709D01*
X125783855Y-52923566D01*
X125783857Y-52923568D01*
X125829245Y-52971147D01*
X125941068Y-53088367D01*
X126128076Y-53227505D01*
X126132827Y-53229921D01*
X126132831Y-53229923D01*
X126203733Y-53265971D01*
X126335855Y-53333145D01*
X126558462Y-53402267D01*
X126563751Y-53402968D01*
X126784248Y-53432193D01*
X126784252Y-53432193D01*
X126789532Y-53432893D01*
X126794861Y-53432693D01*
X126794862Y-53432693D01*
X126889591Y-53429136D01*
X127022460Y-53424148D01*
X127250584Y-53376283D01*
X127255543Y-53374325D01*
X127255545Y-53374324D01*
X127365938Y-53330727D01*
X127467381Y-53290665D01*
X127591894Y-53215109D01*
X127662093Y-53172512D01*
X127662096Y-53172510D01*
X127666654Y-53169744D01*
X127680649Y-53157600D01*
X127841742Y-53017811D01*
X127906301Y-52988271D01*
X127976582Y-52998325D01*
X128030271Y-53044780D01*
X128042304Y-53068746D01*
X128076143Y-53159011D01*
X128084681Y-53174606D01*
X128161182Y-53276681D01*
X128173743Y-53289242D01*
X128275818Y-53365743D01*
X128291413Y-53374281D01*
X128411861Y-53419435D01*
X128427116Y-53423062D01*
X128477981Y-53428588D01*
X128484795Y-53428957D01*
X129122352Y-53428957D01*
X129137591Y-53424482D01*
X129138796Y-53423092D01*
X129140467Y-53415409D01*
X129140467Y-53410841D01*
X129648467Y-53410841D01*
X129652942Y-53426080D01*
X129654332Y-53427285D01*
X129662015Y-53428956D01*
X130304136Y-53428956D01*
X130310957Y-53428586D01*
X130361819Y-53423062D01*
X130377071Y-53419436D01*
X130497521Y-53374281D01*
X130513116Y-53365743D01*
X130615191Y-53289242D01*
X130627752Y-53276681D01*
X130704253Y-53174606D01*
X130712791Y-53159011D01*
X130757945Y-53038563D01*
X130761572Y-53023308D01*
X130767098Y-52972443D01*
X130767467Y-52965629D01*
X130767466Y-52178072D01*
X130762991Y-52162833D01*
X130761601Y-52161628D01*
X130753918Y-52159957D01*
X129666582Y-52159957D01*
X129651343Y-52164432D01*
X129650138Y-52165822D01*
X129648467Y-52173505D01*
X129648467Y-53410841D01*
X129140467Y-53410841D01*
X129140467Y-51633842D01*
X129648467Y-51633842D01*
X129652942Y-51649081D01*
X129654332Y-51650286D01*
X129662015Y-51651957D01*
X130749351Y-51651957D01*
X130751844Y-51651225D01*
X130787342Y-51646121D01*
X131662352Y-51646121D01*
X131677591Y-51641646D01*
X131678796Y-51640256D01*
X131680467Y-51632573D01*
X131680467Y-51628005D01*
X132188467Y-51628005D01*
X132192942Y-51643244D01*
X132194332Y-51644449D01*
X132202015Y-51646120D01*
X133479136Y-51646120D01*
X133485957Y-51645750D01*
X133536819Y-51640226D01*
X133552071Y-51636600D01*
X133672521Y-51591445D01*
X133688116Y-51582907D01*
X133790191Y-51506406D01*
X133802752Y-51493845D01*
X133879253Y-51391770D01*
X133887791Y-51376175D01*
X133932945Y-51255727D01*
X133936572Y-51240472D01*
X133942098Y-51189607D01*
X133942467Y-51182793D01*
X133942467Y-49910236D01*
X133937992Y-49894997D01*
X133936602Y-49893792D01*
X133928919Y-49892121D01*
X132206582Y-49892121D01*
X132191343Y-49896596D01*
X132190138Y-49897986D01*
X132188467Y-49905669D01*
X132188467Y-51628005D01*
X131680467Y-51628005D01*
X131680467Y-49910236D01*
X131675992Y-49894997D01*
X131674602Y-49893792D01*
X131666919Y-49892121D01*
X129944583Y-49892121D01*
X129929344Y-49896596D01*
X129928139Y-49897986D01*
X129926468Y-49905669D01*
X129926468Y-50256957D01*
X129906466Y-50325078D01*
X129852810Y-50371571D01*
X129800468Y-50382957D01*
X129666582Y-50382957D01*
X129651343Y-50387432D01*
X129650138Y-50388822D01*
X129648467Y-50396505D01*
X129648467Y-51633842D01*
X129140467Y-51633842D01*
X129140467Y-50401073D01*
X129135992Y-50385834D01*
X129134602Y-50384629D01*
X129126919Y-50382958D01*
X128901890Y-50382958D01*
X128833769Y-50362956D01*
X128787276Y-50309300D01*
X128777172Y-50239026D01*
X128780894Y-50222226D01*
X128781736Y-50219998D01*
X128836231Y-49982059D01*
X128841916Y-49957238D01*
X128841917Y-49957234D01*
X128842874Y-49953054D01*
X128846042Y-49917565D01*
X128866603Y-49687179D01*
X136051959Y-49687179D01*
X136067724Y-49960581D01*
X136068549Y-49964786D01*
X136068550Y-49964794D01*
X136073238Y-49988688D01*
X136120447Y-50229314D01*
X136121834Y-50233364D01*
X136121835Y-50233369D01*
X136205855Y-50478769D01*
X136209154Y-50488405D01*
X136240179Y-50550091D01*
X136315064Y-50698984D01*
X136332202Y-50733060D01*
X136334628Y-50736589D01*
X136334631Y-50736595D01*
X136447709Y-50901123D01*
X136487316Y-50958751D01*
X136490203Y-50961924D01*
X136490204Y-50961925D01*
X136658592Y-51146982D01*
X136671624Y-51161304D01*
X136674919Y-51164059D01*
X136674920Y-51164060D01*
X136750897Y-51227586D01*
X136881717Y-51336968D01*
X136885358Y-51339252D01*
X137110066Y-51480212D01*
X137110070Y-51480214D01*
X137113706Y-51482495D01*
X137204965Y-51523700D01*
X137359387Y-51593425D01*
X137359391Y-51593427D01*
X137363299Y-51595191D01*
X137367419Y-51596411D01*
X137367418Y-51596411D01*
X137621765Y-51671752D01*
X137621769Y-51671753D01*
X137625878Y-51672970D01*
X137630115Y-51673618D01*
X137630118Y-51673619D01*
X137703917Y-51684912D01*
X137768229Y-51714988D01*
X137806070Y-51775059D01*
X137806275Y-51843134D01*
X137792048Y-51894434D01*
X137792045Y-51894447D01*
X137790667Y-51899418D01*
X137766579Y-52124813D01*
X137766876Y-52129966D01*
X137766876Y-52129969D01*
X137775735Y-52283617D01*
X137779627Y-52351116D01*
X137780764Y-52356162D01*
X137780765Y-52356168D01*
X137805191Y-52464552D01*
X137829462Y-52572248D01*
X137831404Y-52577030D01*
X137831405Y-52577034D01*
X137899062Y-52743653D01*
X137914744Y-52782273D01*
X138033183Y-52975548D01*
X138036564Y-52979451D01*
X138178214Y-53142977D01*
X138178218Y-53142981D01*
X138181599Y-53146884D01*
X138185574Y-53150184D01*
X138185577Y-53150187D01*
X138194506Y-53157600D01*
X138356005Y-53291679D01*
X138360472Y-53294289D01*
X138547257Y-53403437D01*
X138547260Y-53403439D01*
X138551719Y-53406044D01*
X138556544Y-53407886D01*
X138556545Y-53407887D01*
X138610756Y-53428588D01*
X138763483Y-53486909D01*
X138768551Y-53487940D01*
X138768554Y-53487941D01*
X138877562Y-53510119D01*
X138985611Y-53532102D01*
X138990784Y-53532292D01*
X138990787Y-53532292D01*
X139206973Y-53540219D01*
X139206977Y-53540219D01*
X139212137Y-53540408D01*
X139217257Y-53539752D01*
X139217259Y-53539752D01*
X139321868Y-53526351D01*
X139436978Y-53511605D01*
X139441927Y-53510120D01*
X139441933Y-53510119D01*
X139649146Y-53447952D01*
X139649145Y-53447952D01*
X139654096Y-53446467D01*
X139857660Y-53346742D01*
X139861865Y-53343742D01*
X139861871Y-53343739D01*
X140037999Y-53218108D01*
X140038001Y-53218106D01*
X140042203Y-53215109D01*
X140180997Y-53076798D01*
X140243368Y-53042882D01*
X140314175Y-53048070D01*
X140370937Y-53090716D01*
X140378004Y-53102521D01*
X140378296Y-53102340D01*
X140467453Y-53246415D01*
X140476489Y-53257816D01*
X140591219Y-53372347D01*
X140602630Y-53381359D01*
X140740633Y-53466424D01*
X140753814Y-53472571D01*
X140908100Y-53523746D01*
X140921476Y-53526613D01*
X141015828Y-53536280D01*
X141022244Y-53536608D01*
X141417275Y-53536608D01*
X141432514Y-53532133D01*
X141433719Y-53530743D01*
X141435390Y-53523060D01*
X141435390Y-53518492D01*
X141943390Y-53518492D01*
X141947865Y-53533731D01*
X141949255Y-53534936D01*
X141956938Y-53536607D01*
X142356485Y-53536607D01*
X142363004Y-53536270D01*
X142458596Y-53526351D01*
X142471990Y-53523459D01*
X142626174Y-53472020D01*
X142639352Y-53465847D01*
X142777197Y-53380545D01*
X142788598Y-53371509D01*
X142903129Y-53256779D01*
X142912141Y-53245368D01*
X142997206Y-53107365D01*
X143003353Y-53094184D01*
X143054528Y-52939898D01*
X143057395Y-52926522D01*
X143067062Y-52832170D01*
X143067390Y-52825754D01*
X143067390Y-52430723D01*
X143062915Y-52415484D01*
X143061525Y-52414279D01*
X143053842Y-52412608D01*
X141961505Y-52412608D01*
X141946266Y-52417083D01*
X141945061Y-52418473D01*
X141943390Y-52426156D01*
X141943390Y-53518492D01*
X141435390Y-53518492D01*
X141435390Y-52030608D01*
X141455392Y-51962487D01*
X141509048Y-51915994D01*
X141561390Y-51904608D01*
X143049274Y-51904608D01*
X143064513Y-51900133D01*
X143065718Y-51898743D01*
X143067389Y-51891060D01*
X143067389Y-51774376D01*
X143062914Y-51759137D01*
X143061524Y-51757932D01*
X143053841Y-51756261D01*
X143017042Y-51756261D01*
X142948921Y-51736259D01*
X142915896Y-51698146D01*
X143399042Y-51698146D01*
X143403517Y-51713385D01*
X143404907Y-51714590D01*
X143412590Y-51716261D01*
X144689711Y-51716260D01*
X144696532Y-51715890D01*
X144747394Y-51710366D01*
X144762646Y-51706740D01*
X144883096Y-51661585D01*
X144898691Y-51653047D01*
X145000766Y-51576546D01*
X145013327Y-51563985D01*
X145089828Y-51461910D01*
X145098366Y-51446315D01*
X145143520Y-51325867D01*
X145147147Y-51310612D01*
X145152673Y-51259747D01*
X145153042Y-51252933D01*
X145153042Y-50132703D01*
X147890743Y-50132703D01*
X147891302Y-50136947D01*
X147891302Y-50136951D01*
X147902908Y-50225107D01*
X147928268Y-50417734D01*
X147929401Y-50421874D01*
X147929401Y-50421876D01*
X147934197Y-50439406D01*
X148004129Y-50695036D01*
X148005813Y-50698984D01*
X148114001Y-50952625D01*
X148116923Y-50959476D01*
X148191473Y-51084040D01*
X148262347Y-51202461D01*
X148264561Y-51206161D01*
X148444313Y-51430528D01*
X148488666Y-51472617D01*
X148646239Y-51622148D01*
X148652851Y-51628423D01*
X148886317Y-51796186D01*
X148890112Y-51798195D01*
X148890113Y-51798196D01*
X148911869Y-51809715D01*
X149140392Y-51930712D01*
X149410373Y-52029511D01*
X149691264Y-52090755D01*
X149716029Y-52092704D01*
X149914282Y-52108307D01*
X149914291Y-52108307D01*
X149916739Y-52108500D01*
X150072271Y-52108500D01*
X150074407Y-52108354D01*
X150074418Y-52108354D01*
X150282548Y-52094165D01*
X150282554Y-52094164D01*
X150286825Y-52093873D01*
X150291020Y-52093004D01*
X150291022Y-52093004D01*
X150427584Y-52064723D01*
X150568342Y-52035574D01*
X150839343Y-51939607D01*
X151026257Y-51843134D01*
X151091005Y-51809715D01*
X151091006Y-51809715D01*
X151094812Y-51807750D01*
X151098313Y-51805289D01*
X151098317Y-51805287D01*
X151250763Y-51698146D01*
X151330023Y-51642441D01*
X151414452Y-51563985D01*
X151537479Y-51449661D01*
X151537481Y-51449658D01*
X151540622Y-51446740D01*
X151722713Y-51224268D01*
X151872927Y-50979142D01*
X151875323Y-50973685D01*
X151986757Y-50719830D01*
X151988483Y-50715898D01*
X152067244Y-50439406D01*
X152105127Y-50173225D01*
X152107146Y-50159036D01*
X152107146Y-50159034D01*
X152107751Y-50154784D01*
X152107845Y-50136951D01*
X152109235Y-49871583D01*
X152109235Y-49871576D01*
X152109257Y-49867297D01*
X152107169Y-49851432D01*
X152088647Y-49710745D01*
X152071732Y-49582266D01*
X151995871Y-49304964D01*
X151936970Y-49166873D01*
X151884763Y-49044476D01*
X151884761Y-49044472D01*
X151883077Y-49040524D01*
X151806616Y-48912767D01*
X151737643Y-48797521D01*
X151737640Y-48797517D01*
X151735439Y-48793839D01*
X151555687Y-48569472D01*
X151411539Y-48432681D01*
X151350258Y-48374527D01*
X151350255Y-48374525D01*
X151347149Y-48371577D01*
X151113683Y-48203814D01*
X151091843Y-48192250D01*
X151054143Y-48172289D01*
X150859608Y-48069288D01*
X150688884Y-48006812D01*
X150593658Y-47971964D01*
X150593656Y-47971963D01*
X150589627Y-47970489D01*
X150308736Y-47909245D01*
X150277685Y-47906801D01*
X150085718Y-47891693D01*
X150085709Y-47891693D01*
X150083261Y-47891500D01*
X149927729Y-47891500D01*
X149925593Y-47891646D01*
X149925582Y-47891646D01*
X149717452Y-47905835D01*
X149717446Y-47905836D01*
X149713175Y-47906127D01*
X149708980Y-47906996D01*
X149708978Y-47906996D01*
X149615251Y-47926406D01*
X149431658Y-47964426D01*
X149160657Y-48060393D01*
X149156848Y-48062359D01*
X148973928Y-48156771D01*
X148905188Y-48192250D01*
X148901687Y-48194711D01*
X148901683Y-48194713D01*
X148787583Y-48274904D01*
X148669977Y-48357559D01*
X148459378Y-48553260D01*
X148277287Y-48775732D01*
X148127073Y-49020858D01*
X148011517Y-49284102D01*
X148010342Y-49288229D01*
X148010341Y-49288230D01*
X147983845Y-49381245D01*
X147932756Y-49560594D01*
X147892249Y-49845216D01*
X147892227Y-49849505D01*
X147892226Y-49849512D01*
X147890765Y-50128417D01*
X147890743Y-50132703D01*
X145153042Y-50132703D01*
X145153042Y-49980376D01*
X145148567Y-49965137D01*
X145147177Y-49963932D01*
X145139494Y-49962261D01*
X143417157Y-49962261D01*
X143401918Y-49966736D01*
X143400713Y-49968126D01*
X143399042Y-49975809D01*
X143399042Y-51698146D01*
X142915896Y-51698146D01*
X142902428Y-51682603D01*
X142891042Y-51630261D01*
X142891042Y-49980376D01*
X142886567Y-49965137D01*
X142885177Y-49963932D01*
X142877494Y-49962261D01*
X141155158Y-49962261D01*
X141139919Y-49966736D01*
X141138714Y-49968126D01*
X141137043Y-49975809D01*
X141137043Y-50655022D01*
X141117041Y-50723143D01*
X141063385Y-50769636D01*
X141019016Y-50780497D01*
X141019028Y-50780609D01*
X141018215Y-50780693D01*
X141017563Y-50780853D01*
X141015792Y-50780945D01*
X140920184Y-50790865D01*
X140906790Y-50793757D01*
X140752606Y-50845196D01*
X140739428Y-50851369D01*
X140601583Y-50936671D01*
X140590182Y-50945707D01*
X140475651Y-51060437D01*
X140466639Y-51071848D01*
X140377732Y-51216083D01*
X140375791Y-51214887D01*
X140336174Y-51259883D01*
X140267897Y-51279345D01*
X140199937Y-51258804D01*
X140175701Y-51238148D01*
X140096227Y-51150806D01*
X140096218Y-51150797D01*
X140092746Y-51146982D01*
X140088695Y-51143783D01*
X140088691Y-51143779D01*
X139918909Y-51009693D01*
X139918905Y-51009691D01*
X139914854Y-51006491D01*
X139817275Y-50952625D01*
X139767305Y-50902192D01*
X139752533Y-50832749D01*
X139767438Y-50782194D01*
X139893460Y-50550091D01*
X139893461Y-50550089D01*
X139895510Y-50546315D01*
X139957834Y-50381380D01*
X139990793Y-50294156D01*
X139990794Y-50294152D01*
X139992311Y-50290138D01*
X140034250Y-50107023D01*
X140052491Y-50027378D01*
X140052492Y-50027374D01*
X140053449Y-50023194D01*
X140053996Y-50017073D01*
X140077573Y-49752888D01*
X140077573Y-49752886D01*
X140077793Y-49750422D01*
X140078235Y-49708261D01*
X140076159Y-49677807D01*
X140059901Y-49439316D01*
X140059900Y-49439310D01*
X140059684Y-49436146D01*
X141137042Y-49436146D01*
X141141517Y-49451385D01*
X141142907Y-49452590D01*
X141150590Y-49454261D01*
X142872927Y-49454261D01*
X142888166Y-49449786D01*
X142889371Y-49448396D01*
X142891042Y-49440713D01*
X142891042Y-49436146D01*
X143399042Y-49436146D01*
X143403517Y-49451385D01*
X143404907Y-49452590D01*
X143412590Y-49454261D01*
X145134926Y-49454261D01*
X145150165Y-49449786D01*
X145151370Y-49448396D01*
X145153041Y-49440713D01*
X145153041Y-48163592D01*
X145152671Y-48156771D01*
X145147147Y-48105909D01*
X145143521Y-48090657D01*
X145098366Y-47970207D01*
X145089828Y-47954612D01*
X145013327Y-47852537D01*
X145000766Y-47839976D01*
X144898691Y-47763475D01*
X144883096Y-47754937D01*
X144762648Y-47709783D01*
X144747393Y-47706156D01*
X144696528Y-47700630D01*
X144689714Y-47700261D01*
X143417157Y-47700261D01*
X143401918Y-47704736D01*
X143400713Y-47706126D01*
X143399042Y-47713809D01*
X143399042Y-49436146D01*
X142891042Y-49436146D01*
X142891042Y-47718377D01*
X142886567Y-47703138D01*
X142885177Y-47701933D01*
X142877494Y-47700262D01*
X141600373Y-47700262D01*
X141593552Y-47700632D01*
X141542690Y-47706156D01*
X141527438Y-47709782D01*
X141406988Y-47754937D01*
X141391393Y-47763475D01*
X141289318Y-47839976D01*
X141276757Y-47852537D01*
X141200256Y-47954612D01*
X141191718Y-47970207D01*
X141146564Y-48090655D01*
X141142937Y-48105910D01*
X141137411Y-48156775D01*
X141137042Y-48163589D01*
X141137042Y-49436146D01*
X140059684Y-49436146D01*
X140059609Y-49435039D01*
X140039895Y-49339842D01*
X140026330Y-49274340D01*
X140004074Y-49166873D01*
X139912659Y-48908726D01*
X139787055Y-48665373D01*
X139777633Y-48651966D01*
X139632050Y-48444823D01*
X139629587Y-48441318D01*
X139443167Y-48240706D01*
X139439852Y-48237992D01*
X139439848Y-48237989D01*
X139263258Y-48093452D01*
X139231247Y-48067251D01*
X138997746Y-47924162D01*
X138985880Y-47918953D01*
X138750915Y-47815810D01*
X138750911Y-47815809D01*
X138746987Y-47814086D01*
X138483608Y-47739061D01*
X138479366Y-47738457D01*
X138479360Y-47738456D01*
X138252408Y-47706156D01*
X138212485Y-47700474D01*
X138068631Y-47699721D01*
X137942919Y-47699063D01*
X137942913Y-47699063D01*
X137938633Y-47699041D01*
X137934389Y-47699600D01*
X137934385Y-47699600D01*
X137826458Y-47713809D01*
X137667120Y-47734786D01*
X137662980Y-47735919D01*
X137662978Y-47735919D01*
X137593460Y-47754937D01*
X137402970Y-47807049D01*
X137399022Y-47808733D01*
X137155024Y-47912807D01*
X137155020Y-47912809D01*
X137151072Y-47914493D01*
X137049074Y-47975537D01*
X136919767Y-48052925D01*
X136919763Y-48052928D01*
X136916085Y-48055129D01*
X136702360Y-48226355D01*
X136647694Y-48283961D01*
X136532807Y-48405027D01*
X136513850Y-48425003D01*
X136354044Y-48647397D01*
X136225899Y-48889422D01*
X136224427Y-48893445D01*
X136224425Y-48893449D01*
X136179138Y-49017201D01*
X136131785Y-49146598D01*
X136073446Y-49414168D01*
X136051959Y-49687179D01*
X128866603Y-49687179D01*
X128866998Y-49682748D01*
X128866998Y-49682746D01*
X128867218Y-49680282D01*
X128867660Y-49638121D01*
X128867056Y-49629258D01*
X128849326Y-49369176D01*
X128849325Y-49369170D01*
X128849034Y-49364899D01*
X128847678Y-49358348D01*
X128803826Y-49146598D01*
X128793499Y-49096733D01*
X128702084Y-48838586D01*
X128605762Y-48651966D01*
X128578445Y-48599040D01*
X128578445Y-48599039D01*
X128576480Y-48595233D01*
X128566507Y-48581042D01*
X128468307Y-48441318D01*
X128419012Y-48371178D01*
X128281947Y-48223678D01*
X128235513Y-48173709D01*
X128235510Y-48173706D01*
X128232592Y-48170566D01*
X128229277Y-48167852D01*
X128229273Y-48167849D01*
X128138374Y-48093449D01*
X129926467Y-48093449D01*
X129926468Y-49366006D01*
X129930943Y-49381245D01*
X129932333Y-49382450D01*
X129940016Y-49384121D01*
X131662352Y-49384121D01*
X131677591Y-49379646D01*
X131678796Y-49378256D01*
X131680467Y-49370573D01*
X131680467Y-49366006D01*
X132188467Y-49366006D01*
X132192942Y-49381245D01*
X132194332Y-49382450D01*
X132202015Y-49384121D01*
X133924351Y-49384121D01*
X133939590Y-49379646D01*
X133940795Y-49378256D01*
X133942466Y-49370573D01*
X133942466Y-48093452D01*
X133942096Y-48086631D01*
X133936572Y-48035769D01*
X133932946Y-48020517D01*
X133887791Y-47900067D01*
X133879253Y-47884472D01*
X133802752Y-47782397D01*
X133790191Y-47769836D01*
X133688116Y-47693335D01*
X133672521Y-47684797D01*
X133552073Y-47639643D01*
X133536818Y-47636016D01*
X133485953Y-47630490D01*
X133479139Y-47630121D01*
X132206582Y-47630121D01*
X132191343Y-47634596D01*
X132190138Y-47635986D01*
X132188467Y-47643669D01*
X132188467Y-49366006D01*
X131680467Y-49366006D01*
X131680467Y-47648237D01*
X131675992Y-47632998D01*
X131674602Y-47631793D01*
X131666919Y-47630122D01*
X130389798Y-47630122D01*
X130382977Y-47630492D01*
X130332115Y-47636016D01*
X130316863Y-47639642D01*
X130196413Y-47684797D01*
X130180818Y-47693335D01*
X130078743Y-47769836D01*
X130066182Y-47782397D01*
X129989681Y-47884472D01*
X129981143Y-47900067D01*
X129935989Y-48020515D01*
X129932362Y-48035770D01*
X129926836Y-48086635D01*
X129926467Y-48093449D01*
X128138374Y-48093449D01*
X128067903Y-48035769D01*
X128020672Y-47997111D01*
X127787171Y-47854022D01*
X127763017Y-47843419D01*
X127540340Y-47745670D01*
X127540336Y-47745669D01*
X127536412Y-47743946D01*
X127351255Y-47691203D01*
X127305460Y-47667109D01*
X127295873Y-47659178D01*
X127287092Y-47651188D01*
X126609791Y-46973886D01*
X126602257Y-46965607D01*
X126598144Y-46959126D01*
X126548492Y-46912500D01*
X126545651Y-46909746D01*
X126525914Y-46890009D01*
X126522717Y-46887529D01*
X126513695Y-46879824D01*
X126500260Y-46867208D01*
X126481465Y-46849558D01*
X126474519Y-46845739D01*
X126474516Y-46845737D01*
X126463710Y-46839796D01*
X126447191Y-46828945D01*
X126446727Y-46828585D01*
X126431185Y-46816530D01*
X126423916Y-46813385D01*
X126423912Y-46813382D01*
X126390607Y-46798970D01*
X126379957Y-46793753D01*
X126341204Y-46772449D01*
X126321581Y-46767411D01*
X126302878Y-46761007D01*
X126291564Y-46756111D01*
X126291563Y-46756111D01*
X126284289Y-46752963D01*
X126276466Y-46751724D01*
X126276456Y-46751721D01*
X126240620Y-46746045D01*
X126229000Y-46743639D01*
X126193855Y-46734616D01*
X126193854Y-46734616D01*
X126186174Y-46732644D01*
X126165920Y-46732644D01*
X126146209Y-46731093D01*
X126134030Y-46729164D01*
X126126201Y-46727924D01*
X126096930Y-46730691D01*
X126082183Y-46732085D01*
X126070325Y-46732644D01*
X120352623Y-46732644D01*
X120341440Y-46732117D01*
X120333947Y-46730442D01*
X120326021Y-46730691D01*
X120326020Y-46730691D01*
X120265870Y-46732582D01*
X120261911Y-46732644D01*
X120234000Y-46732644D01*
X120230066Y-46733141D01*
X120230065Y-46733141D01*
X120230000Y-46733149D01*
X120218163Y-46734082D01*
X120186346Y-46735082D01*
X120181885Y-46735222D01*
X120173966Y-46735471D01*
X120156310Y-46740600D01*
X120154514Y-46741122D01*
X120135162Y-46745130D01*
X120128091Y-46746024D01*
X120115059Y-46747670D01*
X120107690Y-46750587D01*
X120107688Y-46750588D01*
X120073953Y-46763944D01*
X120062725Y-46767789D01*
X120020263Y-46780126D01*
X120013441Y-46784160D01*
X120013435Y-46784163D01*
X120002824Y-46790438D01*
X119985074Y-46799134D01*
X119973612Y-46803672D01*
X119973607Y-46803675D01*
X119966239Y-46806592D01*
X119948826Y-46819243D01*
X119930481Y-46832571D01*
X119920563Y-46839087D01*
X119909319Y-46845737D01*
X119882493Y-46861602D01*
X119868169Y-46875926D01*
X119853137Y-46888765D01*
X119836749Y-46900672D01*
X119808568Y-46934737D01*
X119800578Y-46943517D01*
X118987747Y-47756348D01*
X118979461Y-47763888D01*
X118972982Y-47768000D01*
X118967557Y-47773777D01*
X118926357Y-47817651D01*
X118923602Y-47820493D01*
X118903865Y-47840230D01*
X118901385Y-47843427D01*
X118893682Y-47852447D01*
X118863414Y-47884679D01*
X118859595Y-47891625D01*
X118859593Y-47891628D01*
X118853652Y-47902434D01*
X118842801Y-47918953D01*
X118830386Y-47934959D01*
X118827241Y-47942228D01*
X118827238Y-47942232D01*
X118812826Y-47975537D01*
X118807609Y-47986187D01*
X118786305Y-48024940D01*
X118784334Y-48032615D01*
X118784334Y-48032616D01*
X118781267Y-48044562D01*
X118774863Y-48063266D01*
X118774108Y-48065012D01*
X118766819Y-48081855D01*
X118765580Y-48089678D01*
X118765577Y-48089688D01*
X118759901Y-48125524D01*
X118757495Y-48137144D01*
X118746500Y-48179970D01*
X118746500Y-48200224D01*
X118744949Y-48219934D01*
X118741780Y-48239943D01*
X118742526Y-48247835D01*
X118745941Y-48283961D01*
X118746500Y-48295819D01*
X118746500Y-50566472D01*
X118726498Y-50634593D01*
X118709595Y-50655567D01*
X117926571Y-51438591D01*
X117864259Y-51472617D01*
X117793444Y-51467552D01*
X117781377Y-51459280D01*
X117746695Y-51449320D01*
X116700193Y-51449320D01*
X116684954Y-51453795D01*
X116683749Y-51455185D01*
X116682078Y-51462868D01*
X116682078Y-52513837D01*
X116694815Y-52557214D01*
X116702771Y-52569594D01*
X116702773Y-52640590D01*
X116670971Y-52694190D01*
X116090729Y-53274432D01*
X116028417Y-53308458D01*
X116001634Y-53311337D01*
X99119307Y-53311337D01*
X99051186Y-53291335D01*
X99031960Y-53274994D01*
X99031687Y-53275297D01*
X99026775Y-53270874D01*
X99022360Y-53265971D01*
X98965031Y-53224319D01*
X98873201Y-53157600D01*
X98873200Y-53157599D01*
X98867859Y-53153719D01*
X98861831Y-53151035D01*
X98861829Y-53151034D01*
X98699426Y-53078728D01*
X98699425Y-53078728D01*
X98693395Y-53076043D01*
X98594881Y-53055103D01*
X98513051Y-53037709D01*
X98513046Y-53037709D01*
X98506594Y-53036337D01*
X98315620Y-53036337D01*
X98309168Y-53037709D01*
X98309163Y-53037709D01*
X98227333Y-53055103D01*
X98128819Y-53076043D01*
X98122789Y-53078728D01*
X98122788Y-53078728D01*
X97960385Y-53151034D01*
X97960383Y-53151035D01*
X97954355Y-53153719D01*
X97949014Y-53157599D01*
X97949013Y-53157600D01*
X97898950Y-53193973D01*
X97799854Y-53265971D01*
X97795433Y-53270881D01*
X97795432Y-53270882D01*
X97677133Y-53402267D01*
X97672067Y-53407893D01*
X97657749Y-53432693D01*
X97597943Y-53536280D01*
X97576580Y-53573281D01*
X97517565Y-53754909D01*
X97497603Y-53944837D01*
X96520000Y-53944837D01*
X96520000Y-50132703D01*
X97890743Y-50132703D01*
X97891302Y-50136947D01*
X97891302Y-50136951D01*
X97902908Y-50225107D01*
X97928268Y-50417734D01*
X97929401Y-50421874D01*
X97929401Y-50421876D01*
X97934197Y-50439406D01*
X98004129Y-50695036D01*
X98005813Y-50698984D01*
X98114001Y-50952625D01*
X98116923Y-50959476D01*
X98191473Y-51084040D01*
X98262347Y-51202461D01*
X98264561Y-51206161D01*
X98444313Y-51430528D01*
X98488666Y-51472617D01*
X98646239Y-51622148D01*
X98652851Y-51628423D01*
X98886317Y-51796186D01*
X98890112Y-51798195D01*
X98890113Y-51798196D01*
X98911869Y-51809715D01*
X99140392Y-51930712D01*
X99410373Y-52029511D01*
X99691264Y-52090755D01*
X99716029Y-52092704D01*
X99914282Y-52108307D01*
X99914291Y-52108307D01*
X99916739Y-52108500D01*
X100072271Y-52108500D01*
X100074407Y-52108354D01*
X100074418Y-52108354D01*
X100282548Y-52094165D01*
X100282554Y-52094164D01*
X100286825Y-52093873D01*
X100291020Y-52093004D01*
X100291022Y-52093004D01*
X100427584Y-52064723D01*
X100568342Y-52035574D01*
X100839343Y-51939607D01*
X101026257Y-51843134D01*
X101091005Y-51809715D01*
X101091006Y-51809715D01*
X101094812Y-51807750D01*
X101098313Y-51805289D01*
X101098317Y-51805287D01*
X101250763Y-51698146D01*
X101330023Y-51642441D01*
X101414452Y-51563985D01*
X101537479Y-51449661D01*
X101537481Y-51449658D01*
X101540622Y-51446740D01*
X101722713Y-51224268D01*
X101872927Y-50979142D01*
X101875323Y-50973685D01*
X101986757Y-50719830D01*
X101988483Y-50715898D01*
X102067244Y-50439406D01*
X102105127Y-50173225D01*
X102107146Y-50159036D01*
X102107146Y-50159034D01*
X102107751Y-50154784D01*
X102107845Y-50136951D01*
X102109235Y-49871583D01*
X102109235Y-49871576D01*
X102109257Y-49867297D01*
X102107169Y-49851432D01*
X102088647Y-49710745D01*
X102071732Y-49582266D01*
X101995871Y-49304964D01*
X101936970Y-49166873D01*
X101884763Y-49044476D01*
X101884761Y-49044472D01*
X101883077Y-49040524D01*
X101806616Y-48912767D01*
X101737643Y-48797521D01*
X101737640Y-48797517D01*
X101735439Y-48793839D01*
X101597782Y-48622015D01*
X104905329Y-48622015D01*
X104905626Y-48627168D01*
X104905626Y-48627171D01*
X104911089Y-48721910D01*
X104918188Y-48845035D01*
X104919325Y-48850081D01*
X104919326Y-48850087D01*
X104933452Y-48912767D01*
X104967300Y-49062959D01*
X105051344Y-49269936D01*
X105099364Y-49348298D01*
X105165369Y-49456008D01*
X105168065Y-49460408D01*
X105314328Y-49629258D01*
X105318308Y-49632562D01*
X105323059Y-49636507D01*
X105362694Y-49695410D01*
X105364191Y-49766391D01*
X105327075Y-49826913D01*
X105286803Y-49851432D01*
X105233051Y-49871583D01*
X105171373Y-49894705D01*
X105054817Y-49982059D01*
X104967463Y-50098615D01*
X104916333Y-50235004D01*
X104909578Y-50297186D01*
X104909578Y-52093454D01*
X104916333Y-52155636D01*
X104967463Y-52292025D01*
X105054817Y-52408581D01*
X105171373Y-52495935D01*
X105307762Y-52547065D01*
X105369944Y-52553820D01*
X107166212Y-52553820D01*
X107228394Y-52547065D01*
X107364783Y-52495935D01*
X107481339Y-52408581D01*
X107568693Y-52292025D01*
X107593378Y-52226178D01*
X107612876Y-52174168D01*
X107655518Y-52117404D01*
X107722079Y-52092704D01*
X107791428Y-52107912D01*
X107826095Y-52135900D01*
X107851296Y-52164993D01*
X107858658Y-52172203D01*
X108022512Y-52308236D01*
X108030959Y-52314151D01*
X108214834Y-52421599D01*
X108224120Y-52426049D01*
X108423079Y-52502023D01*
X108432977Y-52504899D01*
X108536328Y-52525926D01*
X108550377Y-52524730D01*
X108554078Y-52514385D01*
X108554078Y-52513837D01*
X109062078Y-52513837D01*
X109066142Y-52527679D01*
X109079556Y-52529713D01*
X109086262Y-52528854D01*
X109096340Y-52526712D01*
X109300333Y-52465511D01*
X109309920Y-52461753D01*
X109501173Y-52368059D01*
X109510023Y-52362784D01*
X109683406Y-52239112D01*
X109691278Y-52232459D01*
X109842130Y-52082132D01*
X109848808Y-52074285D01*
X109976100Y-51897139D01*
X109977225Y-51897947D01*
X110024747Y-51854196D01*
X110094685Y-51841981D01*
X110160124Y-51869517D01*
X110187948Y-51901348D01*
X110245768Y-51995703D01*
X110251855Y-52004019D01*
X110391291Y-52164987D01*
X110398658Y-52172203D01*
X110562512Y-52308236D01*
X110570959Y-52314151D01*
X110754834Y-52421599D01*
X110764120Y-52426049D01*
X110963079Y-52502023D01*
X110972977Y-52504899D01*
X111076328Y-52525926D01*
X111090377Y-52524730D01*
X111094078Y-52514385D01*
X111094078Y-52513837D01*
X111602078Y-52513837D01*
X111606142Y-52527679D01*
X111619556Y-52529713D01*
X111626262Y-52528854D01*
X111636340Y-52526712D01*
X111840333Y-52465511D01*
X111849920Y-52461753D01*
X112041173Y-52368059D01*
X112050023Y-52362784D01*
X112223406Y-52239112D01*
X112231278Y-52232459D01*
X112382130Y-52082132D01*
X112388808Y-52074285D01*
X112516100Y-51897139D01*
X112517225Y-51897947D01*
X112564747Y-51854196D01*
X112634685Y-51841981D01*
X112700124Y-51869517D01*
X112727948Y-51901348D01*
X112785768Y-51995703D01*
X112791855Y-52004019D01*
X112931291Y-52164987D01*
X112938658Y-52172203D01*
X113102512Y-52308236D01*
X113110959Y-52314151D01*
X113294834Y-52421599D01*
X113304120Y-52426049D01*
X113503079Y-52502023D01*
X113512977Y-52504899D01*
X113616328Y-52525926D01*
X113630377Y-52524730D01*
X113634078Y-52514385D01*
X113634078Y-52513837D01*
X114142078Y-52513837D01*
X114146142Y-52527679D01*
X114159556Y-52529713D01*
X114166262Y-52528854D01*
X114176340Y-52526712D01*
X114380333Y-52465511D01*
X114389920Y-52461753D01*
X114581173Y-52368059D01*
X114590023Y-52362784D01*
X114763406Y-52239112D01*
X114771278Y-52232459D01*
X114922130Y-52082132D01*
X114928808Y-52074285D01*
X115056100Y-51897139D01*
X115057225Y-51897947D01*
X115104747Y-51854196D01*
X115174685Y-51841981D01*
X115240124Y-51869517D01*
X115267948Y-51901348D01*
X115325768Y-51995703D01*
X115331855Y-52004019D01*
X115471291Y-52164987D01*
X115478658Y-52172203D01*
X115642512Y-52308236D01*
X115650959Y-52314151D01*
X115834834Y-52421599D01*
X115844120Y-52426049D01*
X116043079Y-52502023D01*
X116052977Y-52504899D01*
X116156328Y-52525926D01*
X116170377Y-52524730D01*
X116174078Y-52514385D01*
X116174078Y-51467435D01*
X116169603Y-51452196D01*
X116168213Y-51450991D01*
X116160530Y-51449320D01*
X114160193Y-51449320D01*
X114144954Y-51453795D01*
X114143749Y-51455185D01*
X114142078Y-51462868D01*
X114142078Y-52513837D01*
X113634078Y-52513837D01*
X113634078Y-51467435D01*
X113629603Y-51452196D01*
X113628213Y-51450991D01*
X113620530Y-51449320D01*
X111620193Y-51449320D01*
X111604954Y-51453795D01*
X111603749Y-51455185D01*
X111602078Y-51462868D01*
X111602078Y-52513837D01*
X111094078Y-52513837D01*
X111094078Y-51467435D01*
X111089603Y-51452196D01*
X111088213Y-51450991D01*
X111080530Y-51449320D01*
X109080193Y-51449320D01*
X109064954Y-51453795D01*
X109063749Y-51455185D01*
X109062078Y-51462868D01*
X109062078Y-52513837D01*
X108554078Y-52513837D01*
X108554078Y-51067320D01*
X108574080Y-50999199D01*
X108627736Y-50952706D01*
X108680078Y-50941320D01*
X117746422Y-50941320D01*
X117759953Y-50937347D01*
X117761258Y-50928267D01*
X117719292Y-50761195D01*
X117715972Y-50751444D01*
X117631050Y-50556134D01*
X117626183Y-50547059D01*
X117510504Y-50368246D01*
X117504214Y-50360077D01*
X117360884Y-50202560D01*
X117353351Y-50195535D01*
X117186217Y-50063542D01*
X117177634Y-50057840D01*
X117140680Y-50037440D01*
X117090709Y-49987007D01*
X117075937Y-49917565D01*
X117101053Y-49851159D01*
X117128405Y-49824552D01*
X117152118Y-49807638D01*
X117307938Y-49696493D01*
X117326690Y-49677807D01*
X117462513Y-49542457D01*
X117466174Y-49538809D01*
X117525672Y-49456009D01*
X117593513Y-49361597D01*
X117596531Y-49357397D01*
X117603139Y-49344028D01*
X117693214Y-49161773D01*
X117693215Y-49161771D01*
X117695508Y-49157131D01*
X117760448Y-48943389D01*
X117789607Y-48721910D01*
X117789689Y-48718560D01*
X117791152Y-48658685D01*
X117791152Y-48658681D01*
X117791234Y-48655320D01*
X117772930Y-48432681D01*
X117718509Y-48216022D01*
X117629432Y-48011160D01*
X117574602Y-47926406D01*
X117510900Y-47827937D01*
X117510898Y-47827934D01*
X117508092Y-47823597D01*
X117357748Y-47658371D01*
X117353697Y-47655172D01*
X117353693Y-47655168D01*
X117186492Y-47523120D01*
X117186488Y-47523118D01*
X117182437Y-47519918D01*
X116986867Y-47411958D01*
X116981998Y-47410234D01*
X116981994Y-47410232D01*
X116781165Y-47339115D01*
X116781161Y-47339114D01*
X116776290Y-47337389D01*
X116771197Y-47336482D01*
X116771194Y-47336481D01*
X116561451Y-47299120D01*
X116561445Y-47299119D01*
X116556362Y-47298214D01*
X116482530Y-47297312D01*
X116338159Y-47295548D01*
X116338157Y-47295548D01*
X116332989Y-47295485D01*
X116112169Y-47329275D01*
X115899834Y-47398677D01*
X115701685Y-47501827D01*
X115697552Y-47504930D01*
X115697549Y-47504932D01*
X115530319Y-47630492D01*
X115523043Y-47635955D01*
X115519471Y-47639693D01*
X115383100Y-47782397D01*
X115368707Y-47797458D01*
X115261279Y-47954941D01*
X115206371Y-47999941D01*
X115135846Y-48008112D01*
X115072099Y-47976858D01*
X115051402Y-47952374D01*
X114970900Y-47827937D01*
X114970898Y-47827934D01*
X114968092Y-47823597D01*
X114817748Y-47658371D01*
X114813697Y-47655172D01*
X114813693Y-47655168D01*
X114646492Y-47523120D01*
X114646488Y-47523118D01*
X114642437Y-47519918D01*
X114446867Y-47411958D01*
X114441998Y-47410234D01*
X114441994Y-47410232D01*
X114241165Y-47339115D01*
X114241161Y-47339114D01*
X114236290Y-47337389D01*
X114231197Y-47336482D01*
X114231194Y-47336481D01*
X114021451Y-47299120D01*
X114021445Y-47299119D01*
X114016362Y-47298214D01*
X113942530Y-47297312D01*
X113798159Y-47295548D01*
X113798157Y-47295548D01*
X113792989Y-47295485D01*
X113572169Y-47329275D01*
X113359834Y-47398677D01*
X113161685Y-47501827D01*
X113157552Y-47504930D01*
X113157549Y-47504932D01*
X112990319Y-47630492D01*
X112983043Y-47635955D01*
X112979471Y-47639693D01*
X112843100Y-47782397D01*
X112828707Y-47797458D01*
X112721279Y-47954941D01*
X112666371Y-47999941D01*
X112595846Y-48008112D01*
X112532099Y-47976858D01*
X112511402Y-47952374D01*
X112430900Y-47827937D01*
X112430898Y-47827934D01*
X112428092Y-47823597D01*
X112277748Y-47658371D01*
X112273697Y-47655172D01*
X112273693Y-47655168D01*
X112106492Y-47523120D01*
X112106488Y-47523118D01*
X112102437Y-47519918D01*
X111906867Y-47411958D01*
X111901998Y-47410234D01*
X111901994Y-47410232D01*
X111701165Y-47339115D01*
X111701161Y-47339114D01*
X111696290Y-47337389D01*
X111691197Y-47336482D01*
X111691194Y-47336481D01*
X111481451Y-47299120D01*
X111481445Y-47299119D01*
X111476362Y-47298214D01*
X111402530Y-47297312D01*
X111258159Y-47295548D01*
X111258157Y-47295548D01*
X111252989Y-47295485D01*
X111032169Y-47329275D01*
X110819834Y-47398677D01*
X110621685Y-47501827D01*
X110617552Y-47504930D01*
X110617549Y-47504932D01*
X110450319Y-47630492D01*
X110443043Y-47635955D01*
X110439471Y-47639693D01*
X110303100Y-47782397D01*
X110288707Y-47797458D01*
X110181279Y-47954941D01*
X110126371Y-47999941D01*
X110055846Y-48008112D01*
X109992099Y-47976858D01*
X109971402Y-47952374D01*
X109890900Y-47827937D01*
X109890898Y-47827934D01*
X109888092Y-47823597D01*
X109737748Y-47658371D01*
X109733697Y-47655172D01*
X109733693Y-47655168D01*
X109566492Y-47523120D01*
X109566488Y-47523118D01*
X109562437Y-47519918D01*
X109366867Y-47411958D01*
X109361998Y-47410234D01*
X109361994Y-47410232D01*
X109161165Y-47339115D01*
X109161161Y-47339114D01*
X109156290Y-47337389D01*
X109151197Y-47336482D01*
X109151194Y-47336481D01*
X108941451Y-47299120D01*
X108941445Y-47299119D01*
X108936362Y-47298214D01*
X108862530Y-47297312D01*
X108718159Y-47295548D01*
X108718157Y-47295548D01*
X108712989Y-47295485D01*
X108492169Y-47329275D01*
X108279834Y-47398677D01*
X108081685Y-47501827D01*
X108077552Y-47504930D01*
X108077549Y-47504932D01*
X107910319Y-47630492D01*
X107903043Y-47635955D01*
X107899471Y-47639693D01*
X107763100Y-47782397D01*
X107748707Y-47797458D01*
X107641279Y-47954941D01*
X107586371Y-47999941D01*
X107515846Y-48008112D01*
X107452099Y-47976858D01*
X107431402Y-47952374D01*
X107350900Y-47827937D01*
X107350898Y-47827934D01*
X107348092Y-47823597D01*
X107197748Y-47658371D01*
X107193697Y-47655172D01*
X107193693Y-47655168D01*
X107026492Y-47523120D01*
X107026488Y-47523118D01*
X107022437Y-47519918D01*
X106826867Y-47411958D01*
X106821998Y-47410234D01*
X106821994Y-47410232D01*
X106621165Y-47339115D01*
X106621161Y-47339114D01*
X106616290Y-47337389D01*
X106611197Y-47336482D01*
X106611194Y-47336481D01*
X106401451Y-47299120D01*
X106401445Y-47299119D01*
X106396362Y-47298214D01*
X106322530Y-47297312D01*
X106178159Y-47295548D01*
X106178157Y-47295548D01*
X106172989Y-47295485D01*
X105952169Y-47329275D01*
X105739834Y-47398677D01*
X105541685Y-47501827D01*
X105537552Y-47504930D01*
X105537549Y-47504932D01*
X105370319Y-47630492D01*
X105363043Y-47635955D01*
X105359471Y-47639693D01*
X105223100Y-47782397D01*
X105208707Y-47797458D01*
X105205798Y-47801723D01*
X105205792Y-47801731D01*
X105174148Y-47848120D01*
X105082821Y-47982000D01*
X105057862Y-48035770D01*
X104998531Y-48163589D01*
X104988766Y-48184625D01*
X104929067Y-48399890D01*
X104905329Y-48622015D01*
X101597782Y-48622015D01*
X101555687Y-48569472D01*
X101411539Y-48432681D01*
X101350258Y-48374527D01*
X101350255Y-48374525D01*
X101347149Y-48371577D01*
X101113683Y-48203814D01*
X101091843Y-48192250D01*
X101054143Y-48172289D01*
X100859608Y-48069288D01*
X100688884Y-48006812D01*
X100593658Y-47971964D01*
X100593656Y-47971963D01*
X100589627Y-47970489D01*
X100308736Y-47909245D01*
X100277685Y-47906801D01*
X100085718Y-47891693D01*
X100085709Y-47891693D01*
X100083261Y-47891500D01*
X99927729Y-47891500D01*
X99925593Y-47891646D01*
X99925582Y-47891646D01*
X99717452Y-47905835D01*
X99717446Y-47905836D01*
X99713175Y-47906127D01*
X99708980Y-47906996D01*
X99708978Y-47906996D01*
X99615251Y-47926406D01*
X99431658Y-47964426D01*
X99160657Y-48060393D01*
X99156848Y-48062359D01*
X98973928Y-48156771D01*
X98905188Y-48192250D01*
X98901687Y-48194711D01*
X98901683Y-48194713D01*
X98787583Y-48274904D01*
X98669977Y-48357559D01*
X98459378Y-48553260D01*
X98277287Y-48775732D01*
X98127073Y-49020858D01*
X98011517Y-49284102D01*
X98010342Y-49288229D01*
X98010341Y-49288230D01*
X97983845Y-49381245D01*
X97932756Y-49560594D01*
X97892249Y-49845216D01*
X97892227Y-49849505D01*
X97892226Y-49849512D01*
X97890765Y-50128417D01*
X97890743Y-50132703D01*
X96520000Y-50132703D01*
X96520000Y-45634500D01*
X96540002Y-45566379D01*
X96593658Y-45519886D01*
X96646000Y-45508500D01*
X154365500Y-45508500D01*
X154433621Y-45528502D01*
G37*
%TD.AperFunction*%
%TD*%
M02*
