%TF.GenerationSoftware,KiCad,Pcbnew,(6.0.10)*%
%TF.CreationDate,2023-02-11T22:55:32+01:00*%
%TF.ProjectId,schematics,73636865-6d61-4746-9963-732e6b696361,rev?*%
%TF.SameCoordinates,Original*%
%TF.FileFunction,Soldermask,Bot*%
%TF.FilePolarity,Negative*%
%FSLAX46Y46*%
G04 Gerber Fmt 4.6, Leading zero omitted, Abs format (unit mm)*
G04 Created by KiCad (PCBNEW (6.0.10)) date 2023-02-11 22:55:32*
%MOMM*%
%LPD*%
G01*
G04 APERTURE LIST*
G04 Aperture macros list*
%AMRoundRect*
0 Rectangle with rounded corners*
0 $1 Rounding radius*
0 $2 $3 $4 $5 $6 $7 $8 $9 X,Y pos of 4 corners*
0 Add a 4 corners polygon primitive as box body*
4,1,4,$2,$3,$4,$5,$6,$7,$8,$9,$2,$3,0*
0 Add four circle primitives for the rounded corners*
1,1,$1+$1,$2,$3*
1,1,$1+$1,$4,$5*
1,1,$1+$1,$6,$7*
1,1,$1+$1,$8,$9*
0 Add four rect primitives between the rounded corners*
20,1,$1+$1,$2,$3,$4,$5,0*
20,1,$1+$1,$4,$5,$6,$7,0*
20,1,$1+$1,$6,$7,$8,$9,0*
20,1,$1+$1,$8,$9,$2,$3,0*%
G04 Aperture macros list end*
%ADD10R,1.730000X2.030000*%
%ADD11O,1.730000X2.030000*%
%ADD12C,3.200000*%
%ADD13RoundRect,0.250000X0.620000X0.620000X-0.620000X0.620000X-0.620000X-0.620000X0.620000X-0.620000X0*%
%ADD14C,1.740000*%
%ADD15R,3.000000X3.000000*%
%ADD16C,3.000000*%
%ADD17R,1.600000X1.600000*%
%ADD18C,1.600000*%
%ADD19C,1.100000*%
%ADD20R,2.030000X1.730000*%
%ADD21O,2.030000X1.730000*%
%ADD22R,1.700000X1.700000*%
%ADD23O,1.700000X1.700000*%
G04 APERTURE END LIST*
D10*
%TO.C,DMX_Out1*%
X143530502Y-81365400D03*
D11*
X140990502Y-81365400D03*
X138450502Y-81365400D03*
%TD*%
D12*
%TO.C,H4*%
X150000000Y-80000000D03*
%TD*%
%TO.C,H3*%
X150000000Y-50000000D03*
%TD*%
D13*
%TO.C,J3*%
X141689390Y-52158608D03*
D14*
X139149390Y-52158608D03*
%TD*%
D15*
%TO.C,Power1*%
X143145042Y-49708261D03*
D16*
X138065042Y-49708261D03*
%TD*%
D12*
%TO.C,H1*%
X100000000Y-50000000D03*
%TD*%
D17*
%TO.C,C3*%
X131836865Y-57689055D03*
X132507802Y-59289055D03*
D18*
X135007802Y-59289055D03*
X135678739Y-60889055D03*
%TD*%
D15*
%TO.C,LED2*%
X131934467Y-49638121D03*
D16*
X126854467Y-49638121D03*
X121774467Y-49638121D03*
%TD*%
D19*
%TO.C,J5*%
X128207135Y-83955794D03*
D10*
X133287135Y-81795794D03*
D11*
X130747135Y-81795794D03*
X128207135Y-81795794D03*
X125667135Y-81795794D03*
%TD*%
D20*
%TO.C,DMX_IN1*%
X149909094Y-57533932D03*
D21*
X149909094Y-60073932D03*
X149909094Y-62613932D03*
%TD*%
D12*
%TO.C,H2*%
X100000000Y-80000000D03*
%TD*%
D20*
%TO.C,DMX_thru1*%
X149971638Y-67478526D03*
D21*
X149971638Y-70018526D03*
X149971638Y-72558526D03*
%TD*%
D22*
%TO.C,J4*%
X106076973Y-80015000D03*
D23*
X106076973Y-77475000D03*
X108616973Y-80015000D03*
X108616973Y-77475000D03*
X111156973Y-80015000D03*
X111156973Y-77475000D03*
X113696973Y-80015000D03*
X113696973Y-77475000D03*
X116236973Y-80015000D03*
X116236973Y-77475000D03*
%TD*%
D22*
%TO.C,JTAG1*%
X106268078Y-51195320D03*
D23*
X106268078Y-48655320D03*
X108808078Y-51195320D03*
X108808078Y-48655320D03*
X111348078Y-51195320D03*
X111348078Y-48655320D03*
X113888078Y-51195320D03*
X113888078Y-48655320D03*
X116428078Y-51195320D03*
X116428078Y-48655320D03*
%TD*%
D10*
%TO.C,LED1*%
X129394467Y-51905957D03*
D11*
X126854467Y-51905957D03*
X124314467Y-51905957D03*
%TD*%
D17*
%TO.C,C2*%
X123334725Y-61363951D03*
X122663788Y-59763951D03*
D18*
X120163788Y-59763951D03*
X119492851Y-58163951D03*
%TD*%
M02*
