%TF.GenerationSoftware,KiCad,Pcbnew,(6.0.10)*%
%TF.CreationDate,2023-02-11T22:55:32+01:00*%
%TF.ProjectId,schematics,73636865-6d61-4746-9963-732e6b696361,rev?*%
%TF.SameCoordinates,Original*%
%TF.FileFunction,Soldermask,Top*%
%TF.FilePolarity,Negative*%
%FSLAX46Y46*%
G04 Gerber Fmt 4.6, Leading zero omitted, Abs format (unit mm)*
G04 Created by KiCad (PCBNEW (6.0.10)) date 2023-02-11 22:55:32*
%MOMM*%
%LPD*%
G01*
G04 APERTURE LIST*
G04 Aperture macros list*
%AMRoundRect*
0 Rectangle with rounded corners*
0 $1 Rounding radius*
0 $2 $3 $4 $5 $6 $7 $8 $9 X,Y pos of 4 corners*
0 Add a 4 corners polygon primitive as box body*
4,1,4,$2,$3,$4,$5,$6,$7,$8,$9,$2,$3,0*
0 Add four circle primitives for the rounded corners*
1,1,$1+$1,$2,$3*
1,1,$1+$1,$4,$5*
1,1,$1+$1,$6,$7*
1,1,$1+$1,$8,$9*
0 Add four rect primitives between the rounded corners*
20,1,$1+$1,$2,$3,$4,$5,0*
20,1,$1+$1,$4,$5,$6,$7,0*
20,1,$1+$1,$6,$7,$8,$9,0*
20,1,$1+$1,$8,$9,$2,$3,0*%
G04 Aperture macros list end*
%ADD10R,1.730000X2.030000*%
%ADD11O,1.730000X2.030000*%
%ADD12C,3.200000*%
%ADD13R,1.500000X2.000000*%
%ADD14R,3.800000X2.000000*%
%ADD15R,0.900000X1.500000*%
%ADD16R,1.500000X0.900000*%
%ADD17C,0.475000*%
%ADD18R,4.200000X4.200000*%
%ADD19RoundRect,0.250000X0.620000X0.620000X-0.620000X0.620000X-0.620000X-0.620000X0.620000X-0.620000X0*%
%ADD20C,1.740000*%
%ADD21R,3.000000X3.000000*%
%ADD22C,3.000000*%
%ADD23R,1.600000X1.600000*%
%ADD24C,1.600000*%
%ADD25RoundRect,0.250000X0.325000X1.100000X-0.325000X1.100000X-0.325000X-1.100000X0.325000X-1.100000X0*%
%ADD26C,1.100000*%
%ADD27RoundRect,0.250000X0.312500X0.625000X-0.312500X0.625000X-0.312500X-0.625000X0.312500X-0.625000X0*%
%ADD28RoundRect,0.250000X-0.625000X0.312500X-0.625000X-0.312500X0.625000X-0.312500X0.625000X0.312500X0*%
%ADD29R,2.030000X1.730000*%
%ADD30O,2.030000X1.730000*%
%ADD31RoundRect,0.150000X-0.587500X-0.150000X0.587500X-0.150000X0.587500X0.150000X-0.587500X0.150000X0*%
%ADD32RoundRect,0.150000X-0.712500X-0.150000X0.712500X-0.150000X0.712500X0.150000X-0.712500X0.150000X0*%
%ADD33R,1.700000X1.700000*%
%ADD34O,1.700000X1.700000*%
%ADD35RoundRect,0.250000X0.625000X-0.312500X0.625000X0.312500X-0.625000X0.312500X-0.625000X-0.312500X0*%
G04 APERTURE END LIST*
D10*
%TO.C,DMX_Out1*%
X143530502Y-81365400D03*
D11*
X140990502Y-81365400D03*
X138450502Y-81365400D03*
%TD*%
D12*
%TO.C,H4*%
X150000000Y-80000000D03*
%TD*%
%TO.C,H3*%
X150000000Y-50000000D03*
%TD*%
D13*
%TO.C,AMS1*%
X124220000Y-70171423D03*
X121920000Y-70171423D03*
D14*
X121920000Y-76471423D03*
D13*
X119620000Y-70171423D03*
%TD*%
D15*
%TO.C,ESP32-WROOM-32*%
X97141107Y-73202055D03*
X98411107Y-73202055D03*
X99681107Y-73202055D03*
X100951107Y-73202055D03*
X102221107Y-73202055D03*
X103491107Y-73202055D03*
X104761107Y-73202055D03*
X106031107Y-73202055D03*
X107301107Y-73202055D03*
X108571107Y-73202055D03*
X109841107Y-73202055D03*
X111111107Y-73202055D03*
X112381107Y-73202055D03*
X113651107Y-73202055D03*
D16*
X114901107Y-70162055D03*
X114901107Y-68892055D03*
X114901107Y-67622055D03*
X114901107Y-66352055D03*
X114901107Y-65082055D03*
X114901107Y-63812055D03*
X114901107Y-62542055D03*
X114901107Y-61272055D03*
X114901107Y-60002055D03*
X114901107Y-58732055D03*
D15*
X113651107Y-55702055D03*
X112381107Y-55702055D03*
X111111107Y-55702055D03*
X109841107Y-55702055D03*
X108571107Y-55702055D03*
X107301107Y-55702055D03*
X106031107Y-55702055D03*
X104761107Y-55702055D03*
X103491107Y-55702055D03*
X102221107Y-55702055D03*
X100951107Y-55702055D03*
X99681107Y-55702055D03*
X98411107Y-55702055D03*
X97141107Y-55702055D03*
D17*
X106006107Y-64369555D03*
X103718607Y-63607055D03*
X104481107Y-65894555D03*
X103718607Y-65132055D03*
X104481107Y-64369555D03*
X103718607Y-66657055D03*
X106006107Y-65894555D03*
X105243607Y-63607055D03*
X102956107Y-64369555D03*
X102956107Y-65894555D03*
X105243607Y-66657055D03*
X105243607Y-65132055D03*
D18*
X104481107Y-65132055D03*
%TD*%
D19*
%TO.C,J3*%
X141689390Y-52158608D03*
D20*
X139149390Y-52158608D03*
%TD*%
D21*
%TO.C,Power1*%
X143145042Y-49708261D03*
D22*
X138065042Y-49708261D03*
%TD*%
D12*
%TO.C,H1*%
X100000000Y-50000000D03*
%TD*%
D23*
%TO.C,C3*%
X131836865Y-57689055D03*
X132507802Y-59289055D03*
D24*
X135007802Y-59289055D03*
X135678739Y-60889055D03*
%TD*%
D25*
%TO.C,C1*%
X123985366Y-67045620D03*
X121035366Y-67045620D03*
%TD*%
D21*
%TO.C,LED2*%
X131934467Y-49638121D03*
D22*
X126854467Y-49638121D03*
X121774467Y-49638121D03*
%TD*%
D26*
%TO.C,J5*%
X128207135Y-83955794D03*
D10*
X133287135Y-81795794D03*
D11*
X130747135Y-81795794D03*
X128207135Y-81795794D03*
X125667135Y-81795794D03*
%TD*%
D27*
%TO.C,R3*%
X141345804Y-71465043D03*
X138420804Y-71465043D03*
%TD*%
D28*
%TO.C,R1*%
X144077000Y-63420957D03*
X144077000Y-66345957D03*
%TD*%
D29*
%TO.C,DMX_IN1*%
X149909094Y-57533932D03*
D30*
X149909094Y-60073932D03*
X149909094Y-62613932D03*
%TD*%
D31*
%TO.C,D2*%
X138574574Y-73948957D03*
X138574574Y-75848957D03*
X140449574Y-74898957D03*
%TD*%
D32*
%TO.C,MAX_Out1*%
X128456464Y-72304957D03*
X128456464Y-73574957D03*
X128456464Y-74844957D03*
X128456464Y-76114957D03*
X135681464Y-76114957D03*
X135681464Y-74844957D03*
X135681464Y-73574957D03*
X135681464Y-72304957D03*
%TD*%
D12*
%TO.C,H2*%
X100000000Y-80000000D03*
%TD*%
D29*
%TO.C,DMX_thru1*%
X149971638Y-67478526D03*
D30*
X149971638Y-70018526D03*
X149971638Y-72558526D03*
%TD*%
D28*
%TO.C,R2*%
X144019182Y-68333338D03*
X144019182Y-71258338D03*
%TD*%
D32*
%TO.C,MAX_In1*%
X128535748Y-66186786D03*
X128535748Y-67456786D03*
X128535748Y-68726786D03*
X128535748Y-69996786D03*
X135760748Y-69996786D03*
X135760748Y-68726786D03*
X135760748Y-67456786D03*
X135760748Y-66186786D03*
%TD*%
D33*
%TO.C,J4*%
X106076973Y-80015000D03*
D34*
X106076973Y-77475000D03*
X108616973Y-80015000D03*
X108616973Y-77475000D03*
X111156973Y-80015000D03*
X111156973Y-77475000D03*
X113696973Y-80015000D03*
X113696973Y-77475000D03*
X116236973Y-80015000D03*
X116236973Y-77475000D03*
%TD*%
D33*
%TO.C,JTAG1*%
X106268078Y-51195320D03*
D34*
X106268078Y-48655320D03*
X108808078Y-51195320D03*
X108808078Y-48655320D03*
X111348078Y-51195320D03*
X111348078Y-48655320D03*
X113888078Y-51195320D03*
X113888078Y-48655320D03*
X116428078Y-51195320D03*
X116428078Y-48655320D03*
%TD*%
D10*
%TO.C,LED1*%
X129394467Y-51905957D03*
D11*
X126854467Y-51905957D03*
X124314467Y-51905957D03*
%TD*%
D35*
%TO.C,R4*%
X143881927Y-76284918D03*
X143881927Y-73359918D03*
%TD*%
D23*
%TO.C,C2*%
X123334725Y-61363951D03*
X122663788Y-59763951D03*
D24*
X120163788Y-59763951D03*
X119492851Y-58163951D03*
%TD*%
D31*
%TO.C,D1*%
X139058442Y-66529078D03*
X139058442Y-68429078D03*
X140933442Y-67479078D03*
%TD*%
M02*
